{
copyright = "Copyright 2015 The Aikya Authors";
customParameters = (
{
name = fsType;
value = (
);
},
{
name = license;
value = "This Font Software is licensed under the SIL Open Font License, Version 1.1. This license is available with a FAQ at: http://scripts.sil.org/OFL";
},
{
name = licenseURL;
value = "http://scripts.sil.org/OFL";
},
{
name = vendorID;
value = BRNT;
}
);
date = "2016-03-20 07:32:45 +0000";
designer = "Neelakash Kshetrimayum";
designerURL = www.brandnewtype.com;
familyName = "Aikya";
fontMaster = (
{
ascender = 800;
capHeight = 700;
descender = -200;
guideLines = (
{
locked = 1;
position = "{-92, 491}";
},
{
locked = 1;
position = "{-50, 456}";
}
);
id = "F2EBC5D5-DDE2-4851-B52F-F2293ECE9CC7";
weight = Light;
weightValue = 0;
xHeight = 500;
},
{
ascender = 800;
capHeight = 700;
descender = -200;
guideLines = (
{
locked = 1;
position = "{-128, 521}";
},
{
locked = 1;
position = "{-89, 456}";
}
);
id = "A309AC34-D742-49E2-8DE7-30304959F2B2";
weight = Bold;
xHeight = 500;
}
);
glyphs = (
{
glyphname = bA;
lastChange = "2016-02-22 17:28:17 +0000";
layers = (
{
layerId = "F2EBC5D5-DDE2-4851-B52F-F2293ECE9CC7";
name = Light;
paths = (
{
closed = 1;
nodes = (
"338 97 OFFCURVE",
"396 165 OFFCURVE",
"396 252 CURVE",
"396 347 OFFCURVE",
"323 418 OFFCURVE",
"242 418 CURVE SMOOTH",
"191 418 OFFCURVE",
"154 389 OFFCURVE",
"154 347 CURVE SMOOTH",
"154 309 OFFCURVE",
"183 280 OFFCURVE",
"220 280 CURVE SMOOTH",
"256 280 OFFCURVE",
"286 307 OFFCURVE",
"286 346 CURVE SMOOTH",
"286 365 OFFCURVE",
"279 380 OFFCURVE",
"268 391 CURVE",
"250 372 LINE",
"258 374 OFFCURVE",
"266 375 OFFCURVE",
"274 375 CURVE SMOOTH",
"322 375 OFFCURVE",
"362 333 OFFCURVE",
"362 273 CURVE SMOOTH",
"362 204 OFFCURVE",
"310 155 OFFCURVE",
"240 155 CURVE SMOOTH",
"153 155 OFFCURVE",
"92 231 OFFCURVE",
"30 411 CURVE",
"7 402 LINE",
"73 200 OFFCURVE",
"152 97 OFFCURVE",
"254 97 CURVE SMOOTH"
);
},
{
closed = 1;
nodes = (
"506 0 LINE",
"506 466 LINE",
"466 466 LINE",
"466 107 LINE",
"475 110 LINE",
"454 173 OFFCURVE",
"413 229 OFFCURVE",
"381 259 CURVE",
"370 207 LINE",
"424 174 OFFCURVE",
"470 98 OFFCURVE",
"481 0 CURVE"
);
},
{
closed = 1;
nodes = (
"586 456 LINE",
"586 491 LINE",
"-10 491 LINE",
"-10 456 LINE"
);
}
);
width = 576;
},
{
layerId = "A309AC34-D742-49E2-8DE7-30304959F2B2";
name = Bold;
paths = (
{
closed = 1;
nodes = (
"366 57 OFFCURVE",
"426 131 OFFCURVE",
"426 226 CURVE",
"426 340 OFFCURVE",
"345 428 OFFCURVE",
"249 428 CURVE SMOOTH",
"186 428 OFFCURVE",
"145 390 OFFCURVE",
"145 339 CURVE SMOOTH",
"145 292 OFFCURVE",
"180 253 OFFCURVE",
"227 253 CURVE SMOOTH",
"268 253 OFFCURVE",
"301 282 OFFCURVE",
"301 328 CURVE SMOOTH",
"301 352 OFFCURVE",
"292 375 OFFCURVE",
"278 391 CURVE",
"266 338 LINE",
"274 340 OFFCURVE",
"283 341 OFFCURVE",
"290 341 CURVE SMOOTH",
"329 341 OFFCURVE",
"355 309 OFFCURVE",
"355 270 CURVE SMOOTH",
"355 217 OFFCURVE",
"309 178 OFFCURVE",
"243 178 CURVE SMOOTH",
"182 178 OFFCURVE",
"117 211 OFFCURVE",
"40 419 CURVE",
"-12 398 LINE",
"60 167 OFFCURVE",
"155 57 OFFCURVE",
"271 57 CURVE SMOOTH"
);
},
{
closed = 1;
nodes = (
"546 0 LINE",
"546 466 LINE",
"466 466 LINE",
"466 107 LINE",
"515 60 LINE",
"487 144 OFFCURVE",
"437 219 OFFCURVE",
"391 259 CURVE",
"370 157 LINE",
"429 139 OFFCURVE",
"479 78 OFFCURVE",
"486 0 CURVE"
);
},
{
closed = 1;
nodes = (
"626 456 LINE",
"626 521 LINE",
"-30 521 LINE",
"-30 456 LINE"
);
}
);
width = 596;
}
);
},
{
glyphname = bAa;
lastChange = "2016-02-22 17:28:17 +0000";
layers = (
{
layerId = "F2EBC5D5-DDE2-4851-B52F-F2293ECE9CC7";
name = Light;
paths = (
{
closed = 1;
nodes = (
"338 97 OFFCURVE",
"396 165 OFFCURVE",
"396 252 CURVE",
"396 347 OFFCURVE",
"323 418 OFFCURVE",
"242 418 CURVE SMOOTH",
"191 418 OFFCURVE",
"154 389 OFFCURVE",
"154 347 CURVE SMOOTH",
"154 309 OFFCURVE",
"183 280 OFFCURVE",
"220 280 CURVE SMOOTH",
"256 280 OFFCURVE",
"286 307 OFFCURVE",
"286 346 CURVE SMOOTH",
"286 365 OFFCURVE",
"279 380 OFFCURVE",
"268 391 CURVE",
"250 372 LINE",
"258 374 OFFCURVE",
"266 375 OFFCURVE",
"274 375 CURVE SMOOTH",
"322 375 OFFCURVE",
"362 333 OFFCURVE",
"362 273 CURVE SMOOTH",
"362 204 OFFCURVE",
"310 155 OFFCURVE",
"240 155 CURVE SMOOTH",
"153 155 OFFCURVE",
"92 231 OFFCURVE",
"30 411 CURVE",
"7 402 LINE",
"73 200 OFFCURVE",
"152 97 OFFCURVE",
"254 97 CURVE SMOOTH"
);
},
{
closed = 1;
nodes = (
"506 0 LINE",
"506 466 LINE",
"466 466 LINE",
"466 107 LINE",
"475 110 LINE",
"454 173 OFFCURVE",
"413 229 OFFCURVE",
"381 259 CURVE",
"370 207 LINE",
"424 174 OFFCURVE",
"470 98 OFFCURVE",
"481 0 CURVE"
);
},
{
closed = 1;
nodes = (
"566 456 LINE",
"566 491 LINE",
"-10 491 LINE",
"-10 456 LINE"
);
},
{
closed = 1;
nodes = (
"673 0 LINE",
"673 456 LINE",
"753 456 LINE",
"753 491 LINE",
"633 491 LINE",
"633 381 LINE",
"648 384 LINE",
"637 451 OFFCURVE",
"604 491 OFFCURVE",
"571 491 CURVE SMOOTH",
"551 491 LINE",
"551 456 LINE",
"567 456 LINE SMOOTH",
"603 456 OFFCURVE",
"633 415 OFFCURVE",
"633 366 CURVE SMOOTH",
"633 0 LINE"
);
}
);
width = 743;
},
{
layerId = "A309AC34-D742-49E2-8DE7-30304959F2B2";
name = Bold;
paths = (
{
closed = 1;
nodes = (
"366 57 OFFCURVE",
"426 131 OFFCURVE",
"426 226 CURVE",
"426 340 OFFCURVE",
"345 428 OFFCURVE",
"249 428 CURVE SMOOTH",
"186 428 OFFCURVE",
"145 390 OFFCURVE",
"145 339 CURVE SMOOTH",
"145 292 OFFCURVE",
"180 253 OFFCURVE",
"227 253 CURVE SMOOTH",
"268 253 OFFCURVE",
"301 282 OFFCURVE",
"301 328 CURVE SMOOTH",
"301 352 OFFCURVE",
"292 375 OFFCURVE",
"278 391 CURVE",
"266 338 LINE",
"274 340 OFFCURVE",
"283 341 OFFCURVE",
"290 341 CURVE SMOOTH",
"329 341 OFFCURVE",
"355 309 OFFCURVE",
"355 270 CURVE SMOOTH",
"355 217 OFFCURVE",
"309 178 OFFCURVE",
"243 178 CURVE SMOOTH",
"182 178 OFFCURVE",
"117 211 OFFCURVE",
"40 419 CURVE",
"-12 398 LINE",
"60 167 OFFCURVE",
"155 57 OFFCURVE",
"271 57 CURVE SMOOTH"
);
},
{
closed = 1;
nodes = (
"546 0 LINE",
"546 466 LINE",
"466 466 LINE",
"466 107 LINE",
"515 60 LINE",
"487 144 OFFCURVE",
"437 219 OFFCURVE",
"391 259 CURVE",
"370 157 LINE",
"429 139 OFFCURVE",
"479 78 OFFCURVE",
"486 0 CURVE"
);
},
{
closed = 1;
nodes = (
"586 456 LINE",
"586 521 LINE",
"-30 521 LINE",
"-30 456 LINE"
);
},
{
closed = 1;
nodes = (
"732 0 LINE",
"732 456 LINE",
"812 456 LINE",
"812 521 LINE",
"682 521 LINE",
"652 371 LINE",
"687 394 LINE",
"678 474 OFFCURVE",
"664 521 OFFCURVE",
"621 521 CURVE SMOOTH",
"560 521 LINE",
"560 456 LINE",
"606 456 LINE SMOOTH",
"651 456 OFFCURVE",
"652 405 OFFCURVE",
"652 346 CURVE SMOOTH",
"652 0 LINE"
);
}
);
width = 782;
}
);
},
{
glyphname = bI;
lastChange = "2016-03-04 21:29:04 +0000";
layers = (
{
background = {
paths = (
{
closed = 1;
nodes = (
"426 491 LINE",
"426 456 LINE",
"-10 456 LINE",
"-10 491 LINE"
);
},
{
closed = 1;
nodes = (
"293 421 OFFCURVE",
"362 357 OFFCURVE",
"362 280 CURVE SMOOTH",
"362 196 OFFCURVE",
"279 129 OFFCURVE",
"171 128 CURVE",
"167 146 LINE",
"251 119 OFFCURVE",
"302 88 OFFCURVE",
"425 0 CURVE",
"409 -19 LINE",
"271 71 OFFCURVE",
"198 96 OFFCURVE",
"71 121 CURVE",
"38 196 LINE",
"69 187 OFFCURVE",
"117 181 OFFCURVE",
"152 181 CURVE SMOOTH",
"258 181 OFFCURVE",
"324 235 OFFCURVE",
"324 300 CURVE SMOOTH",
"324 344 OFFCURVE",
"293 375 OFFCURVE",
"236 375 CURVE SMOOTH",
"209 375 OFFCURVE",
"190 368 OFFCURVE",
"176 359 CURVE",
"205 390 LINE",
"210 377 OFFCURVE",
"211 364 OFFCURVE",
"211 356 CURVE SMOOTH",
"211 306 OFFCURVE",
"173 269 OFFCURVE",
"128 269 CURVE SMOOTH",
"90 269 OFFCURVE",
"65 296 OFFCURVE",
"65 330 CURVE SMOOTH",
"65 380 OFFCURVE",
"118 421 OFFCURVE",
"196 421 CURVE SMOOTH"
);
}
);
};
layerId = "F2EBC5D5-DDE2-4851-B52F-F2293ECE9CC7";
name = Light;
paths = (
{
closed = 1;
nodes = (
"425 0 LINE",
"302 88 OFFCURVE",
"251 119 OFFCURVE",
"167 146 CURVE",
"171 128 LINE",
"279 129 OFFCURVE",
"362 196 OFFCURVE",
"362 280 CURVE SMOOTH",
"362 357 OFFCURVE",
"293 421 OFFCURVE",
"196 421 CURVE SMOOTH",
"118 421 OFFCURVE",
"65 380 OFFCURVE",
"65 330 CURVE SMOOTH",
"65 296 OFFCURVE",
"90 269 OFFCURVE",
"128 269 CURVE SMOOTH",
"173 269 OFFCURVE",
"211 306 OFFCURVE",
"211 356 CURVE SMOOTH",
"211 364 OFFCURVE",
"210 377 OFFCURVE",
"205 390 CURVE",
"176 359 LINE",
"190 368 OFFCURVE",
"209 375 OFFCURVE",
"236 375 CURVE SMOOTH",
"293 375 OFFCURVE",
"324 344 OFFCURVE",
"324 300 CURVE SMOOTH",
"324 235 OFFCURVE",
"258 181 OFFCURVE",
"152 181 CURVE SMOOTH",
"117 181 OFFCURVE",
"69 187 OFFCURVE",
"38 196 CURVE",
"71 121 LINE",
"198 96 OFFCURVE",
"271 71 OFFCURVE",
"409 -19 CURVE"
);
},
{
closed = 1;
nodes = (
"426 456 LINE",
"426 491 LINE",
"-10 491 LINE",
"-10 456 LINE"
);
},
{
closed = 1;
nodes = (
"340 564 OFFCURVE",
"301 616 OFFCURVE",
"222 616 CURVE SMOOTH",
"184 616 OFFCURVE",
"116 604 OFFCURVE",
"80 604 CURVE SMOOTH",
"38 604 OFFCURVE",
"19 620 OFFCURVE",
"19 644 CURVE SMOOTH",
"19 662 OFFCURVE",
"30 683 OFFCURVE",
"44 700 CURVE",
"25 714 LINE",
"6 694 OFFCURVE",
"-9 668 OFFCURVE",
"-9 638 CURVE SMOOTH",
"-9 588 OFFCURVE",
"33 553 OFFCURVE",
"97 553 CURVE SMOOTH",
"133 553 OFFCURVE",
"217 564 OFFCURVE",
"253 564 CURVE SMOOTH",
"296 564 OFFCURVE",
"312 548 OFFCURVE",
"312 520 CURVE SMOOTH",
"312 508 OFFCURVE",
"309 497 OFFCURVE",
"302 486 CURVE",
"346 485 LINE"
);
}
);
width = 416;
},
{
background = {
paths = (
{
closed = 1;
nodes = (
"460 -10 LINE",
"319 90 OFFCURVE",
"248 125 OFFCURVE",
"162 156 CURVE",
"202 91 LINE",
"318 91 OFFCURVE",
"407 159 OFFCURVE",
"407 256 CURVE SMOOTH",
"407 352 OFFCURVE",
"319 432 OFFCURVE",
"200 432 CURVE SMOOTH",
"105 432 OFFCURVE",
"40 382 OFFCURVE",
"40 321 CURVE SMOOTH",
"40 275 OFFCURVE",
"77 239 OFFCURVE",
"128 239 CURVE SMOOTH",
"187 239 OFFCURVE",
"236 286 OFFCURVE",
"236 343 CURVE SMOOTH",
"236 357 OFFCURVE",
"233 373 OFFCURVE",
"220 390 CURVE",
"201 329 LINE",
"223 340 OFFCURVE",
"237 348 OFFCURVE",
"263 348 CURVE SMOOTH",
"305 348 OFFCURVE",
"327 326 OFFCURVE",
"327 294 CURVE SMOOTH",
"327 236 OFFCURVE",
"259 186 OFFCURVE",
"148 186 CURVE SMOOTH",
"109 186 OFFCURVE",
"58 192 OFFCURVE",
"19 202 CURVE",
"86 71 LINE",
"213 51 OFFCURVE",
"286 27 OFFCURVE",
"424 -55 CURVE"
);
},
{
closed = 1;
nodes = (
"476 456 LINE",
"476 521 LINE",
"-30 521 LINE",
"-30 456 LINE"
);
},
{
closed = 1;
nodes = (
"382 601 OFFCURVE",
"325 675 OFFCURVE",
"223 675 CURVE SMOOTH",
"182 675 OFFCURVE",
"117 663 OFFCURVE",
"78 663 CURVE SMOOTH",
"43 663 OFFCURVE",
"29 673 OFFCURVE",
"29 690 CURVE SMOOTH",
"29 703 OFFCURVE",
"37 721 OFFCURVE",
"50 738 CURVE",
"6 764 LINE",
"-13 740 OFFCURVE",
"-29 712 OFFCURVE",
"-29 678 CURVE SMOOTH",
"-29 610 OFFCURVE",
"32 564 OFFCURVE",
"114 564 CURVE SMOOTH",
"156 564 OFFCURVE",
"246 576 OFFCURVE",
"279 576 CURVE SMOOTH",
"311 576 OFFCURVE",
"322 565 OFFCURVE",
"322 545 CURVE SMOOTH",
"322 535 OFFCURVE",
"319 525 OFFCURVE",
"312 516 CURVE",
"391 515 LINE"
);
}
);
};
layerId = "A309AC34-D742-49E2-8DE7-30304959F2B2";
name = Bold;
paths = (
{
closed = 1;
nodes = (
"460 -10 LINE",
"319 90 OFFCURVE",
"248 125 OFFCURVE",
"162 156 CURVE",
"202 91 LINE",
"318 91 OFFCURVE",
"407 159 OFFCURVE",
"407 256 CURVE SMOOTH",
"407 352 OFFCURVE",
"319 432 OFFCURVE",
"200 432 CURVE SMOOTH",
"105 432 OFFCURVE",
"40 382 OFFCURVE",
"40 321 CURVE SMOOTH",
"40 275 OFFCURVE",
"77 239 OFFCURVE",
"128 239 CURVE SMOOTH",
"187 239 OFFCURVE",
"236 286 OFFCURVE",
"236 343 CURVE SMOOTH",
"236 357 OFFCURVE",
"233 373 OFFCURVE",
"220 390 CURVE",
"201 329 LINE",
"223 340 OFFCURVE",
"237 348 OFFCURVE",
"263 348 CURVE SMOOTH",
"305 348 OFFCURVE",
"327 326 OFFCURVE",
"327 294 CURVE SMOOTH",
"327 236 OFFCURVE",
"259 186 OFFCURVE",
"148 186 CURVE SMOOTH",
"109 186 OFFCURVE",
"58 192 OFFCURVE",
"19 202 CURVE",
"86 71 LINE",
"213 51 OFFCURVE",
"286 27 OFFCURVE",
"424 -55 CURVE"
);
},
{
closed = 1;
nodes = (
"476 456 LINE",
"476 521 LINE",
"-30 521 LINE",
"-30 456 LINE"
);
},
{
closed = 1;
nodes = (
"382 596 OFFCURVE",
"325 665 OFFCURVE",
"224 665 CURVE SMOOTH",
"182 665 OFFCURVE",
"115 653 OFFCURVE",
"80 653 CURVE SMOOTH",
"43 653 OFFCURVE",
"29 667 OFFCURVE",
"29 688 CURVE SMOOTH",
"29 704 OFFCURVE",
"37 721 OFFCURVE",
"50 738 CURVE",
"6 764 LINE",
"-13 740 OFFCURVE",
"-29 712 OFFCURVE",
"-29 678 CURVE SMOOTH",
"-29 610 OFFCURVE",
"32 564 OFFCURVE",
"114 564 CURVE SMOOTH",
"156 564 OFFCURVE",
"246 576 OFFCURVE",
"279 576 CURVE SMOOTH",
"311 576 OFFCURVE",
"322 565 OFFCURVE",
"322 545 CURVE SMOOTH",
"322 535 OFFCURVE",
"319 525 OFFCURVE",
"312 516 CURVE",
"391 515 LINE"
);
}
);
width = 446;
}
);
},
{
glyphname = bIi;
lastChange = "2016-03-04 21:29:20 +0000";
layers = (
{
layerId = "F2EBC5D5-DDE2-4851-B52F-F2293ECE9CC7";
name = Light;
paths = (
{
closed = 1;
nodes = (
"392 -14 LINE",
"371 60 OFFCURVE",
"364 120 OFFCURVE",
"364 165 CURVE SMOOTH",
"364 261 OFFCURVE",
"396 323 OFFCURVE",
"441 362 CURVE",
"402 411 LINE",
"335 383 OFFCURVE",
"276 337 OFFCURVE",
"232 282 CURVE",
"241 271 LINE",
"244 282 OFFCURVE",
"246 293 OFFCURVE",
"246 305 CURVE SMOOTH",
"246 375 OFFCURVE",
"188 424 OFFCURVE",
"122 424 CURVE SMOOTH",
"64 424 OFFCURVE",
"28 387 OFFCURVE",
"28 346 CURVE SMOOTH",
"28 310 OFFCURVE",
"56 282 OFFCURVE",
"89 282 CURVE SMOOTH",
"120 282 OFFCURVE",
"147 306 OFFCURVE",
"147 339 CURVE SMOOTH",
"147 353 OFFCURVE",
"142 366 OFFCURVE",
"131 378 CURVE",
"111 351 LINE",
"123 358 OFFCURVE",
"139 363 OFFCURVE",
"156 363 CURVE SMOOTH",
"194 363 OFFCURVE",
"216 337 OFFCURVE",
"216 303 CURVE SMOOTH",
"216 249 OFFCURVE",
"160 170 OFFCURVE",
"113 170 CURVE SMOOTH",
"90 170 OFFCURVE",
"79 188 OFFCURVE",
"70 222 CURVE",
"46 215 LINE",
"59 147 OFFCURVE",
"89 109 OFFCURVE",
"129 109 CURVE SMOOTH",
"168 109 OFFCURVE",
"199 143 OFFCURVE",
"240 202 CURVE SMOOTH",
"307 292 OFFCURVE",
"320 301 OFFCURVE",
"377 340 CURVE",
"367 351 LINE",
"332 296 OFFCURVE",
"321 245 OFFCURVE",
"321 191 CURVE SMOOTH",
"321 129 OFFCURVE",
"336 62 OFFCURVE",
"366 -22 CURVE"
);
},
{
closed = 1;
nodes = (
"465 456 LINE",
"465 491 LINE",
"-10 491 LINE",
"-10 456 LINE"
);
},
{
closed = 1;
nodes = (
"370 560 OFFCURVE",
"335 616 OFFCURVE",
"251 616 CURVE SMOOTH",
"212 616 OFFCURVE",
"138 604 OFFCURVE",
"100 604 CURVE SMOOTH",
"56 604 OFFCURVE",
"39 621 OFFCURVE",
"39 643 CURVE SMOOTH",
"39 661 OFFCURVE",
"50 684 OFFCURVE",
"64 700 CURVE",
"45 714 LINE",
"26 694 OFFCURVE",
"11 668 OFFCURVE",
"11 638 CURVE SMOOTH",
"11 588 OFFCURVE",
"53 553 OFFCURVE",
"118 553 CURVE SMOOTH",
"154 553 OFFCURVE",
"246 564 OFFCURVE",
"282 564 CURVE SMOOTH",
"326 564 OFFCURVE",
"342 548 OFFCURVE",
"342 520 CURVE SMOOTH",
"342 508 OFFCURVE",
"339 497 OFFCURVE",
"332 486 CURVE",
"376 485 LINE"
);
}
);
width = 455;
},
{
layerId = "A309AC34-D742-49E2-8DE7-30304959F2B2";
name = Bold;
paths = (
{
closed = 1;
nodes = (
"429 -14 LINE",
"411 52 OFFCURVE",
"405 106 OFFCURVE",
"405 146 CURVE SMOOTH",
"405 230 OFFCURVE",
"432 290 OFFCURVE",
"487 332 CURVE",
"412 421 LINE",
"343 388 OFFCURVE",
"285 333 OFFCURVE",
"236 267 CURVE",
"281 224 LINE",
"284 235 OFFCURVE",
"286 245 OFFCURVE",
"286 261 CURVE SMOOTH",
"286 360 OFFCURVE",
"215 434 OFFCURVE",
"130 434 CURVE SMOOTH",
"61 434 OFFCURVE",
"15 386 OFFCURVE",
"15 331 CURVE SMOOTH",
"15 281 OFFCURVE",
"52 246 OFFCURVE",
"96 246 CURVE SMOOTH",
"135 246 OFFCURVE",
"167 274 OFFCURVE",
"167 314 CURVE SMOOTH",
"167 337 OFFCURVE",
"156 358 OFFCURVE",
"131 378 CURVE",
"131 315 LINE",
"144 330 OFFCURVE",
"161 341 OFFCURVE",
"180 341 CURVE SMOOTH",
"208 341 OFFCURVE",
"223 317 OFFCURVE",
"223 291 CURVE SMOOTH",
"223 240 OFFCURVE",
"162 164 OFFCURVE",
"118 164 CURVE SMOOTH",
"93 164 OFFCURVE",
"80 188 OFFCURVE",
"73 209 CURVE",
"25 189 LINE",
"42 116 OFFCURVE",
"85 59 OFFCURVE",
"151 59 CURVE SMOOTH",
"200 59 OFFCURVE",
"226 90 OFFCURVE",
"282 161 CURVE SMOOTH",
"351 249 OFFCURVE",
"343 246 OFFCURVE",
"423 300 CURVE",
"387 351 LINE",
"344 293 OFFCURVE",
"331 237 OFFCURVE",
"331 182 CURVE SMOOTH",
"331 118 OFFCURVE",
"348 52 OFFCURVE",
"380 -32 CURVE"
);
},
{
closed = 1;
nodes = (
"531 456 LINE",
"531 521 LINE",
"-30 521 LINE",
"-30 456 LINE"
);
},
{
closed = 1;
nodes = (
"422 596 OFFCURVE",
"365 665 OFFCURVE",
"261 665 CURVE SMOOTH",
"218 665 OFFCURVE",
"129 653 OFFCURVE",
"92 653 CURVE SMOOTH",
"53 653 OFFCURVE",
"39 667 OFFCURVE",
"39 688 CURVE SMOOTH",
"39 704 OFFCURVE",
"47 721 OFFCURVE",
"60 738 CURVE",
"16 764 LINE",
"-3 740 OFFCURVE",
"-19 712 OFFCURVE",
"-19 678 CURVE SMOOTH",
"-19 610 OFFCURVE",
"41 564 OFFCURVE",
"126 564 CURVE SMOOTH",
"170 564 OFFCURVE",
"283 576 OFFCURVE",
"318 576 CURVE SMOOTH",
"351 576 OFFCURVE",
"362 565 OFFCURVE",
"362 545 CURVE SMOOTH",
"362 535 OFFCURVE",
"359 525 OFFCURVE",
"352 516 CURVE",
"431 515 LINE"
);
}
);
width = 501;
}
);
},
{
glyphname = bU;
lastChange = "2016-03-04 21:29:39 +0000";
layers = (
{
layerId = "F2EBC5D5-DDE2-4851-B52F-F2293ECE9CC7";
name = Light;
paths = (
{
closed = 1;
nodes = (
"390 24 OFFCURVE",
"453 105 OFFCURVE",
"453 207 CURVE SMOOTH",
"453 285 OFFCURVE",
"416 335 OFFCURVE",
"373 371 CURVE",
"334 299 OFFCURVE",
"285 253 OFFCURVE",
"259 253 CURVE SMOOTH",
"248 253 OFFCURVE",
"243 261 OFFCURVE",
"243 274 CURVE SMOOTH",
"243 466 LINE",
"203 466 LINE",
"203 305 LINE SMOOTH",
"203 257 OFFCURVE",
"241 209 OFFCURVE",
"281 209 CURVE SMOOTH",
"319 209 OFFCURVE",
"372 254 OFFCURVE",
"406 318 CURVE",
"380 317 LINE",
"404 300 OFFCURVE",
"423 270 OFFCURVE",
"423 225 CURVE SMOOTH",
"423 144 OFFCURVE",
"363 82 OFFCURVE",
"278 82 CURVE SMOOTH",
"174 82 OFFCURVE",
"99 178 OFFCURVE",
"45 411 CURVE",
"20 404 LINE",
"79 132 OFFCURVE",
"178 24 OFFCURVE",
"292 24 CURVE SMOOTH"
);
},
{
closed = 1;
nodes = (
"497 456 LINE",
"497 491 LINE",
"-10 491 LINE",
"-10 456 LINE"
);
},
{
closed = 1;
nodes = (
"400 564 OFFCURVE",
"362 616 OFFCURVE",
"280 616 CURVE SMOOTH",
"241 616 OFFCURVE",
"158 604 OFFCURVE",
"120 604 CURVE SMOOTH",
"75 604 OFFCURVE",
"59 621 OFFCURVE",
"59 643 CURVE SMOOTH",
"59 661 OFFCURVE",
"70 684 OFFCURVE",
"84 700 CURVE",
"65 714 LINE",
"46 694 OFFCURVE",
"31 668 OFFCURVE",
"31 638 CURVE SMOOTH",
"31 588 OFFCURVE",
"72 553 OFFCURVE",
"139 553 CURVE SMOOTH",
"176 553 OFFCURVE",
"274 564 OFFCURVE",
"312 564 CURVE SMOOTH",
"357 564 OFFCURVE",
"372 548 OFFCURVE",
"372 520 CURVE SMOOTH",
"372 508 OFFCURVE",
"369 497 OFFCURVE",
"362 486 CURVE",
"406 485 LINE"
);
}
);
width = 487;
},
{
layerId = "A309AC34-D742-49E2-8DE7-30304959F2B2";
name = Bold;
paths = (
{
closed = 1;
nodes = (
"417 12 OFFCURVE",
"487 87 OFFCURVE",
"487 195 CURVE SMOOTH",
"487 289 OFFCURVE",
"434 360 OFFCURVE",
"380 407 CURVE",
"335 337 OFFCURVE",
"289 295 OFFCURVE",
"266 295 CURVE SMOOTH",
"256 295 OFFCURVE",
"253 303 OFFCURVE",
"253 314 CURVE SMOOTH",
"253 466 LINE",
"173 466 LINE",
"173 349 LINE SMOOTH",
"173 274 OFFCURVE",
"230 194 OFFCURVE",
"293 194 CURVE SMOOTH",
"339 194 OFFCURVE",
"400 236 OFFCURVE",
"432 297 CURVE",
"360 327 LINE",
"398 305 OFFCURVE",
"417 267 OFFCURVE",
"417 232 CURVE SMOOTH",
"417 172 OFFCURVE",
"363 128 OFFCURVE",
"285 128 CURVE SMOOTH",
"193 128 OFFCURVE",
"109 189 OFFCURVE",
"48 422 CURVE",
"-10 404 LINE",
"68 112 OFFCURVE",
"176 12 OFFCURVE",
"305 12 CURVE SMOOTH"
);
},
{
closed = 1;
nodes = (
"543 456 LINE",
"543 521 LINE",
"-30 521 LINE",
"-30 456 LINE"
);
},
{
closed = 1;
nodes = (
"451 596 OFFCURVE",
"390 665 OFFCURVE",
"282 665 CURVE SMOOTH",
"237 665 OFFCURVE",
"149 653 OFFCURVE",
"112 653 CURVE SMOOTH",
"73 653 OFFCURVE",
"59 667 OFFCURVE",
"59 688 CURVE SMOOTH",
"59 704 OFFCURVE",
"67 721 OFFCURVE",
"80 738 CURVE",
"36 764 LINE",
"17 740 OFFCURVE",
"1 712 OFFCURVE",
"1 678 CURVE SMOOTH",
"1 610 OFFCURVE",
"61 564 OFFCURVE",
"146 564 CURVE SMOOTH",
"190 564 OFFCURVE",
"301 576 OFFCURVE",
"341 576 CURVE SMOOTH",
"380 576 OFFCURVE",
"392 564 OFFCURVE",
"392 545 CURVE SMOOTH",
"392 535 OFFCURVE",
"389 525 OFFCURVE",
"382 516 CURVE",
"461 515 LINE"
);
}
);
width = 513;
}
);
},
{
glyphname = bUu;
lastChange = "2016-03-04 21:29:59 +0000";
layers = (
{
layerId = "F2EBC5D5-DDE2-4851-B52F-F2293ECE9CC7";
name = Light;
paths = (
{
closed = 1;
nodes = (
"429 16 OFFCURVE",
"500 100 OFFCURVE",
"500 206 CURVE SMOOTH",
"500 285 OFFCURVE",
"463 335 OFFCURVE",
"420 371 CURVE",
"381 299 OFFCURVE",
"332 253 OFFCURVE",
"306 253 CURVE SMOOTH",
"295 253 OFFCURVE",
"290 261 OFFCURVE",
"290 274 CURVE SMOOTH",
"290 466 LINE",
"250 466 LINE",
"250 305 LINE SMOOTH",
"250 257 OFFCURVE",
"288 209 OFFCURVE",
"328 209 CURVE SMOOTH",
"366 209 OFFCURVE",
"419 254 OFFCURVE",
"453 318 CURVE",
"427 317 LINE",
"451 300 OFFCURVE",
"470 270 OFFCURVE",
"470 225 CURVE SMOOTH",
"470 145 OFFCURVE",
"408 83 OFFCURVE",
"334 83 CURVE SMOOTH",
"242 83 OFFCURVE",
"160 179 OFFCURVE",
"122 410 CURVE",
"97 405 LINE",
"128 206 OFFCURVE",
"188 95 OFFCURVE",
"275 49 CURVE",
"295 59 LINE",
"184 77 OFFCURVE",
"105 148 OFFCURVE",
"47 401 CURVE",
"22 394 LINE",
"79 110 OFFCURVE",
"198 16 OFFCURVE",
"317 16 CURVE SMOOTH"
);
},
{
closed = 1;
nodes = (
"544 456 LINE",
"544 491 LINE",
"-10 491 LINE",
"-10 456 LINE"
);
},
{
closed = 1;
nodes = (
"446 570 OFFCURVE",
"406 616 OFFCURVE",
"325 616 CURVE SMOOTH",
"283 616 OFFCURVE",
"183 604 OFFCURVE",
"135 604 CURVE SMOOTH",
"78 604 OFFCURVE",
"56 621 OFFCURVE",
"56 644 CURVE SMOOTH",
"56 661 OFFCURVE",
"67 684 OFFCURVE",
"81 700 CURVE",
"62 714 LINE",
"43 694 OFFCURVE",
"28 667 OFFCURVE",
"28 639 CURVE SMOOTH",
"28 588 OFFCURVE",
"77 553 OFFCURVE",
"155 553 CURVE SMOOTH",
"199 553 OFFCURVE",
"316 564 OFFCURVE",
"357 564 CURVE SMOOTH",
"404 564 OFFCURVE",
"419 549 OFFCURVE",
"419 520 CURVE SMOOTH",
"419 508 OFFCURVE",
"416 497 OFFCURVE",
"409 486 CURVE",
"453 485 LINE"
);
}
);
width = 534;
},
{
layerId = "A309AC34-D742-49E2-8DE7-30304959F2B2";
name = Bold;
paths = (
{
closed = 1;
nodes = (
"481 12 OFFCURVE",
"557 88 OFFCURVE",
"557 195 CURVE SMOOTH",
"557 289 OFFCURVE",
"502 362 OFFCURVE",
"450 407 CURVE",
"405 337 OFFCURVE",
"359 295 OFFCURVE",
"336 295 CURVE SMOOTH",
"326 295 OFFCURVE",
"323 303 OFFCURVE",
"323 314 CURVE SMOOTH",
"323 466 LINE",
"243 466 LINE",
"243 349 LINE SMOOTH",
"243 274 OFFCURVE",
"300 194 OFFCURVE",
"363 194 CURVE SMOOTH",
"409 194 OFFCURVE",
"470 236 OFFCURVE",
"502 297 CURVE",
"430 327 LINE",
"468 305 OFFCURVE",
"487 267 OFFCURVE",
"487 232 CURVE SMOOTH",
"487 171 OFFCURVE",
"431 128 OFFCURVE",
"359 128 CURVE SMOOTH",
"270 128 OFFCURVE",
"192 195 OFFCURVE",
"133 431 CURVE",
"80 417 LINE",
"125 235 OFFCURVE",
"179 123 OFFCURVE",
"284 65 CURVE",
"335 88 LINE",
"195 88 OFFCURVE",
"110 192 OFFCURVE",
"43 417 CURVE",
"-10 401 LINE",
"76 116 OFFCURVE",
"192 12 OFFCURVE",
"351 12 CURVE SMOOTH"
);
},
{
closed = 1;
nodes = (
"613 456 LINE",
"613 521 LINE",
"-30 521 LINE",
"-30 456 LINE"
);
},
{
closed = 1;
nodes = (
"521 596 OFFCURVE",
"452 665 OFFCURVE",
"346 665 CURVE SMOOTH",
"302 665 OFFCURVE",
"185 653 OFFCURVE",
"142 653 CURVE SMOOTH",
"95 653 OFFCURVE",
"79 667 OFFCURVE",
"79 689 CURVE SMOOTH",
"79 704 OFFCURVE",
"87 721 OFFCURVE",
"100 738 CURVE",
"56 764 LINE",
"37 740 OFFCURVE",
"21 712 OFFCURVE",
"21 678 CURVE SMOOTH",
"21 610 OFFCURVE",
"84 564 OFFCURVE",
"178 564 CURVE SMOOTH",
"226 564 OFFCURVE",
"367 576 OFFCURVE",
"409 576 CURVE SMOOTH",
"450 576 OFFCURVE",
"462 565 OFFCURVE",
"462 545 CURVE SMOOTH",
"462 535 OFFCURVE",
"459 525 OFFCURVE",
"452 516 CURVE",
"531 515 LINE"
);
}
);
width = 583;
}
);
},
{
glyphname = bVocalicR;
lastChange = "2016-02-24 04:55:38 +0000";
layers = (
{
layerId = "F2EBC5D5-DDE2-4851-B52F-F2293ECE9CC7";
name = Light;
paths = (
{
closed = 1;
nodes = (
"368 0 LINE",
"368 491 LINE",
"328 491 LINE",
"328 62 LINE",
"338 78 LINE",
"292 176 OFFCURVE",
"203 227 OFFCURVE",
"107 253 CURVE",
"103 225 LINE",
"178 284 OFFCURVE",
"255 335 OFFCURVE",
"336 378 CURVE",
"336 437 LINE",
"240 385 OFFCURVE",
"150 327 OFFCURVE",
"64 260 CURVE",
"118 192 LINE",
"249 169 OFFCURVE",
"333 87 OFFCURVE",
"343 0 CURVE"
);
},
{
closed = 1;
nodes = (
"152 364 OFFCURVE",
"205 394 OFFCURVE",
"248 459 CURVE",
"220 463 LINE",
"247 449 OFFCURVE",
"273 417 OFFCURVE",
"284 384 CURVE",
"308 393 LINE",
"300 430 OFFCURVE",
"262 476 OFFCURVE",
"214 509 CURVE",
"186 458 OFFCURVE",
"144 423 OFFCURVE",
"106 423 CURVE SMOOTH",
"99 423 OFFCURVE",
"92 424 OFFCURVE",
"85 427 CURVE",
"100 403 LINE",
"108 414 OFFCURVE",
"112 425 OFFCURVE",
"112 436 CURVE SMOOTH",
"112 460 OFFCURVE",
"94 479 OFFCURVE",
"68 479 CURVE SMOOTH",
"41 479 OFFCURVE",
"22 459 OFFCURVE",
"22 430 CURVE SMOOTH",
"22 392 OFFCURVE",
"55 364 OFFCURVE",
"103 364 CURVE SMOOTH"
);
},
{
closed = 1;
nodes = (
"486 51 LINE",
"486 456 LINE",
"566 456 LINE",
"566 491 LINE",
"446 491 LINE",
"446 126 LINE",
"458 133 LINE",
"440 187 OFFCURVE",
"404 229 OFFCURVE",
"359 261 CURVE",
"355 214 LINE",
"420 181 OFFCURVE",
"451 132 OFFCURVE",
"461 51 CURVE"
);
}
);
width = 556;
},
{
layerId = "A309AC34-D742-49E2-8DE7-30304959F2B2";
name = Bold;
paths = (
{
closed = 1;
nodes = (
"434 0 LINE",
"434 521 LINE",
"354 521 LINE",
"354 82 LINE",
"404 38 LINE",
"348 158 OFFCURVE",
"250 221 OFFCURVE",
"123 253 CURVE",
"149 180 LINE",
"230 237 OFFCURVE",
"313 280 OFFCURVE",
"402 320 CURVE",
"372 429 LINE",
"271 385 OFFCURVE",
"165 326 OFFCURVE",
"70 265 CURVE",
"154 132 LINE",
"285 119 OFFCURVE",
"362 62 OFFCURVE",
"379 0 CURVE"
);
},
{
closed = 1;
nodes = (
"182 358 OFFCURVE",
"244 391 OFFCURVE",
"289 455 CURVE",
"227 453 LINE",
"255 436 OFFCURVE",
"281 408 OFFCURVE",
"293 364 CURVE",
"352 385 LINE",
"333 443 OFFCURVE",
"297 494 OFFCURVE",
"238 531 CURVE",
"210 487 OFFCURVE",
"158 451 OFFCURVE",
"126 451 CURVE SMOOTH",
"120 451 OFFCURVE",
"108 452 OFFCURVE",
"98 455 CURVE",
"123 404 LINE",
"141 415 OFFCURVE",
"150 430 OFFCURVE",
"150 449 CURVE SMOOTH",
"150 481 OFFCURVE",
"125 508 OFFCURVE",
"88 508 CURVE SMOOTH",
"53 508 OFFCURVE",
"26 483 OFFCURVE",
"26 444 CURVE SMOOTH",
"26 395 OFFCURVE",
"67 358 OFFCURVE",
"127 358 CURVE SMOOTH"
);
},
{
closed = 1;
nodes = (
"576 51 LINE",
"576 456 LINE",
"656 456 LINE",
"656 521 LINE",
"496 521 LINE",
"496 126 LINE",
"544 83 LINE",
"523 158 OFFCURVE",
"481 217 OFFCURVE",
"417 257 CURVE",
"425 154 LINE",
"484 140 OFFCURVE",
"512 102 OFFCURVE",
"521 51 CURVE"
);
}
);
width = 626;
}
);
},
{
color = -1;
glyphname = bVocalicL;
lastChange = "2016-03-04 17:49:06 +0000";
layers = (
{
background = {
paths = (
{
closed = 1;
nodes = (
"324 260 OFFCURVE",
"388 232 OFFCURVE",
"388 164 CURVE SMOOTH",
"388 121 OFFCURVE",
"362 85 OFFCURVE",
"301 42 CURVE",
"316 27 LINE",
"325 43 OFFCURVE",
"330 65 OFFCURVE",
"330 88 CURVE SMOOTH",
"330 166 OFFCURVE",
"270 238 OFFCURVE",
"183 238 CURVE SMOOTH",
"106 238 OFFCURVE",
"54 181 OFFCURVE",
"54 113 CURVE SMOOTH",
"54 46 OFFCURVE",
"104 -13 OFFCURVE",
"157 -13 CURVE SMOOTH",
"191 -13 OFFCURVE",
"211 11 OFFCURVE",
"211 37 CURVE SMOOTH",
"211 64 OFFCURVE",
"191 86 OFFCURVE",
"163 86 CURVE SMOOTH",
"138 86 OFFCURVE",
"115 68 OFFCURVE",
"115 29 CURVE",
"133 29 LINE",
"110 45 OFFCURVE",
"98 65 OFFCURVE",
"98 95 CURVE SMOOTH",
"98 155 OFFCURVE",
"144 193 OFFCURVE",
"198 193 CURVE SMOOTH",
"247 193 OFFCURVE",
"291 162 OFFCURVE",
"291 96 CURVE SMOOTH",
"291 66 OFFCURVE",
"282 39 OFFCURVE",
"265 13 CURVE",
"295 -21 LINE",
"373 27 OFFCURVE",
"423 81 OFFCURVE",
"423 159 CURVE SMOOTH",
"423 266 OFFCURVE",
"329 317 OFFCURVE",
"230 358 CURVE SMOOTH",
"104 410 OFFCURVE",
"76 422 OFFCURVE",
"76 458 CURVE SMOOTH",
"76 473 OFFCURVE",
"81 484 OFFCURVE",
"101 502 CURVE",
"87 517 LINE",
"59 498 OFFCURVE",
"47 477 OFFCURVE",
"47 448 CURVE SMOOTH",
"47 374 OFFCURVE",
"125 340 OFFCURVE",
"207 307 CURVE SMOOTH"
);
}
);
};
layerId = "F2EBC5D5-DDE2-4851-B52F-F2293ECE9CC7";
name = Light;
paths = (
{
closed = 1;
nodes = (
"288 296 OFFCURVE",
"388 266 OFFCURVE",
"388 174 CURVE SMOOTH",
"388 120 OFFCURVE",
"354 71 OFFCURVE",
"296 33 CURVE",
"316 27 LINE",
"325 43 OFFCURVE",
"330 65 OFFCURVE",
"330 88 CURVE SMOOTH",
"330 166 OFFCURVE",
"270 238 OFFCURVE",
"183 238 CURVE SMOOTH",
"106 238 OFFCURVE",
"54 181 OFFCURVE",
"54 113 CURVE SMOOTH",
"54 46 OFFCURVE",
"104 -13 OFFCURVE",
"157 -13 CURVE SMOOTH",
"191 -13 OFFCURVE",
"211 11 OFFCURVE",
"211 37 CURVE SMOOTH",
"211 64 OFFCURVE",
"191 86 OFFCURVE",
"163 86 CURVE SMOOTH",
"138 86 OFFCURVE",
"115 68 OFFCURVE",
"115 29 CURVE",
"133 29 LINE",
"110 45 OFFCURVE",
"98 65 OFFCURVE",
"98 95 CURVE SMOOTH",
"98 155 OFFCURVE",
"144 193 OFFCURVE",
"198 193 CURVE SMOOTH",
"247 193 OFFCURVE",
"291 162 OFFCURVE",
"291 96 CURVE SMOOTH",
"291 66 OFFCURVE",
"282 39 OFFCURVE",
"265 13 CURVE",
"295 -21 LINE",
"381 32 OFFCURVE",
"423 90 OFFCURVE",
"423 168 CURVE SMOOTH",
"423 272 OFFCURVE",
"348 333 OFFCURVE",
"240 368 CURVE SMOOTH",
"173 390 OFFCURVE",
"76 407 OFFCURVE",
"76 460 CURVE SMOOTH",
"76 472 OFFCURVE",
"81 484 OFFCURVE",
"101 502 CURVE",
"87 517 LINE",
"59 498 OFFCURVE",
"47 477 OFFCURVE",
"47 449 CURVE SMOOTH",
"47 368 OFFCURVE",
"146 338 OFFCURVE",
"217 317 CURVE SMOOTH"
);
}
);
width = 433;
},
{
background = {
paths = (
{
closed = 1;
nodes = (
"318 296 OFFCURVE",
"418 266 OFFCURVE",
"418 174 CURVE SMOOTH",
"418 120 OFFCURVE",
"384 71 OFFCURVE",
"326 33 CURVE",
"346 27 LINE",
"355 43 OFFCURVE",
"360 65 OFFCURVE",
"360 88 CURVE SMOOTH",
"360 166 OFFCURVE",
"300 238 OFFCURVE",
"213 238 CURVE SMOOTH",
"136 238 OFFCURVE",
"84 181 OFFCURVE",
"84 113 CURVE SMOOTH",
"84 46 OFFCURVE",
"134 -13 OFFCURVE",
"187 -13 CURVE SMOOTH",
"221 -13 OFFCURVE",
"241 11 OFFCURVE",
"241 37 CURVE SMOOTH",
"241 64 OFFCURVE",
"221 86 OFFCURVE",
"193 86 CURVE SMOOTH",
"168 86 OFFCURVE",
"145 68 OFFCURVE",
"145 29 CURVE",
"163 29 LINE",
"140 45 OFFCURVE",
"128 65 OFFCURVE",
"128 95 CURVE SMOOTH",
"128 155 OFFCURVE",
"174 193 OFFCURVE",
"228 193 CURVE SMOOTH",
"277 193 OFFCURVE",
"321 162 OFFCURVE",
"321 96 CURVE SMOOTH",
"321 66 OFFCURVE",
"312 39 OFFCURVE",
"295 13 CURVE",
"325 -21 LINE",
"411 32 OFFCURVE",
"453 90 OFFCURVE",
"453 168 CURVE SMOOTH",
"453 272 OFFCURVE",
"378 333 OFFCURVE",
"270 368 CURVE SMOOTH",
"203 390 OFFCURVE",
"106 407 OFFCURVE",
"106 460 CURVE SMOOTH",
"106 472 OFFCURVE",
"111 484 OFFCURVE",
"131 502 CURVE",
"117 517 LINE",
"89 498 OFFCURVE",
"77 477 OFFCURVE",
"77 449 CURVE SMOOTH",
"77 368 OFFCURVE",
"176 338 OFFCURVE",
"247 317 CURVE SMOOTH"
);
}
);
};
layerId = "A309AC34-D742-49E2-8DE7-30304959F2B2";
name = Bold;
paths = (
{
closed = 1;
nodes = (
"357 284 OFFCURVE",
"417 269 OFFCURVE",
"417 196 CURVE SMOOTH",
"417 138 OFFCURVE",
"378 96 OFFCURVE",
"327 59 CURVE",
"360 16 LINE",
"370 31 OFFCURVE",
"376 52 OFFCURVE",
"376 81 CURVE SMOOTH",
"376 190 OFFCURVE",
"295 273 OFFCURVE",
"200 273 CURVE SMOOTH",
"117 273 OFFCURVE",
"54 211 OFFCURVE",
"54 126 CURVE SMOOTH",
"54 42 OFFCURVE",
"115 -18 OFFCURVE",
"179 -18 CURVE SMOOTH",
"224 -18 OFFCURVE",
"256 11 OFFCURVE",
"256 50 CURVE SMOOTH",
"256 85 OFFCURVE",
"229 113 OFFCURVE",
"196 113 CURVE SMOOTH",
"165 113 OFFCURVE",
"138 89 OFFCURVE",
"137 58 CURVE",
"155 49 LINE",
"140 62 OFFCURVE",
"133 80 OFFCURVE",
"133 98 CURVE SMOOTH",
"133 141 OFFCURVE",
"171 182 OFFCURVE",
"227 182 CURVE SMOOTH",
"281 182 OFFCURVE",
"318 144 OFFCURVE",
"318 97 CURVE SMOOTH",
"318 73 OFFCURVE",
"308 48 OFFCURVE",
"288 30 CURVE",
"342 -25 LINE",
"418 23 OFFCURVE",
"477 94 OFFCURVE",
"477 194 CURVE SMOOTH",
"477 262 OFFCURVE",
"450 366 OFFCURVE",
"276 408 CURVE SMOOTH",
"154 437 OFFCURVE",
"108 449 OFFCURVE",
"108 482 CURVE SMOOTH",
"108 497 OFFCURVE",
"117 512 OFFCURVE",
"130 527 CURVE",
"94 552 LINE",
"71 530 OFFCURVE",
"54 504 OFFCURVE",
"54 464 CURVE SMOOTH",
"54 363 OFFCURVE",
"160 331 OFFCURVE",
"260 307 CURVE SMOOTH"
);
}
);
width = 487;
}
);
},
{
glyphname = bE;
lastChange = "2016-02-22 17:28:17 +0000";
layers = (
{
layerId = "F2EBC5D5-DDE2-4851-B52F-F2293ECE9CC7";
name = Light;
paths = (
{
closed = 1;
nodes = (
"452 0 LINE",
"452 403 LINE SMOOTH",
"452 448 OFFCURVE",
"412 500 OFFCURVE",
"362 500 CURVE SMOOTH",
"289 500 OFFCURVE",
"180 392 OFFCURVE",
"180 299 CURVE SMOOTH",
"180 244 OFFCURVE",
"218 207 OFFCURVE",
"268 207 CURVE SMOOTH",
"308 207 OFFCURVE",
"334 231 OFFCURVE",
"334 264 CURVE SMOOTH",
"334 296 OFFCURVE",
"309 318 OFFCURVE",
"280 318 CURVE SMOOTH",
"259 318 OFFCURVE",
"242 306 OFFCURVE",
"235 291 CURVE",
"249 281 LINE",
"241 291 OFFCURVE",
"240 301 OFFCURVE",
"240 307 CURVE SMOOTH",
"240 363 OFFCURVE",
"336 458 OFFCURVE",
"383 458 CURVE SMOOTH",
"402 458 OFFCURVE",
"412 443 OFFCURVE",
"412 418 CURVE SMOOTH",
"412 81 LINE",
"423 73 LINE",
"408 118 OFFCURVE",
"371 149 OFFCURVE",
"322 149 CURVE SMOOTH",
"295 149 OFFCURVE",
"218 139 OFFCURVE",
"183 139 CURVE SMOOTH",
"100 139 OFFCURVE",
"59 194 OFFCURVE",
"59 263 CURVE SMOOTH",
"59 296 OFFCURVE",
"69 329 OFFCURVE",
"86 354 CURVE",
"66 366 LINE",
"42 331 OFFCURVE",
"30 292 OFFCURVE",
"30 253 CURVE SMOOTH",
"30 155 OFFCURVE",
"107 81 OFFCURVE",
"208 81 CURVE SMOOTH",
"247 81 OFFCURVE",
"322 92 OFFCURVE",
"351 92 CURVE SMOOTH",
"398 92 OFFCURVE",
"421 65 OFFCURVE",
"427 0 CURVE"
);
}
);
width = 522;
},
{
layerId = "A309AC34-D742-49E2-8DE7-30304959F2B2";
name = Bold;
paths = (
{
closed = 1;
nodes = (
"502 0 LINE",
"502 383 LINE SMOOTH",
"502 451 OFFCURVE",
"437 530 OFFCURVE",
"367 530 CURVE SMOOTH",
"281 530 OFFCURVE",
"164 413 OFFCURVE",
"164 311 CURVE SMOOTH",
"164 244 OFFCURVE",
"214 193 OFFCURVE",
"275 193 CURVE SMOOTH",
"325 193 OFFCURVE",
"359 226 OFFCURVE",
"359 267 CURVE SMOOTH",
"359 306 OFFCURVE",
"327 338 OFFCURVE",
"291 338 CURVE SMOOTH",
"261 338 OFFCURVE",
"235 317 OFFCURVE",
"225 291 CURVE",
"279 251 LINE",
"275 260 OFFCURVE",
"272 276 OFFCURVE",
"272 287 CURVE SMOOTH",
"272 353 OFFCURVE",
"371 448 OFFCURVE",
"406 448 CURVE SMOOTH",
"417 448 OFFCURVE",
"422 439 OFFCURVE",
"422 428 CURVE SMOOTH",
"422 81 LINE",
"463 33 LINE",
"441 112 OFFCURVE",
"390 162 OFFCURVE",
"320 162 CURVE SMOOTH",
"289 162 OFFCURVE",
"225 152 OFFCURVE",
"189 152 CURVE SMOOTH",
"115 152 OFFCURVE",
"69 195 OFFCURVE",
"69 267 CURVE SMOOTH",
"69 308 OFFCURVE",
"84 345 OFFCURVE",
"100 374 CURVE",
"55 398 LINE",
"25 356 OFFCURVE",
"10 310 OFFCURVE",
"10 261 CURVE SMOOTH",
"10 143 OFFCURVE",
"99 51 OFFCURVE",
"221 51 CURVE SMOOTH",
"268 51 OFFCURVE",
"325 65 OFFCURVE",
"366 65 CURVE SMOOTH",
"418 65 OFFCURVE",
"440 42 OFFCURVE",
"442 0 CURVE"
);
}
);
width = 552;
}
);
},
{
glyphname = bAi;
lastChange = "2016-02-22 17:28:18 +0000";
layers = (
{
layerId = "F2EBC5D5-DDE2-4851-B52F-F2293ECE9CC7";
name = Light;
paths = (
{
closed = 1;
nodes = (
"452 0 LINE",
"452 403 LINE SMOOTH",
"452 448 OFFCURVE",
"412 500 OFFCURVE",
"362 500 CURVE SMOOTH",
"289 500 OFFCURVE",
"180 392 OFFCURVE",
"180 299 CURVE SMOOTH",
"180 244 OFFCURVE",
"218 207 OFFCURVE",
"268 207 CURVE SMOOTH",
"308 207 OFFCURVE",
"334 231 OFFCURVE",
"334 264 CURVE SMOOTH",
"334 296 OFFCURVE",
"309 318 OFFCURVE",
"280 318 CURVE SMOOTH",
"259 318 OFFCURVE",
"242 306 OFFCURVE",
"235 291 CURVE",
"249 281 LINE",
"241 291 OFFCURVE",
"240 301 OFFCURVE",
"240 307 CURVE SMOOTH",
"240 363 OFFCURVE",
"336 458 OFFCURVE",
"383 458 CURVE SMOOTH",
"402 458 OFFCURVE",
"412 443 OFFCURVE",
"412 418 CURVE SMOOTH",
"412 81 LINE",
"423 73 LINE",
"408 118 OFFCURVE",
"371 149 OFFCURVE",
"322 149 CURVE SMOOTH",
"295 149 OFFCURVE",
"218 139 OFFCURVE",
"183 139 CURVE SMOOTH",
"100 139 OFFCURVE",
"59 194 OFFCURVE",
"59 263 CURVE SMOOTH",
"59 296 OFFCURVE",
"69 329 OFFCURVE",
"86 354 CURVE",
"66 366 LINE",
"42 331 OFFCURVE",
"30 292 OFFCURVE",
"30 253 CURVE SMOOTH",
"30 155 OFFCURVE",
"107 81 OFFCURVE",
"208 81 CURVE SMOOTH",
"247 81 OFFCURVE",
"322 92 OFFCURVE",
"351 92 CURVE SMOOTH",
"398 92 OFFCURVE",
"421 65 OFFCURVE",
"427 0 CURVE"
);
},
{
closed = 1;
nodes = (
"502 362 OFFCURVE",
"528 401 OFFCURVE",
"528 448 CURVE SMOOTH",
"528 512 OFFCURVE",
"477 581 OFFCURVE",
"378 609 CURVE SMOOTH",
"235 649 OFFCURVE",
"196 660 OFFCURVE",
"196 692 CURVE SMOOTH",
"196 707 OFFCURVE",
"205 718 OFFCURVE",
"221 732 CURVE",
"207 747 LINE",
"181 730 OFFCURVE",
"167 706 OFFCURVE",
"167 681 CURVE SMOOTH",
"167 611 OFFCURVE",
"274 581 OFFCURVE",
"349 562 CURVE SMOOTH",
"393 551 OFFCURVE",
"499 524 OFFCURVE",
"499 447 CURVE SMOOTH",
"499 414 OFFCURVE",
"480 391 OFFCURVE",
"450 391 CURVE",
"450 340 LINE"
);
}
);
width = 541;
},
{
layerId = "A309AC34-D742-49E2-8DE7-30304959F2B2";
name = Bold;
paths = (
{
closed = 1;
nodes = (
"502 0 LINE",
"502 383 LINE SMOOTH",
"502 451 OFFCURVE",
"437 530 OFFCURVE",
"367 530 CURVE SMOOTH",
"281 530 OFFCURVE",
"164 413 OFFCURVE",
"164 311 CURVE SMOOTH",
"164 244 OFFCURVE",
"214 193 OFFCURVE",
"275 193 CURVE SMOOTH",
"325 193 OFFCURVE",
"359 226 OFFCURVE",
"359 267 CURVE SMOOTH",
"359 306 OFFCURVE",
"327 338 OFFCURVE",
"291 338 CURVE SMOOTH",
"261 338 OFFCURVE",
"235 317 OFFCURVE",
"225 291 CURVE",
"279 251 LINE",
"275 260 OFFCURVE",
"272 276 OFFCURVE",
"272 287 CURVE SMOOTH",
"272 353 OFFCURVE",
"371 448 OFFCURVE",
"406 448 CURVE SMOOTH",
"417 448 OFFCURVE",
"422 439 OFFCURVE",
"422 428 CURVE SMOOTH",
"422 81 LINE",
"463 33 LINE",
"441 112 OFFCURVE",
"390 162 OFFCURVE",
"320 162 CURVE SMOOTH",
"289 162 OFFCURVE",
"225 152 OFFCURVE",
"189 152 CURVE SMOOTH",
"115 152 OFFCURVE",
"69 195 OFFCURVE",
"69 267 CURVE SMOOTH",
"69 308 OFFCURVE",
"84 345 OFFCURVE",
"100 374 CURVE",
"55 398 LINE",
"25 356 OFFCURVE",
"10 310 OFFCURVE",
"10 261 CURVE SMOOTH",
"10 143 OFFCURVE",
"99 51 OFFCURVE",
"221 51 CURVE SMOOTH",
"268 51 OFFCURVE",
"325 65 OFFCURVE",
"366 65 CURVE SMOOTH",
"418 65 OFFCURVE",
"440 42 OFFCURVE",
"442 0 CURVE"
);
},
{
closed = 1;
nodes = (
"565 310 OFFCURVE",
"592 366 OFFCURVE",
"592 431 CURVE SMOOTH",
"592 545 OFFCURVE",
"508 638 OFFCURVE",
"369 670 CURVE SMOOTH",
"297 687 OFFCURVE",
"189 691 OFFCURVE",
"189 730 CURVE SMOOTH",
"189 740 OFFCURVE",
"196 755 OFFCURVE",
"211 772 CURVE",
"175 797 LINE",
"149 772 OFFCURVE",
"135 745 OFFCURVE",
"135 715 CURVE SMOOTH",
"135 631 OFFCURVE",
"239 603 OFFCURVE",
"334 582 CURVE SMOOTH",
"416 564 OFFCURVE",
"540 536 OFFCURVE",
"540 442 CURVE SMOOTH",
"540 406 OFFCURVE",
"522 383 OFFCURVE",
"493 381 CURVE",
"493 280 LINE"
);
}
);
width = 598;
}
);
},
{
glyphname = bO;
lastChange = "2016-02-22 17:28:18 +0000";
layers = (
{
layerId = "F2EBC5D5-DDE2-4851-B52F-F2293ECE9CC7";
name = Light;
paths = (
{
closed = 1;
nodes = (
"424 30 OFFCURVE",
"489 91 OFFCURVE",
"489 172 CURVE SMOOTH",
"489 232 OFFCURVE",
"453 278 OFFCURVE",
"418 300 CURVE",
"394 243 LINE",
"438 275 OFFCURVE",
"469 331 OFFCURVE",
"469 384 CURVE SMOOTH",
"469 451 OFFCURVE",
"418 500 OFFCURVE",
"340 500 CURVE SMOOTH",
"245 500 OFFCURVE",
"153 426 OFFCURVE",
"153 345 CURVE SMOOTH",
"153 303 OFFCURVE",
"178 274 OFFCURVE",
"210 274 CURVE SMOOTH",
"237 274 OFFCURVE",
"260 295 OFFCURVE",
"260 323 CURVE SMOOTH",
"260 357 OFFCURVE",
"229 384 OFFCURVE",
"192 375 CURVE",
"206 345 LINE",
"235 425 OFFCURVE",
"305 460 OFFCURVE",
"363 460 CURVE SMOOTH",
"408 460 OFFCURVE",
"432 439 OFFCURVE",
"432 403 CURVE SMOOTH",
"432 370 OFFCURVE",
"412 328 OFFCURVE",
"379 308 CURVE",
"418 303 LINE",
"406 319 OFFCURVE",
"383 337 OFFCURVE",
"356 337 CURVE SMOOTH",
"325 337 OFFCURVE",
"302 313 OFFCURVE",
"302 284 CURVE SMOOTH",
"302 253 OFFCURVE",
"328 230 OFFCURVE",
"359 230 CURVE SMOOTH",
"388 230 OFFCURVE",
"411 249 OFFCURVE",
"427 272 CURVE",
"389 271 LINE",
"428 262 OFFCURVE",
"449 238 OFFCURVE",
"449 197 CURVE SMOOTH",
"449 138 OFFCURVE",
"404 91 OFFCURVE",
"331 91 CURVE SMOOTH",
"229 91 OFFCURVE",
"123 183 OFFCURVE",
"48 417 CURVE",
"24 408 LINE",
"99 157 OFFCURVE",
"224 30 OFFCURVE",
"342 30 CURVE SMOOTH"
);
}
);
width = 529;
},
{
layerId = "A309AC34-D742-49E2-8DE7-30304959F2B2";
name = Bold;
paths = (
{
closed = 1;
nodes = (
"485 18 OFFCURVE",
"545 87 OFFCURVE",
"545 169 CURVE SMOOTH",
"545 233 OFFCURVE",
"507 278 OFFCURVE",
"474 300 CURVE",
"460 249 LINE",
"498 264 OFFCURVE",
"525 316 OFFCURVE",
"525 366 CURVE SMOOTH",
"525 448 OFFCURVE",
"450 530 OFFCURVE",
"346 530 CURVE SMOOTH",
"245 530 OFFCURVE",
"149 452 OFFCURVE",
"149 363 CURVE SMOOTH",
"149 307 OFFCURVE",
"187 264 OFFCURVE",
"233 264 CURVE SMOOTH",
"272 264 OFFCURVE",
"302 294 OFFCURVE",
"302 333 CURVE SMOOTH",
"302 380 OFFCURVE",
"259 417 OFFCURVE",
"208 405 CURVE",
"252 335 LINE",
"278 412 OFFCURVE",
"339 450 OFFCURVE",
"390 450 CURVE SMOOTH",
"428 450 OFFCURVE",
"448 428 OFFCURVE",
"448 401 CURVE SMOOTH",
"448 377 OFFCURVE",
"431 352 OFFCURVE",
"405 335 CURVE",
"474 293 LINE",
"457 330 OFFCURVE",
"429 357 OFFCURVE",
"390 357 CURVE SMOOTH",
"348 357 OFFCURVE",
"318 324 OFFCURVE",
"318 285 CURVE SMOOTH",
"318 245 OFFCURVE",
"349 212 OFFCURVE",
"392 212 CURVE SMOOTH",
"431 212 OFFCURVE",
"463 239 OFFCURVE",
"479 265 CURVE",
"427 260 LINE",
"456 247 OFFCURVE",
"463 232 OFFCURVE",
"463 213 CURVE SMOOTH",
"463 165 OFFCURVE",
"420 134 OFFCURVE",
"354 134 CURVE SMOOTH",
"252 134 OFFCURVE",
"143 209 OFFCURVE",
"54 435 CURVE",
"0 411 LINE",
"97 147 OFFCURVE",
"235 18 OFFCURVE",
"379 18 CURVE SMOOTH"
);
}
);
width = 565;
}
);
},
{
glyphname = bAu;
lastChange = "2016-02-22 17:28:18 +0000";
layers = (
{
layerId = "F2EBC5D5-DDE2-4851-B52F-F2293ECE9CC7";
name = Light;
paths = (
{
closed = 1;
nodes = (
"424 30 OFFCURVE",
"489 91 OFFCURVE",
"489 172 CURVE SMOOTH",
"489 232 OFFCURVE",
"453 278 OFFCURVE",
"418 300 CURVE",
"394 243 LINE",
"438 275 OFFCURVE",
"469 331 OFFCURVE",
"469 384 CURVE SMOOTH",
"469 451 OFFCURVE",
"418 500 OFFCURVE",
"340 500 CURVE SMOOTH",
"245 500 OFFCURVE",
"153 426 OFFCURVE",
"153 345 CURVE SMOOTH",
"153 303 OFFCURVE",
"178 274 OFFCURVE",
"210 274 CURVE SMOOTH",
"237 274 OFFCURVE",
"260 295 OFFCURVE",
"260 323 CURVE SMOOTH",
"260 357 OFFCURVE",
"229 384 OFFCURVE",
"192 375 CURVE",
"206 345 LINE",
"235 425 OFFCURVE",
"305 460 OFFCURVE",
"363 460 CURVE SMOOTH",
"408 460 OFFCURVE",
"432 439 OFFCURVE",
"432 403 CURVE SMOOTH",
"432 370 OFFCURVE",
"412 328 OFFCURVE",
"379 308 CURVE",
"418 303 LINE",
"406 319 OFFCURVE",
"383 337 OFFCURVE",
"356 337 CURVE SMOOTH",
"325 337 OFFCURVE",
"302 313 OFFCURVE",
"302 284 CURVE SMOOTH",
"302 253 OFFCURVE",
"328 230 OFFCURVE",
"359 230 CURVE SMOOTH",
"388 230 OFFCURVE",
"411 249 OFFCURVE",
"427 272 CURVE",
"389 271 LINE",
"428 262 OFFCURVE",
"449 238 OFFCURVE",
"449 197 CURVE SMOOTH",
"449 138 OFFCURVE",
"404 91 OFFCURVE",
"331 91 CURVE SMOOTH",
"229 91 OFFCURVE",
"123 183 OFFCURVE",
"48 417 CURVE",
"24 408 LINE",
"99 157 OFFCURVE",
"224 30 OFFCURVE",
"342 30 CURVE SMOOTH"
);
},
{
closed = 1;
nodes = (
"495 318 OFFCURVE",
"528 372 OFFCURVE",
"528 433 CURVE SMOOTH",
"528 514 OFFCURVE",
"469 584 OFFCURVE",
"378 609 CURVE SMOOTH",
"222 652 OFFCURVE",
"186 662 OFFCURVE",
"186 693 CURVE SMOOTH",
"186 707 OFFCURVE",
"194 717 OFFCURVE",
"211 732 CURVE",
"197 747 LINE",
"170 729 OFFCURVE",
"157 706 OFFCURVE",
"157 682 CURVE SMOOTH",
"157 613 OFFCURVE",
"263 584 OFFCURVE",
"349 562 CURVE SMOOTH",
"395 550 OFFCURVE",
"499 521 OFFCURVE",
"499 435 CURVE SMOOTH",
"499 387 OFFCURVE",
"466 351 OFFCURVE",
"415 321 CURVE",
"420 270 LINE"
);
}
);
width = 556;
},
{
layerId = "A309AC34-D742-49E2-8DE7-30304959F2B2";
name = Bold;
paths = (
{
closed = 1;
nodes = (
"485 18 OFFCURVE",
"545 87 OFFCURVE",
"545 169 CURVE SMOOTH",
"545 233 OFFCURVE",
"507 278 OFFCURVE",
"474 300 CURVE",
"460 249 LINE",
"498 264 OFFCURVE",
"525 316 OFFCURVE",
"525 366 CURVE SMOOTH",
"525 448 OFFCURVE",
"450 530 OFFCURVE",
"346 530 CURVE SMOOTH",
"245 530 OFFCURVE",
"149 452 OFFCURVE",
"149 363 CURVE SMOOTH",
"149 307 OFFCURVE",
"187 264 OFFCURVE",
"233 264 CURVE SMOOTH",
"272 264 OFFCURVE",
"302 294 OFFCURVE",
"302 333 CURVE SMOOTH",
"302 380 OFFCURVE",
"259 417 OFFCURVE",
"208 405 CURVE",
"252 335 LINE",
"278 412 OFFCURVE",
"339 450 OFFCURVE",
"390 450 CURVE SMOOTH",
"428 450 OFFCURVE",
"448 428 OFFCURVE",
"448 401 CURVE SMOOTH",
"448 377 OFFCURVE",
"431 352 OFFCURVE",
"405 335 CURVE",
"474 293 LINE",
"457 330 OFFCURVE",
"429 357 OFFCURVE",
"390 357 CURVE SMOOTH",
"348 357 OFFCURVE",
"318 324 OFFCURVE",
"318 285 CURVE SMOOTH",
"318 245 OFFCURVE",
"349 212 OFFCURVE",
"392 212 CURVE SMOOTH",
"431 212 OFFCURVE",
"463 239 OFFCURVE",
"479 265 CURVE",
"427 260 LINE",
"456 247 OFFCURVE",
"463 232 OFFCURVE",
"463 213 CURVE SMOOTH",
"463 165 OFFCURVE",
"420 134 OFFCURVE",
"354 134 CURVE SMOOTH",
"252 134 OFFCURVE",
"143 209 OFFCURVE",
"54 435 CURVE",
"0 411 LINE",
"97 147 OFFCURVE",
"235 18 OFFCURVE",
"379 18 CURVE SMOOTH"
);
},
{
closed = 1;
nodes = (
"564 278 OFFCURVE",
"602 350 OFFCURVE",
"602 427 CURVE SMOOTH",
"602 537 OFFCURVE",
"526 635 OFFCURVE",
"369 670 CURVE SMOOTH",
"298 686 OFFCURVE",
"189 692 OFFCURVE",
"189 731 CURVE SMOOTH",
"189 742 OFFCURVE",
"198 757 OFFCURVE",
"211 772 CURVE",
"175 797 LINE",
"152 775 OFFCURVE",
"135 748 OFFCURVE",
"135 715 CURVE SMOOTH",
"135 627 OFFCURVE",
"255 599 OFFCURVE",
"334 582 CURVE SMOOTH",
"436 560 OFFCURVE",
"550 534 OFFCURVE",
"550 438 CURVE SMOOTH",
"550 386 OFFCURVE",
"517 345 OFFCURVE",
"463 331 CURVE",
"463 238 LINE"
);
}
);
width = 608;
}
);
},
{
glyphname = bVocalicRr;
lastChange = "2016-03-10 19:34:58 +0000";
layers = (
{
background = {
paths = (
{
closed = 1;
nodes = (
"423 -142 LINE",
"237 -44 LINE",
"250 -75 LINE",
"368 0 LINE",
"368 46 LINE SMOOTH",
"368 50 OFFCURVE",
"365 55 OFFCURVE",
"359 61 CURVE SMOOTH",
"355 65 OFFCURVE",
"346 73 OFFCURVE",
"333 84 CURVE",
"333 33 LINE",
"195 -52 LINE",
"409 -161 LINE"
);
}
);
};
layerId = "F2EBC5D5-DDE2-4851-B52F-F2293ECE9CC7";
name = Light;
paths = (
{
closed = 1;
nodes = (
"368 0 LINE",
"368 491 LINE",
"328 491 LINE",
"328 62 LINE",
"338 78 LINE",
"292 176 OFFCURVE",
"203 227 OFFCURVE",
"107 253 CURVE",
"103 225 LINE",
"178 284 OFFCURVE",
"255 335 OFFCURVE",
"336 378 CURVE",
"336 437 LINE",
"240 385 OFFCURVE",
"150 327 OFFCURVE",
"64 260 CURVE",
"118 192 LINE",
"249 169 OFFCURVE",
"333 87 OFFCURVE",
"343 0 CURVE"
);
},
{
closed = 1;
nodes = (
"152 364 OFFCURVE",
"205 394 OFFCURVE",
"248 459 CURVE",
"220 463 LINE",
"247 449 OFFCURVE",
"273 417 OFFCURVE",
"284 384 CURVE",
"308 393 LINE",
"300 430 OFFCURVE",
"262 476 OFFCURVE",
"214 509 CURVE",
"186 458 OFFCURVE",
"144 423 OFFCURVE",
"106 423 CURVE SMOOTH",
"99 423 OFFCURVE",
"92 424 OFFCURVE",
"85 427 CURVE",
"100 403 LINE",
"108 414 OFFCURVE",
"112 425 OFFCURVE",
"112 436 CURVE SMOOTH",
"112 460 OFFCURVE",
"94 479 OFFCURVE",
"68 479 CURVE SMOOTH",
"41 479 OFFCURVE",
"22 459 OFFCURVE",
"22 430 CURVE SMOOTH",
"22 392 OFFCURVE",
"55 364 OFFCURVE",
"103 364 CURVE SMOOTH"
);
},
{
closed = 1;
nodes = (
"486 51 LINE",
"486 456 LINE",
"566 456 LINE",
"566 491 LINE",
"446 491 LINE",
"446 126 LINE",
"458 133 LINE",
"440 187 OFFCURVE",
"404 229 OFFCURVE",
"359 261 CURVE",
"355 214 LINE",
"420 181 OFFCURVE",
"451 132 OFFCURVE",
"461 51 CURVE"
);
},
{
closed = 1;
nodes = (
"369 6 OFFCURVE",
"369 12 OFFCURVE",
"369 20 CURVE SMOOTH",
"369 35 OFFCURVE",
"365 68 OFFCURVE",
"359 94 CURVE",
"337 90 LINE",
"340 69 OFFCURVE",
"340 50 OFFCURVE",
"340 38 CURVE",
"195 -52 LINE",
"409 -161 LINE",
"423 -142 LINE",
"237 -44 LINE",
"250 -75 LINE",
"368 0 LINE"
);
}
);
width = 556;
},
{
layerId = "A309AC34-D742-49E2-8DE7-30304959F2B2";
name = Bold;
paths = (
{
closed = 1;
nodes = (
"434 0 LINE",
"434 521 LINE",
"354 521 LINE",
"354 82 LINE",
"404 38 LINE",
"348 158 OFFCURVE",
"250 221 OFFCURVE",
"123 253 CURVE",
"149 180 LINE",
"230 237 OFFCURVE",
"313 280 OFFCURVE",
"402 320 CURVE",
"372 429 LINE",
"271 385 OFFCURVE",
"165 326 OFFCURVE",
"70 265 CURVE",
"154 132 LINE",
"285 119 OFFCURVE",
"362 62 OFFCURVE",
"379 0 CURVE"
);
},
{
closed = 1;
nodes = (
"182 358 OFFCURVE",
"244 391 OFFCURVE",
"289 455 CURVE",
"227 453 LINE",
"255 436 OFFCURVE",
"281 408 OFFCURVE",
"293 364 CURVE",
"352 385 LINE",
"333 443 OFFCURVE",
"297 494 OFFCURVE",
"238 531 CURVE",
"210 487 OFFCURVE",
"158 451 OFFCURVE",
"126 451 CURVE SMOOTH",
"120 451 OFFCURVE",
"108 452 OFFCURVE",
"98 455 CURVE",
"123 404 LINE",
"141 415 OFFCURVE",
"150 430 OFFCURVE",
"150 449 CURVE SMOOTH",
"150 481 OFFCURVE",
"125 508 OFFCURVE",
"88 508 CURVE SMOOTH",
"53 508 OFFCURVE",
"26 483 OFFCURVE",
"26 444 CURVE SMOOTH",
"26 395 OFFCURVE",
"67 358 OFFCURVE",
"127 358 CURVE SMOOTH"
);
},
{
closed = 1;
nodes = (
"576 51 LINE",
"576 456 LINE",
"656 456 LINE",
"656 521 LINE",
"496 521 LINE",
"496 126 LINE",
"544 83 LINE",
"523 158 OFFCURVE",
"481 217 OFFCURVE",
"417 257 CURVE",
"425 154 LINE",
"484 140 OFFCURVE",
"512 102 OFFCURVE",
"521 51 CURVE"
);
},
{
closed = 1;
nodes = (
"435 10 OFFCURVE",
"436 21 OFFCURVE",
"436 30 CURVE SMOOTH",
"436 60 OFFCURVE",
"427 97 OFFCURVE",
"412 125 CURVE",
"368 117 LINE",
"371 97 OFFCURVE",
"373 79 OFFCURVE",
"373 68 CURVE",
"179 -46 LINE",
"463 -196 LINE",
"490 -158 LINE",
"272 -38 LINE",
"292 -79 LINE",
"434 0 LINE"
);
}
);
width = 626;
}
);
},
{
color = -1;
glyphname = bVocalicLl;
lastChange = "2016-03-04 17:51:30 +0000";
layers = (
{
background = {
paths = (
{
closed = 1;
nodes = (
"488 136 OFFCURVE",
"588 106 OFFCURVE",
"588 14 CURVE SMOOTH",
"588 -40 OFFCURVE",
"554 -89 OFFCURVE",
"496 -127 CURVE",
"516 -133 LINE",
"525 -117 OFFCURVE",
"530 -95 OFFCURVE",
"530 -72 CURVE SMOOTH",
"530 6 OFFCURVE",
"470 78 OFFCURVE",
"383 78 CURVE SMOOTH",
"306 78 OFFCURVE",
"254 21 OFFCURVE",
"254 -47 CURVE SMOOTH",
"254 -114 OFFCURVE",
"304 -173 OFFCURVE",
"357 -173 CURVE SMOOTH",
"391 -173 OFFCURVE",
"411 -149 OFFCURVE",
"411 -123 CURVE SMOOTH",
"411 -96 OFFCURVE",
"391 -74 OFFCURVE",
"363 -74 CURVE SMOOTH",
"338 -74 OFFCURVE",
"315 -92 OFFCURVE",
"315 -131 CURVE",
"333 -131 LINE",
"310 -115 OFFCURVE",
"298 -95 OFFCURVE",
"298 -65 CURVE SMOOTH",
"298 -5 OFFCURVE",
"344 33 OFFCURVE",
"398 33 CURVE SMOOTH",
"447 33 OFFCURVE",
"491 2 OFFCURVE",
"491 -64 CURVE SMOOTH",
"491 -94 OFFCURVE",
"482 -121 OFFCURVE",
"465 -147 CURVE",
"495 -181 LINE",
"581 -128 OFFCURVE",
"623 -70 OFFCURVE",
"623 8 CURVE SMOOTH",
"623 112 OFFCURVE",
"548 173 OFFCURVE",
"440 208 CURVE SMOOTH",
"373 230 OFFCURVE",
"276 247 OFFCURVE",
"276 300 CURVE SMOOTH",
"276 312 OFFCURVE",
"281 324 OFFCURVE",
"301 342 CURVE",
"287 357 LINE",
"259 338 OFFCURVE",
"247 317 OFFCURVE",
"247 289 CURVE SMOOTH",
"247 208 OFFCURVE",
"346 178 OFFCURVE",
"417 157 CURVE SMOOTH"
);
}
);
};
layerId = "F2EBC5D5-DDE2-4851-B52F-F2293ECE9CC7";
name = Light;
paths = (
{
closed = 1;
nodes = (
"288 296 OFFCURVE",
"388 266 OFFCURVE",
"388 174 CURVE SMOOTH",
"388 122 OFFCURVE",
"351 84 OFFCURVE",
"296 37 CURVE",
"316 27 LINE",
"325 43 OFFCURVE",
"330 65 OFFCURVE",
"330 88 CURVE SMOOTH",
"330 166 OFFCURVE",
"270 238 OFFCURVE",
"183 238 CURVE SMOOTH",
"106 238 OFFCURVE",
"54 181 OFFCURVE",
"54 113 CURVE SMOOTH",
"54 46 OFFCURVE",
"104 -13 OFFCURVE",
"157 -13 CURVE SMOOTH",
"191 -13 OFFCURVE",
"211 11 OFFCURVE",
"211 37 CURVE SMOOTH",
"211 64 OFFCURVE",
"191 86 OFFCURVE",
"163 86 CURVE SMOOTH",
"138 86 OFFCURVE",
"115 68 OFFCURVE",
"115 29 CURVE",
"133 29 LINE",
"110 45 OFFCURVE",
"98 65 OFFCURVE",
"98 95 CURVE SMOOTH",
"98 155 OFFCURVE",
"144 193 OFFCURVE",
"198 193 CURVE SMOOTH",
"247 193 OFFCURVE",
"291 162 OFFCURVE",
"291 96 CURVE SMOOTH",
"291 62 OFFCURVE",
"282 32 OFFCURVE",
"265 3 CURVE",
"293 -21 LINE",
"365 36 OFFCURVE",
"423 90 OFFCURVE",
"423 168 CURVE SMOOTH",
"423 272 OFFCURVE",
"348 333 OFFCURVE",
"240 368 CURVE SMOOTH",
"173 390 OFFCURVE",
"76 407 OFFCURVE",
"76 460 CURVE SMOOTH",
"76 472 OFFCURVE",
"81 484 OFFCURVE",
"101 502 CURVE",
"87 517 LINE",
"59 498 OFFCURVE",
"47 477 OFFCURVE",
"47 449 CURVE SMOOTH",
"47 368 OFFCURVE",
"146 338 OFFCURVE",
"217 317 CURVE SMOOTH"
);
},
{
closed = 1;
nodes = (
"403 161 LINE",
"515 133 OFFCURVE",
"588 93 OFFCURVE",
"588 14 CURVE SMOOTH",
"588 -40 OFFCURVE",
"554 -89 OFFCURVE",
"496 -127 CURVE",
"516 -133 LINE",
"525 -117 OFFCURVE",
"530 -95 OFFCURVE",
"530 -72 CURVE SMOOTH",
"530 6 OFFCURVE",
"469 78 OFFCURVE",
"386 78 CURVE SMOOTH",
"312 78 OFFCURVE",
"254 22 OFFCURVE",
"254 -48 CURVE SMOOTH",
"254 -113 OFFCURVE",
"304 -173 OFFCURVE",
"357 -173 CURVE SMOOTH",
"391 -173 OFFCURVE",
"411 -149 OFFCURVE",
"411 -123 CURVE SMOOTH",
"411 -96 OFFCURVE",
"391 -74 OFFCURVE",
"363 -74 CURVE SMOOTH",
"338 -74 OFFCURVE",
"315 -92 OFFCURVE",
"315 -131 CURVE",
"333 -131 LINE",
"310 -115 OFFCURVE",
"298 -95 OFFCURVE",
"298 -65 CURVE SMOOTH",
"298 -5 OFFCURVE",
"344 33 OFFCURVE",
"398 33 CURVE SMOOTH",
"447 33 OFFCURVE",
"491 2 OFFCURVE",
"491 -64 CURVE SMOOTH",
"491 -94 OFFCURVE",
"482 -121 OFFCURVE",
"465 -147 CURVE",
"495 -181 LINE",
"581 -128 OFFCURVE",
"623 -70 OFFCURVE",
"623 8 CURVE SMOOTH",
"623 124 OFFCURVE",
"533 182 OFFCURVE",
"399 220 CURVE"
);
}
);
width = 600;
},
{
background = {
paths = (
{
closed = 1;
nodes = (
"567 104 OFFCURVE",
"627 89 OFFCURVE",
"627 16 CURVE SMOOTH",
"627 -42 OFFCURVE",
"588 -84 OFFCURVE",
"537 -121 CURVE",
"570 -164 LINE",
"580 -149 OFFCURVE",
"586 -128 OFFCURVE",
"586 -99 CURVE SMOOTH",
"586 10 OFFCURVE",
"505 93 OFFCURVE",
"410 93 CURVE SMOOTH",
"327 93 OFFCURVE",
"264 31 OFFCURVE",
"264 -54 CURVE SMOOTH",
"264 -138 OFFCURVE",
"325 -198 OFFCURVE",
"389 -198 CURVE SMOOTH",
"434 -198 OFFCURVE",
"466 -169 OFFCURVE",
"466 -130 CURVE SMOOTH",
"466 -95 OFFCURVE",
"439 -67 OFFCURVE",
"406 -67 CURVE SMOOTH",
"375 -67 OFFCURVE",
"348 -91 OFFCURVE",
"347 -122 CURVE",
"365 -131 LINE",
"350 -118 OFFCURVE",
"343 -100 OFFCURVE",
"343 -82 CURVE SMOOTH",
"343 -39 OFFCURVE",
"381 2 OFFCURVE",
"437 2 CURVE SMOOTH",
"491 2 OFFCURVE",
"528 -36 OFFCURVE",
"528 -83 CURVE SMOOTH",
"528 -107 OFFCURVE",
"518 -132 OFFCURVE",
"498 -150 CURVE",
"552 -205 LINE",
"628 -157 OFFCURVE",
"687 -86 OFFCURVE",
"687 14 CURVE SMOOTH",
"687 82 OFFCURVE",
"660 187 OFFCURVE",
"486 228 CURVE SMOOTH",
"364 257 OFFCURVE",
"318 269 OFFCURVE",
"318 302 CURVE SMOOTH",
"318 317 OFFCURVE",
"327 332 OFFCURVE",
"340 347 CURVE",
"304 372 LINE",
"281 350 OFFCURVE",
"264 324 OFFCURVE",
"264 284 CURVE SMOOTH",
"264 183 OFFCURVE",
"370 151 OFFCURVE",
"470 127 CURVE SMOOTH"
);
}
);
};
layerId = "A309AC34-D742-49E2-8DE7-30304959F2B2";
name = Bold;
paths = (
{
closed = 1;
nodes = (
"357 284 OFFCURVE",
"417 269 OFFCURVE",
"417 196 CURVE SMOOTH",
"417 138 OFFCURVE",
"378 96 OFFCURVE",
"327 59 CURVE",
"360 16 LINE",
"370 31 OFFCURVE",
"376 52 OFFCURVE",
"376 81 CURVE SMOOTH",
"376 190 OFFCURVE",
"295 273 OFFCURVE",
"200 273 CURVE SMOOTH",
"117 273 OFFCURVE",
"54 211 OFFCURVE",
"54 126 CURVE SMOOTH",
"54 42 OFFCURVE",
"115 -18 OFFCURVE",
"179 -18 CURVE SMOOTH",
"224 -18 OFFCURVE",
"256 11 OFFCURVE",
"256 50 CURVE SMOOTH",
"256 85 OFFCURVE",
"229 113 OFFCURVE",
"196 113 CURVE SMOOTH",
"165 113 OFFCURVE",
"138 89 OFFCURVE",
"137 58 CURVE",
"155 49 LINE",
"140 62 OFFCURVE",
"133 80 OFFCURVE",
"133 98 CURVE SMOOTH",
"133 141 OFFCURVE",
"171 182 OFFCURVE",
"227 182 CURVE SMOOTH",
"281 182 OFFCURVE",
"318 144 OFFCURVE",
"318 97 CURVE SMOOTH",
"318 74 OFFCURVE",
"308 57 OFFCURVE",
"289 31 CURVE",
"342 -25 LINE",
"418 23 OFFCURVE",
"477 94 OFFCURVE",
"477 194 CURVE SMOOTH",
"477 262 OFFCURVE",
"450 366 OFFCURVE",
"276 408 CURVE SMOOTH",
"154 437 OFFCURVE",
"108 449 OFFCURVE",
"108 482 CURVE SMOOTH",
"108 497 OFFCURVE",
"117 512 OFFCURVE",
"130 527 CURVE",
"94 552 LINE",
"71 530 OFFCURVE",
"54 504 OFFCURVE",
"54 464 CURVE SMOOTH",
"54 363 OFFCURVE",
"160 331 OFFCURVE",
"260 307 CURVE SMOOTH"
);
},
{
closed = 1;
nodes = (
"435 136 LINE",
"564 108 OFFCURVE",
"627 94 OFFCURVE",
"627 16 CURVE SMOOTH",
"627 -42 OFFCURVE",
"588 -84 OFFCURVE",
"537 -121 CURVE",
"570 -164 LINE",
"580 -149 OFFCURVE",
"586 -128 OFFCURVE",
"586 -99 CURVE SMOOTH",
"586 10 OFFCURVE",
"505 93 OFFCURVE",
"410 93 CURVE SMOOTH",
"327 93 OFFCURVE",
"264 31 OFFCURVE",
"264 -54 CURVE SMOOTH",
"264 -138 OFFCURVE",
"325 -198 OFFCURVE",
"389 -198 CURVE SMOOTH",
"434 -198 OFFCURVE",
"466 -169 OFFCURVE",
"466 -130 CURVE SMOOTH",
"466 -95 OFFCURVE",
"439 -67 OFFCURVE",
"406 -67 CURVE SMOOTH",
"375 -67 OFFCURVE",
"348 -91 OFFCURVE",
"347 -122 CURVE",
"365 -131 LINE",
"350 -118 OFFCURVE",
"343 -100 OFFCURVE",
"343 -82 CURVE SMOOTH",
"343 -39 OFFCURVE",
"381 2 OFFCURVE",
"437 2 CURVE SMOOTH",
"491 2 OFFCURVE",
"528 -36 OFFCURVE",
"528 -83 CURVE SMOOTH",
"528 -107 OFFCURVE",
"518 -132 OFFCURVE",
"498 -150 CURVE",
"552 -205 LINE",
"628 -157 OFFCURVE",
"687 -86 OFFCURVE",
"687 14 CURVE SMOOTH",
"687 155 OFFCURVE",
"577 211 OFFCURVE",
"440 239 CURVE"
);
}
);
width = 657;
}
);
},
{
glyphname = bKa;
lastChange = "2016-02-22 17:28:17 +0000";
layers = (
{
layerId = "F2EBC5D5-DDE2-4851-B52F-F2293ECE9CC7";
name = Light;
paths = (
{
closed = 1;
nodes = (
"331 0 LINE",
"331 468 LINE",
"291 468 LINE",
"291 67 LINE",
"308 63 LINE",
"269 162 OFFCURVE",
"172 252 OFFCURVE",
"61 278 CURVE",
"76 250 LINE",
"151 324 OFFCURVE",
"240 370 OFFCURVE",
"327 370 CURVE SMOOTH",
"420 370 OFFCURVE",
"472 316 OFFCURVE",
"472 258 CURVE SMOOTH",
"472 230 OFFCURVE",
"460 208 OFFCURVE",
"445 195 CURVE",
"477 196 LINE",
"476 226 OFFCURVE",
"456 250 OFFCURVE",
"426 250 CURVE SMOOTH",
"398 250 OFFCURVE",
"377 229 OFFCURVE",
"377 203 CURVE SMOOTH",
"377 175 OFFCURVE",
"402 153 OFFCURVE",
"430 153 CURVE SMOOTH",
"468 153 OFFCURVE",
"499 193 OFFCURVE",
"499 250 CURVE SMOOTH",
"499 337 OFFCURVE",
"425 422 OFFCURVE",
"316 422 CURVE SMOOTH",
"226 422 OFFCURVE",
"109 364 OFFCURVE",
"23 279 CURVE",
"68 217 LINE",
"190 195 OFFCURVE",
"285 109 OFFCURVE",
"306 0 CURVE"
);
},
{
closed = 1;
nodes = (
"546 456 LINE",
"546 491 LINE",
"-10 491 LINE",
"-10 456 LINE"
);
}
);
width = 536;
},
{
layerId = "A309AC34-D742-49E2-8DE7-30304959F2B2";
name = Bold;
paths = (
{
closed = 1;
nodes = (
"361 0 LINE",
"361 468 LINE",
"281 468 LINE",
"281 67 LINE",
"338 23 LINE",
"296 145 OFFCURVE",
"189 256 OFFCURVE",
"66 282 CURVE",
"102 227 LINE",
"179 288 OFFCURVE",
"279 330 OFFCURVE",
"363 330 CURVE SMOOTH",
"436 330 OFFCURVE",
"482 298 OFFCURVE",
"482 254 CURVE SMOOTH",
"482 231 OFFCURVE",
"470 208 OFFCURVE",
"455 195 CURVE",
"517 176 LINE",
"516 217 OFFCURVE",
"495 250 OFFCURVE",
"452 250 CURVE SMOOTH",
"413 250 OFFCURVE",
"387 222 OFFCURVE",
"387 184 CURVE SMOOTH",
"387 142 OFFCURVE",
"419 113 OFFCURVE",
"459 113 CURVE SMOOTH",
"507 113 OFFCURVE",
"547 156 OFFCURVE",
"547 229 CURVE SMOOTH",
"547 345 OFFCURVE",
"445 432 OFFCURVE",
"315 432 CURVE SMOOTH",
"204 432 OFFCURVE",
"80 368 OFFCURVE",
"-5 294 CURVE",
"78 167 LINE",
"193 153 OFFCURVE",
"275 89 OFFCURVE",
"301 0 CURVE"
);
},
{
closed = 1;
nodes = (
"606 456 LINE",
"606 521 LINE",
"-30 521 LINE",
"-30 456 LINE"
);
}
);
width = 576;
}
);
},
{
glyphname = bKha;
lastChange = "2016-02-22 17:28:17 +0000";
layers = (
{
layerId = "F2EBC5D5-DDE2-4851-B52F-F2293ECE9CC7";
name = Light;
paths = (
{
closed = 1;
nodes = (
"375 0 LINE",
"375 456 LINE",
"455 456 LINE",
"455 491 LINE",
"335 491 LINE",
"335 72 LINE",
"349 78 LINE",
"309 166 OFFCURVE",
"241 238 OFFCURVE",
"146 269 CURVE",
"143 254 LINE",
"231 260 OFFCURVE",
"285 312 OFFCURVE",
"285 373 CURVE SMOOTH",
"285 422 OFFCURVE",
"252 466 OFFCURVE",
"193 501 CURVE",
"169 456 OFFCURVE",
"132 426 OFFCURVE",
"98 426 CURVE SMOOTH",
"91 426 OFFCURVE",
"84 427 OFFCURVE",
"77 430 CURVE",
"90 403 LINE",
"98 414 OFFCURVE",
"102 425 OFFCURVE",
"102 436 CURVE SMOOTH",
"102 459 OFFCURVE",
"85 478 OFFCURVE",
"60 478 CURVE SMOOTH",
"33 478 OFFCURVE",
"14 456 OFFCURVE",
"14 428 CURVE SMOOTH",
"14 392 OFFCURVE",
"46 366 OFFCURVE",
"92 366 CURVE SMOOTH",
"142 366 OFFCURVE",
"195 396 OFFCURVE",
"238 459 CURVE",
"205 453 LINE",
"226 445 OFFCURVE",
"244 426 OFFCURVE",
"244 398 CURVE SMOOTH",
"244 345 OFFCURVE",
"179 292 OFFCURVE",
"51 292 CURVE",
"98 228 LINE",
"235 204 OFFCURVE",
"335 114 OFFCURVE",
"350 0 CURVE"
);
}
);
width = 445;
},
{
layerId = "A309AC34-D742-49E2-8DE7-30304959F2B2";
name = Bold;
paths = (
{
closed = 1;
nodes = (
"451 0 LINE",
"451 456 LINE",
"531 456 LINE",
"531 521 LINE",
"371 521 LINE",
"371 72 LINE",
"421 38 LINE",
"371 144 OFFCURVE",
"296 239 OFFCURVE",
"152 269 CURVE",
"189 207 LINE",
"280 214 OFFCURVE",
"343 276 OFFCURVE",
"343 355 CURVE SMOOTH",
"343 423 OFFCURVE",
"296 486 OFFCURVE",
"223 531 CURVE",
"198 483 OFFCURVE",
"152 451 OFFCURVE",
"116 451 CURVE SMOOTH",
"109 451 OFFCURVE",
"97 452 OFFCURVE",
"87 455 CURVE",
"122 396 LINE",
"137 407 OFFCURVE",
"144 421 OFFCURVE",
"144 439 CURVE SMOOTH",
"144 471 OFFCURVE",
"121 500 OFFCURVE",
"84 500 CURVE SMOOTH",
"47 500 OFFCURVE",
"16 472 OFFCURVE",
"16 429 CURVE SMOOTH",
"16 383 OFFCURVE",
"52 344 OFFCURVE",
"113 344 CURVE SMOOTH",
"172 344 OFFCURVE",
"240 380 OFFCURVE",
"284 455 CURVE",
"222 453 LINE",
"246 442 OFFCURVE",
"268 423 OFFCURVE",
"268 394 CURVE SMOOTH",
"268 342 OFFCURVE",
"199 290 OFFCURVE",
"57 290 CURVE",
"134 168 LINE",
"282 152 OFFCURVE",
"364 83 OFFCURVE",
"391 0 CURVE"
);
}
);
width = 501;
}
);
},
{
glyphname = bGa;
lastChange = "2016-02-22 17:28:17 +0000";
layers = (
{
layerId = "F2EBC5D5-DDE2-4851-B52F-F2293ECE9CC7";
name = Light;
paths = (
{
closed = 1;
nodes = (
"394 0 LINE",
"394 456 LINE",
"474 456 LINE",
"474 491 LINE",
"354 491 LINE",
"354 334 LINE",
"373 336 LINE",
"344 430 OFFCURVE",
"271 500 OFFCURVE",
"182 500 CURVE SMOOTH",
"91 500 OFFCURVE",
"22 425 OFFCURVE",
"22 346 CURVE SMOOTH",
"22 301 OFFCURVE",
"45 278 OFFCURVE",
"71 278 CURVE SMOOTH",
"108 278 OFFCURVE",
"139 327 OFFCURVE",
"189 327 CURVE SMOOTH",
"211 327 OFFCURVE",
"225 318 OFFCURVE",
"225 295 CURVE SMOOTH",
"225 258 OFFCURVE",
"190 199 OFFCURVE",
"120 141 CURVE",
"168 101 LINE",
"226 156 OFFCURVE",
"259 214 OFFCURVE",
"259 266 CURVE SMOOTH",
"259 318 OFFCURVE",
"227 372 OFFCURVE",
"167 372 CURVE SMOOTH",
"138 372 OFFCURVE",
"98 359 OFFCURVE",
"68 332 CURVE",
"95 307 LINE",
"88 320 OFFCURVE",
"85 333 OFFCURVE",
"85 346 CURVE SMOOTH",
"85 399 OFFCURVE",
"131 447 OFFCURVE",
"199 447 CURVE SMOOTH",
"284 447 OFFCURVE",
"354 374 OFFCURVE",
"354 284 CURVE SMOOTH",
"354 0 LINE"
);
}
);
width = 464;
},
{
layerId = "A309AC34-D742-49E2-8DE7-30304959F2B2";
name = Bold;
paths = (
{
closed = 1;
nodes = (
"457 0 LINE",
"457 456 LINE",
"537 456 LINE",
"537 521 LINE",
"377 521 LINE",
"377 294 LINE",
"426 296 LINE",
"392 428 OFFCURVE",
"314 530 OFFCURVE",
"193 530 CURVE SMOOTH",
"90 530 OFFCURVE",
"10 455 OFFCURVE",
"10 360 CURVE SMOOTH",
"10 289 OFFCURVE",
"54 248 OFFCURVE",
"98 248 CURVE SMOOTH",
"144 248 OFFCURVE",
"189 293 OFFCURVE",
"220 293 CURVE SMOOTH",
"232 293 OFFCURVE",
"238 286 OFFCURVE",
"238 275 CURVE SMOOTH",
"238 246 OFFCURVE",
"195 194 OFFCURVE",
"113 141 CURVE",
"211 61 LINE",
"282 116 OFFCURVE",
"316 178 OFFCURVE",
"316 236 CURVE SMOOTH",
"316 305 OFFCURVE",
"269 379 OFFCURVE",
"185 379 CURVE SMOOTH",
"152 379 OFFCURVE",
"118 368 OFFCURVE",
"76 339 CURVE",
"123 287 LINE",
"117 300 OFFCURVE",
"115 317 OFFCURVE",
"115 329 CURVE SMOOTH",
"115 389 OFFCURVE",
"165 437 OFFCURVE",
"229 437 CURVE SMOOTH",
"314 437 OFFCURVE",
"377 351 OFFCURVE",
"377 244 CURVE SMOOTH",
"377 0 LINE"
);
}
);
width = 507;
}
);
},
{
glyphname = bGha;
lastChange = "2016-02-22 17:28:17 +0000";
layers = (
{
layerId = "F2EBC5D5-DDE2-4851-B52F-F2293ECE9CC7";
name = Light;
paths = (
{
closed = 1;
nodes = (
"357 0 LINE",
"357 467 LINE",
"317 467 LINE",
"317 59 LINE",
"337 55 LINE",
"293 157 OFFCURVE",
"203 222 OFFCURVE",
"94 245 CURVE",
"102 204 LINE",
"265 342 LINE",
"224 387 LINE",
"53 240 LINE",
"94 189 LINE",
"222 178 OFFCURVE",
"315 91 OFFCURVE",
"332 0 CURVE"
);
},
{
closed = 1;
nodes = (
"164 317 OFFCURVE",
"185 321 OFFCURVE",
"204 329 CURVE",
"201 367 LINE",
"185 355 OFFCURVE",
"163 347 OFFCURVE",
"144 347 CURVE SMOOTH",
"112 347 OFFCURVE",
"92 369 OFFCURVE",
"92 397 CURVE SMOOTH",
"92 428 OFFCURVE",
"119 456 OFFCURVE",
"164 456 CURVE",
"69 478 LINE",
"51 464 OFFCURVE",
"37 439 OFFCURVE",
"37 412 CURVE SMOOTH",
"37 359 OFFCURVE",
"90 317 OFFCURVE",
"146 317 CURVE SMOOTH"
);
},
{
closed = 1;
nodes = (
"437 456 LINE",
"437 491 LINE",
"-10 491 LINE",
"-10 456 LINE"
);
}
);
width = 427;
},
{
layerId = "A309AC34-D742-49E2-8DE7-30304959F2B2";
name = Bold;
paths = (
{
closed = 1;
nodes = (
"397 0 LINE",
"397 467 LINE",
"317 467 LINE",
"317 59 LINE",
"377 15 LINE",
"328 138 OFFCURVE",
"226 217 OFFCURVE",
"104 245 CURVE",
"137 174 LINE",
"297 310 LINE",
"221 396 LINE",
"33 236 LINE",
"114 139 LINE",
"237 130 OFFCURVE",
"316 67 OFFCURVE",
"337 0 CURVE"
);
},
{
closed = 1;
nodes = (
"188 297 OFFCURVE",
"218 304 OFFCURVE",
"244 319 CURVE",
"192 371 LINE",
"179 360 OFFCURVE",
"164 353 OFFCURVE",
"149 353 CURVE SMOOTH",
"128 353 OFFCURVE",
"111 366 OFFCURVE",
"111 388 CURVE SMOOTH",
"111 421 OFFCURVE",
"148 456 OFFCURVE",
"206 456 CURVE",
"59 498 LINE",
"31 482 OFFCURVE",
"12 451 OFFCURVE",
"12 416 CURVE SMOOTH",
"12 349 OFFCURVE",
"80 297 OFFCURVE",
"159 297 CURVE SMOOTH"
);
},
{
closed = 1;
nodes = (
"477 456 LINE",
"477 521 LINE",
"-30 521 LINE",
"-30 456 LINE"
);
}
);
width = 447;
}
);
},
{
glyphname = bNga;
lastChange = "2016-02-22 17:28:17 +0000";
layers = (
{
layerId = "F2EBC5D5-DDE2-4851-B52F-F2293ECE9CC7";
name = Light;
paths = (
{
closed = 1;
nodes = (
"367 18 OFFCURVE",
"431 76 OFFCURVE",
"431 165 CURVE SMOOTH",
"431 226 OFFCURVE",
"401 273 OFFCURVE",
"348 313 CURVE",
"319 255 OFFCURVE",
"277 217 OFFCURVE",
"242 217 CURVE SMOOTH",
"217 217 OFFCURVE",
"198 236 OFFCURVE",
"198 291 CURVE SMOOTH",
"198 373 OFFCURVE",
"241 460 OFFCURVE",
"315 460 CURVE SMOOTH",
"341 460 OFFCURVE",
"352 449 OFFCURVE",
"352 435 CURVE SMOOTH",
"352 407 OFFCURVE",
"309 382 OFFCURVE",
"259 382 CURVE SMOOTH",
"195 382 OFFCURVE",
"136 423 OFFCURVE",
"78 502 CURVE",
"58 488 LINE",
"120 397 OFFCURVE",
"198 337 OFFCURVE",
"281 337 CURVE SMOOTH",
"346 337 OFFCURVE",
"391 374 OFFCURVE",
"391 419 CURVE SMOOTH",
"391 464 OFFCURVE",
"344 500 OFFCURVE",
"296 500 CURVE SMOOTH",
"231 500 OFFCURVE",
"159 436 OFFCURVE",
"159 318 CURVE SMOOTH",
"159 218 OFFCURVE",
"211 164 OFFCURVE",
"264 164 CURVE SMOOTH",
"311 164 OFFCURVE",
"360 206 OFFCURVE",
"385 264 CURVE",
"360 263 LINE",
"381 249 OFFCURVE",
"400 219 OFFCURVE",
"400 185 CURVE SMOOTH",
"400 124 OFFCURVE",
"341 74 OFFCURVE",
"272 74 CURVE SMOOTH",
"153 74 OFFCURVE",
"75 224 OFFCURVE",
"46 417 CURVE",
"22 412 LINE",
"54 191 OFFCURVE",
"141 18 OFFCURVE",
"284 18 CURVE SMOOTH"
);
}
);
width = 451;
},
{
layerId = "A309AC34-D742-49E2-8DE7-30304959F2B2";
name = Bold;
paths = (
{
closed = 1;
nodes = (
"408 8 OFFCURVE",
"477 67 OFFCURVE",
"477 170 CURVE SMOOTH",
"477 230 OFFCURVE",
"445 281 OFFCURVE",
"400 326 CURVE",
"364 286 OFFCURVE",
"320 256 OFFCURVE",
"274 256 CURVE SMOOTH",
"245 256 OFFCURVE",
"234 270 OFFCURVE",
"234 298 CURVE SMOOTH",
"234 359 OFFCURVE",
"285 460 OFFCURVE",
"344 460 CURVE SMOOTH",
"359 460 OFFCURVE",
"366 454 OFFCURVE",
"366 443 CURVE SMOOTH",
"366 421 OFFCURVE",
"337 408 OFFCURVE",
"306 408 CURVE SMOOTH",
"247 408 OFFCURVE",
"171 452 OFFCURVE",
"104 534 CURVE",
"60 497 LINE",
"129 403 OFFCURVE",
"226 328 OFFCURVE",
"319 328 CURVE SMOOTH",
"390 328 OFFCURVE",
"436 371 OFFCURVE",
"436 423 CURVE SMOOTH",
"436 481 OFFCURVE",
"377 530 OFFCURVE",
"312 530 CURVE SMOOTH",
"230 530 OFFCURVE",
"155 454 OFFCURVE",
"155 343 CURVE SMOOTH",
"155 229 OFFCURVE",
"235 166 OFFCURVE",
"307 166 CURVE SMOOTH",
"361 166 OFFCURVE",
"414 201 OFFCURVE",
"443 246 CURVE",
"380 258 LINE",
"399 245 OFFCURVE",
"410 228 OFFCURVE",
"410 205 CURVE SMOOTH",
"410 161 OFFCURVE",
"363 120 OFFCURVE",
"295 120 CURVE SMOOTH",
"183 120 OFFCURVE",
"106 223 OFFCURVE",
"66 427 CURVE",
"8 414 LINE",
"47 194 OFFCURVE",
"143 8 OFFCURVE",
"314 8 CURVE SMOOTH"
);
}
);
width = 499;
}
);
},
{
glyphname = bCa;
lastChange = "2016-03-04 20:59:16 +0000";
layers = (
{
layerId = "F2EBC5D5-DDE2-4851-B52F-F2293ECE9CC7";
name = Light;
paths = (
{
closed = 1;
nodes = (
"224 10 OFFCURVE",
"332 160 OFFCURVE",
"332 230 CURVE SMOOTH",
"332 259 OFFCURVE",
"317 281 OFFCURVE",
"302 299 CURVE SMOOTH",
"272 335 OFFCURVE",
"253 342 OFFCURVE",
"214 351 CURVE SMOOTH",
"140 369 OFFCURVE",
"102 416 OFFCURVE",
"102 467 CURVE",
"62 467 LINE",
"62 137 LINE SMOOTH",
"62 62 OFFCURVE",
"118 10 OFFCURVE",
"158 10 CURVE SMOOTH"
);
},
{
closed = 1;
nodes = (
"118 56 OFFCURVE",
"102 70 OFFCURVE",
"102 122 CURVE SMOOTH",
"102 443 LINE",
"81 440 LINE",
"115 346 OFFCURVE",
"169 313 OFFCURVE",
"227 296 CURVE SMOOTH",
"277 282 OFFCURVE",
"286 277 OFFCURVE",
"286 253 CURVE SMOOTH",
"286 196 OFFCURVE",
"191 56 OFFCURVE",
"136 56 CURVE SMOOTH"
);
},
{
closed = 1;
nodes = (
"368 456 LINE",
"368 491 LINE",
"-10 491 LINE",
"-10 456 LINE"
);
}
);
width = 358;
},
{
layerId = "A309AC34-D742-49E2-8DE7-30304959F2B2";
name = Bold;
paths = (
{
closed = 1;
nodes = (
"258 0 OFFCURVE",
"379 128 OFFCURVE",
"379 209 CURVE SMOOTH",
"379 252 OFFCURVE",
"356 287 OFFCURVE",
"333 313 CURVE SMOOTH",
"300 351 OFFCURVE",
"276 369 OFFCURVE",
"202 384 CURVE SMOOTH",
"147 394 OFFCURVE",
"122 430 OFFCURVE",
"122 467 CURVE",
"42 467 LINE",
"42 167 LINE SMOOTH",
"42 68 OFFCURVE",
"116 0 OFFCURVE",
"168 0 CURVE SMOOTH"
);
},
{
closed = 1;
nodes = (
"129 97 OFFCURVE",
"122 104 OFFCURVE",
"122 132 CURVE SMOOTH",
"122 413 LINE",
"82 440 LINE",
"105 340 OFFCURVE",
"152 286 OFFCURVE",
"242 271 CURVE SMOOTH",
"270 266 OFFCURVE",
"276 263 OFFCURVE",
"276 246 CURVE SMOOTH",
"276 200 OFFCURVE",
"187 97 OFFCURVE",
"139 97 CURVE SMOOTH"
);
},
{
closed = 1;
nodes = (
"428 456 LINE",
"428 521 LINE",
"-30 521 LINE",
"-30 456 LINE"
);
}
);
width = 398;
}
);
},
{
glyphname = bCha;
lastChange = "2016-02-22 17:28:17 +0000";
layers = (
{
layerId = "F2EBC5D5-DDE2-4851-B52F-F2293ECE9CC7";
name = Light;
paths = (
{
closed = 1;
nodes = (
"420 -15 LINE",
"333 57 OFFCURVE",
"271 101 OFFCURVE",
"191 129 CURVE",
"176 98 LINE",
"296 124 OFFCURVE",
"370 199 OFFCURVE",
"370 272 CURVE SMOOTH",
"370 337 OFFCURVE",
"311 391 OFFCURVE",
"242 391 CURVE SMOOTH",
"229 391 OFFCURVE",
"205 389 OFFCURVE",
"191 389 CURVE SMOOTH",
"130 389 OFFCURVE",
"87 426 OFFCURVE",
"83 467 CURVE",
"44 467 LINE",
"44 294 LINE SMOOTH",
"44 252 OFFCURVE",
"78 203 OFFCURVE",
"121 203 CURVE SMOOTH",
"170 203 OFFCURVE",
"245 266 OFFCURVE",
"245 311 CURVE SMOOTH",
"245 331 OFFCURVE",
"231 348 OFFCURVE",
"206 354 CURVE",
"172 346 LINE",
"188 342 OFFCURVE",
"193 334 OFFCURVE",
"193 325 CURVE SMOOTH",
"193 295 OFFCURVE",
"137 245 OFFCURVE",
"105 245 CURVE SMOOTH",
"91 245 OFFCURVE",
"84 256 OFFCURVE",
"84 280 CURVE SMOOTH",
"84 458 LINE",
"66 444 LINE",
"85 386 OFFCURVE",
"145 342 OFFCURVE",
"202 342 CURVE SMOOTH",
"219 342 OFFCURVE",
"245 346 OFFCURVE",
"264 346 CURVE SMOOTH",
"309 346 OFFCURVE",
"326 325 OFFCURVE",
"326 296 CURVE SMOOTH",
"326 230 OFFCURVE",
"236 153 OFFCURVE",
"140 153 CURVE SMOOTH",
"115 153 OFFCURVE",
"86 158 OFFCURVE",
"56 166 CURVE",
"90 89 LINE",
"206 83 OFFCURVE",
"296 46 OFFCURVE",
"404 -35 CURVE"
);
},
{
closed = 1;
nodes = (
"417 456 LINE",
"417 491 LINE",
"-10 491 LINE",
"-10 456 LINE"
);
}
);
width = 407;
},
{
layerId = "A309AC34-D742-49E2-8DE7-30304959F2B2";
name = Bold;
paths = (
{
closed = 1;
nodes = (
"452 -15 LINE",
"362 50 OFFCURVE",
"289 90 OFFCURVE",
"201 115 CURVE",
"206 54 LINE",
"345 68 OFFCURVE",
"420 158 OFFCURVE",
"420 242 CURVE SMOOTH",
"420 327 OFFCURVE",
"343 401 OFFCURVE",
"253 401 CURVE SMOOTH",
"238 401 OFFCURVE",
"208 399 OFFCURVE",
"196 399 CURVE SMOOTH",
"155 399 OFFCURVE",
"116 423 OFFCURVE",
"113 467 CURVE",
"34 467 LINE",
"34 314 LINE SMOOTH",
"34 256 OFFCURVE",
"86 188 OFFCURVE",
"152 188 CURVE SMOOTH",
"211 188 OFFCURVE",
"275 244 OFFCURVE",
"275 293 CURVE SMOOTH",
"275 328 OFFCURVE",
"243 363 OFFCURVE",
"196 374 CURVE",
"167 331 LINE",
"179 327 OFFCURVE",
"181 323 OFFCURVE",
"181 318 CURVE SMOOTH",
"181 299 OFFCURVE",
"145 269 OFFCURVE",
"127 269 CURVE SMOOTH",
"118 269 OFFCURVE",
"114 275 OFFCURVE",
"114 290 CURVE SMOOTH",
"114 458 LINE",
"90 424 LINE",
"104 355 OFFCURVE",
"159 323 OFFCURVE",
"212 323 CURVE SMOOTH",
"272 323 OFFCURVE",
"269 324 OFFCURVE",
"278 324 CURVE SMOOTH",
"315 324 OFFCURVE",
"328 309 OFFCURVE",
"328 284 CURVE SMOOTH",
"328 225 OFFCURVE",
"256 148 OFFCURVE",
"153 148 CURVE SMOOTH",
"127 148 OFFCURVE",
"87 153 OFFCURVE",
"51 161 CURVE",
"110 39 LINE",
"231 34 OFFCURVE",
"314 3 OFFCURVE",
"414 -63 CURVE"
);
},
{
closed = 1;
nodes = (
"477 456 LINE",
"477 521 LINE",
"-30 521 LINE",
"-30 456 LINE"
);
}
);
width = 447;
}
);
},
{
glyphname = bJa;
lastChange = "2016-02-22 17:28:17 +0000";
layers = (
{
layerId = "F2EBC5D5-DDE2-4851-B52F-F2293ECE9CC7";
name = Light;
paths = (
{
closed = 1;
nodes = (
"468 4 LINE",
"456 58 OFFCURVE",
"451 110 OFFCURVE",
"451 155 CURVE SMOOTH",
"451 229 OFFCURVE",
"465 286 OFFCURVE",
"511 350 CURVE",
"454 411 LINE",
"430 397 OFFCURVE",
"401 390 OFFCURVE",
"375 390 CURVE SMOOTH",
"329 390 OFFCURVE",
"301 411 OFFCURVE",
"250 474 CURVE",
"228 470 LINE",
"169 430 OFFCURVE",
"128 374 OFFCURVE",
"128 326 CURVE SMOOTH",
"128 280 OFFCURVE",
"166 216 OFFCURVE",
"222 216 CURVE SMOOTH",
"257 216 OFFCURVE",
"305 241 OFFCURVE",
"342 276 CURVE",
"301 285 LINE",
"321 270 OFFCURVE",
"337 244 OFFCURVE",
"337 213 CURVE SMOOTH",
"337 160 OFFCURVE",
"290 121 OFFCURVE",
"232 121 CURVE SMOOTH",
"129 121 OFFCURVE",
"66 244 OFFCURVE",
"39 411 CURVE",
"14 407 LINE",
"50 179 OFFCURVE",
"143 62 OFFCURVE",
"247 62 CURVE SMOOTH",
"324 62 OFFCURVE",
"371 125 OFFCURVE",
"371 194 CURVE SMOOTH",
"371 246 OFFCURVE",
"344 291 OFFCURVE",
"306 323 CURVE",
"266 287 OFFCURVE",
"226 265 OFFCURVE",
"200 265 CURVE SMOOTH",
"179 265 OFFCURVE",
"167 278 OFFCURVE",
"167 298 CURVE SMOOTH",
"167 322 OFFCURVE",
"183 360 OFFCURVE",
"268 429 CURVE",
"235 445 LINE",
"286 374 OFFCURVE",
"332 340 OFFCURVE",
"400 340 CURVE SMOOTH",
"428 340 OFFCURVE",
"450 346 OFFCURVE",
"474 359 CURVE",
"456 372 LINE",
"432 331 OFFCURVE",
"417 265 OFFCURVE",
"417 188 CURVE SMOOTH",
"417 132 OFFCURVE",
"425 73 OFFCURVE",
"442 -2 CURVE"
);
},
{
closed = 1;
nodes = (
"552 456 LINE",
"552 491 LINE",
"-10 491 LINE",
"-10 456 LINE"
);
}
);
width = 542;
},
{
layerId = "A309AC34-D742-49E2-8DE7-30304959F2B2";
name = Bold;
paths = (
{
closed = 1;
nodes = (
"527 6 LINE",
"517 63 OFFCURVE",
"514 124 OFFCURVE",
"514 151 CURVE SMOOTH",
"514 219 OFFCURVE",
"533 270 OFFCURVE",
"581 320 CURVE",
"494 424 LINE",
"470 411 OFFCURVE",
"440 405 OFFCURVE",
"419 405 CURVE SMOOTH",
"375 405 OFFCURVE",
"331 432 OFFCURVE",
"300 494 CURVE",
"248 490 LINE",
"179 452 OFFCURVE",
"128 398 OFFCURVE",
"128 342 CURVE SMOOTH",
"128 283 OFFCURVE",
"183 196 OFFCURVE",
"262 196 CURVE SMOOTH",
"301 196 OFFCURVE",
"350 217 OFFCURVE",
"383 252 CURVE",
"311 275 LINE",
"329 264 OFFCURVE",
"344 238 OFFCURVE",
"344 214 CURVE SMOOTH",
"344 174 OFFCURVE",
"300 143 OFFCURVE",
"248 143 CURVE SMOOTH",
"142 143 OFFCURVE",
"84 268 OFFCURVE",
"59 421 CURVE",
"4 407 LINE",
"44 158 OFFCURVE",
"144 30 OFFCURVE",
"268 30 CURVE SMOOTH",
"359 30 OFFCURVE",
"418 98 OFFCURVE",
"418 175 CURVE SMOOTH",
"418 236 OFFCURVE",
"382 296 OFFCURVE",
"326 338 CURVE",
"277 299 OFFCURVE",
"246 283 OFFCURVE",
"225 283 CURVE SMOOTH",
"213 283 OFFCURVE",
"204 288 OFFCURVE",
"204 301 CURVE SMOOTH",
"204 319 OFFCURVE",
"219 354 OFFCURVE",
"318 419 CURVE",
"283 425 LINE",
"335 345 OFFCURVE",
"380 313 OFFCURVE",
"447 313 CURVE SMOOTH",
"478 313 OFFCURVE",
"505 320 OFFCURVE",
"534 335 CURVE",
"496 385 LINE",
"460 345 OFFCURVE",
"442 283 OFFCURVE",
"442 208 CURVE SMOOTH",
"442 158 OFFCURVE",
"450 84 OFFCURVE",
"469 -3 CURVE"
);
},
{
closed = 1;
nodes = (
"638 456 LINE",
"638 521 LINE",
"-30 521 LINE",
"-30 456 LINE"
);
}
);
width = 608;
}
);
},
{
glyphname = bJha;
lastChange = "2016-02-22 17:28:17 +0000";
layers = (
{
layerId = "F2EBC5D5-DDE2-4851-B52F-F2293ECE9CC7";
name = Light;
paths = (
{
closed = 1;
nodes = (
"344 0 LINE",
"344 466 LINE",
"304 466 LINE",
"304 72 LINE",
"313 79 LINE",
"274 173 OFFCURVE",
"169 247 OFFCURVE",
"81 273 CURVE",
"84 253 LINE",
"153 310 OFFCURVE",
"240 357 OFFCURVE",
"328 384 CURVE",
"322 436 LINE",
"235 416 OFFCURVE",
"113 355 OFFCURVE",
"25 283 CURVE",
"77 214 LINE",
"184 197 OFFCURVE",
"299 118 OFFCURVE",
"319 0 CURVE"
);
},
{
closed = 1;
nodes = (
"344 456 LINE",
"344 491 LINE",
"-10 491 LINE",
"-10 456 LINE"
);
},
{
closed = 1;
nodes = (
"463 51 LINE",
"463 456 LINE",
"543 456 LINE",
"543 491 LINE",
"423 491 LINE",
"423 126 LINE",
"435 133 LINE",
"417 187 OFFCURVE",
"381 229 OFFCURVE",
"336 261 CURVE",
"332 214 LINE",
"397 181 OFFCURVE",
"428 132 OFFCURVE",
"438 51 CURVE"
);
}
);
width = 533;
},
{
layerId = "A309AC34-D742-49E2-8DE7-30304959F2B2";
name = Bold;
paths = (
{
closed = 1;
nodes = (
"384 0 LINE",
"384 466 LINE",
"304 466 LINE",
"304 72 LINE",
"353 39 LINE",
"307 157 OFFCURVE",
"204 251 OFFCURVE",
"81 283 CURVE",
"94 213 LINE",
"171 268 OFFCURVE",
"269 312 OFFCURVE",
"368 338 CURVE",
"332 444 LINE",
"233 424 OFFCURVE",
"95 364 OFFCURVE",
"-5 293 CURVE",
"87 164 LINE",
"203 153 OFFCURVE",
"288 106 OFFCURVE",
"324 0 CURVE"
);
},
{
closed = 1;
nodes = (
"384 456 LINE",
"384 521 LINE",
"-30 521 LINE",
"-30 456 LINE"
);
},
{
closed = 1;
nodes = (
"526 51 LINE",
"526 456 LINE",
"606 456 LINE",
"606 521 LINE",
"446 521 LINE",
"446 126 LINE",
"494 83 LINE",
"473 158 OFFCURVE",
"431 217 OFFCURVE",
"367 257 CURVE",
"375 154 LINE",
"434 140 OFFCURVE",
"462 102 OFFCURVE",
"466 51 CURVE"
);
}
);
width = 576;
}
);
},
{
glyphname = bNya;
lastChange = "2016-03-10 19:36:16 +0000";
layers = (
{
layerId = "F2EBC5D5-DDE2-4851-B52F-F2293ECE9CC7";
name = Light;
paths = (
{
closed = 1;
nodes = (
"452 0 LINE",
"452 403 LINE SMOOTH",
"452 448 OFFCURVE",
"412 500 OFFCURVE",
"362 500 CURVE SMOOTH",
"289 500 OFFCURVE",
"180 392 OFFCURVE",
"180 299 CURVE SMOOTH",
"180 244 OFFCURVE",
"218 207 OFFCURVE",
"268 207 CURVE SMOOTH",
"308 207 OFFCURVE",
"334 231 OFFCURVE",
"334 264 CURVE SMOOTH",
"334 296 OFFCURVE",
"309 318 OFFCURVE",
"280 318 CURVE SMOOTH",
"259 318 OFFCURVE",
"242 306 OFFCURVE",
"235 291 CURVE",
"249 281 LINE",
"241 291 OFFCURVE",
"240 301 OFFCURVE",
"240 307 CURVE SMOOTH",
"240 363 OFFCURVE",
"336 458 OFFCURVE",
"383 458 CURVE SMOOTH",
"402 458 OFFCURVE",
"412 443 OFFCURVE",
"412 418 CURVE SMOOTH",
"412 81 LINE",
"423 73 LINE",
"408 118 OFFCURVE",
"371 149 OFFCURVE",
"322 149 CURVE SMOOTH",
"295 149 OFFCURVE",
"218 139 OFFCURVE",
"183 139 CURVE SMOOTH",
"100 139 OFFCURVE",
"59 194 OFFCURVE",
"59 263 CURVE SMOOTH",
"59 296 OFFCURVE",
"69 329 OFFCURVE",
"86 354 CURVE",
"66 366 LINE",
"42 331 OFFCURVE",
"30 292 OFFCURVE",
"30 253 CURVE SMOOTH",
"30 155 OFFCURVE",
"107 81 OFFCURVE",
"208 81 CURVE SMOOTH",
"247 81 OFFCURVE",
"322 92 OFFCURVE",
"351 92 CURVE SMOOTH",
"398 92 OFFCURVE",
"421 65 OFFCURVE",
"427 0 CURVE"
);
},
{
closed = 1;
nodes = (
"651 116 OFFCURVE",
"683 156 OFFCURVE",
"683 207 CURVE SMOOTH",
"683 257 OFFCURVE",
"651 299 OFFCURVE",
"619 322 CURVE",
"612 258 LINE",
"662 296 OFFCURVE",
"683 337 OFFCURVE",
"683 379 CURVE SMOOTH",
"683 438 OFFCURVE",
"642 485 OFFCURVE",
"594 485 CURVE SMOOTH",
"548 485 OFFCURVE",
"493 441 OFFCURVE",
"441 354 CURVE",
"451 244 LINE",
"489 165 OFFCURVE",
"550 116 OFFCURVE",
"603 116 CURVE SMOOTH"
);
},
{
closed = 1;
nodes = (
"523 171 OFFCURVE",
"461 240 OFFCURVE",
"440 336 CURVE",
"435 258 LINE",
"488 380 OFFCURVE",
"556 434 OFFCURVE",
"608 434 CURVE SMOOTH",
"636 434 OFFCURVE",
"651 419 OFFCURVE",
"651 394 CURVE SMOOTH",
"651 368 OFFCURVE",
"635 339 OFFCURVE",
"588 304 CURVE",
"631 313 LINE",
"621 336 OFFCURVE",
"599 351 OFFCURVE",
"576 351 CURVE SMOOTH",
"547 351 OFFCURVE",
"523 327 OFFCURVE",
"523 298 CURVE SMOOTH",
"523 269 OFFCURVE",
"547 245 OFFCURVE",
"577 245 CURVE SMOOTH",
"600 245 OFFCURVE",
"627 259 OFFCURVE",
"639 285 CURVE",
"601 286 LINE",
"642 268 OFFCURVE",
"652 242 OFFCURVE",
"652 223 CURVE SMOOTH",
"652 193 OFFCURVE",
"627 171 OFFCURVE",
"589 171 CURVE SMOOTH"
);
}
);
width = 726;
},
{
layerId = "A309AC34-D742-49E2-8DE7-30304959F2B2";
name = Bold;
paths = (
{
closed = 1;
nodes = (
"502 0 LINE",
"502 383 LINE SMOOTH",
"502 451 OFFCURVE",
"437 530 OFFCURVE",
"367 530 CURVE SMOOTH",
"281 530 OFFCURVE",
"164 413 OFFCURVE",
"164 311 CURVE SMOOTH",
"164 244 OFFCURVE",
"214 193 OFFCURVE",
"275 193 CURVE SMOOTH",
"325 193 OFFCURVE",
"359 226 OFFCURVE",
"359 267 CURVE SMOOTH",
"359 306 OFFCURVE",
"327 338 OFFCURVE",
"291 338 CURVE SMOOTH",
"261 338 OFFCURVE",
"235 317 OFFCURVE",
"225 291 CURVE",
"279 251 LINE",
"275 260 OFFCURVE",
"272 276 OFFCURVE",
"272 287 CURVE SMOOTH",
"272 353 OFFCURVE",
"371 448 OFFCURVE",
"406 448 CURVE SMOOTH",
"417 448 OFFCURVE",
"422 439 OFFCURVE",
"422 428 CURVE SMOOTH",
"422 81 LINE",
"463 33 LINE",
"441 112 OFFCURVE",
"390 162 OFFCURVE",
"320 162 CURVE SMOOTH",
"289 162 OFFCURVE",
"225 152 OFFCURVE",
"189 152 CURVE SMOOTH",
"115 152 OFFCURVE",
"69 195 OFFCURVE",
"69 267 CURVE SMOOTH",
"69 308 OFFCURVE",
"84 345 OFFCURVE",
"100 374 CURVE",
"55 398 LINE",
"25 356 OFFCURVE",
"10 310 OFFCURVE",
"10 261 CURVE SMOOTH",
"10 143 OFFCURVE",
"99 51 OFFCURVE",
"221 51 CURVE SMOOTH",
"268 51 OFFCURVE",
"325 65 OFFCURVE",
"366 65 CURVE SMOOTH",
"418 65 OFFCURVE",
"440 42 OFFCURVE",
"442 0 CURVE"
);
},
{
closed = 1;
nodes = (
"696 63 OFFCURVE",
"743 108 OFFCURVE",
"743 171 CURVE SMOOTH",
"743 231 OFFCURVE",
"699 286 OFFCURVE",
"659 304 CURVE",
"652 220 LINE",
"720 262 OFFCURVE",
"743 302 OFFCURVE",
"743 350 CURVE SMOOTH",
"743 426 OFFCURVE",
"684 495 OFFCURVE",
"616 495 CURVE SMOOTH",
"563 495 OFFCURVE",
"503 448 OFFCURVE",
"446 344 CURVE",
"460 244 LINE",
"507 123 OFFCURVE",
"565 63 OFFCURVE",
"639 63 CURVE SMOOTH"
);
},
{
closed = 1;
nodes = (
"566 151 OFFCURVE",
"518 213 OFFCURVE",
"499 286 CURVE",
"494 260 LINE",
"536 361 OFFCURVE",
"596 406 OFFCURVE",
"642 406 CURVE SMOOTH",
"662 406 OFFCURVE",
"672 395 OFFCURVE",
"672 379 CURVE SMOOTH",
"672 358 OFFCURVE",
"655 325 OFFCURVE",
"599 290 CURVE",
"671 296 LINE",
"659 314 OFFCURVE",
"634 333 OFFCURVE",
"605 333 CURVE SMOOTH",
"572 333 OFFCURVE",
"543 306 OFFCURVE",
"543 271 CURVE SMOOTH",
"543 236 OFFCURVE",
"571 207 OFFCURVE",
"608 207 CURVE SMOOTH",
"634 207 OFFCURVE",
"665 221 OFFCURVE",
"679 247 CURVE",
"631 258 LINE",
"653 249 OFFCURVE",
"674 228 OFFCURVE",
"674 201 CURVE SMOOTH",
"674 172 OFFCURVE",
"653 151 OFFCURVE",
"622 151 CURVE SMOOTH"
);
}
);
width = 773;
}
);
},
{
glyphname = bTta;
lastChange = "2016-03-05 06:15:28 +0000";
layers = (
{
layerId = "F2EBC5D5-DDE2-4851-B52F-F2293ECE9CC7";
name = Light;
paths = (
{
closed = 1;
nodes = (
"228 10 OFFCURVE",
"342 153 OFFCURVE",
"342 256 CURVE SMOOTH",
"342 306 OFFCURVE",
"313 349 OFFCURVE",
"268 349 CURVE SMOOTH",
"234 349 OFFCURVE",
"208 324 OFFCURVE",
"208 293 CURVE SMOOTH",
"208 261 OFFCURVE",
"235 234 OFFCURVE",
"270 234 CURVE SMOOTH",
"285 234 OFFCURVE",
"297 239 OFFCURVE",
"310 250 CURVE",
"290 264 LINE",
"290 182 OFFCURVE",
"197 56 OFFCURVE",
"137 56 CURVE SMOOTH",
"113 56 OFFCURVE",
"102 76 OFFCURVE",
"102 121 CURVE SMOOTH",
"102 467 LINE",
"62 467 LINE",
"62 138 LINE SMOOTH",
"62 63 OFFCURVE",
"109 10 OFFCURVE",
"154 10 CURVE SMOOTH"
);
},
{
closed = 1;
nodes = (
"382 456 LINE",
"382 491 LINE",
"-10 491 LINE",
"-10 456 LINE"
);
},
{
closed = 1;
nodes = (
"320 564 OFFCURVE",
"280 616 OFFCURVE",
"204 616 CURVE SMOOTH",
"167 616 OFFCURVE",
"113 604 OFFCURVE",
"78 604 CURVE SMOOTH",
"36 604 OFFCURVE",
"19 621 OFFCURVE",
"19 644 CURVE SMOOTH",
"19 662 OFFCURVE",
"30 683 OFFCURVE",
"44 700 CURVE",
"25 714 LINE",
"6 694 OFFCURVE",
"-9 668 OFFCURVE",
"-9 638 CURVE SMOOTH",
"-9 588 OFFCURVE",
"34 553 OFFCURVE",
"96 553 CURVE SMOOTH",
"130 553 OFFCURVE",
"200 564 OFFCURVE",
"234 564 CURVE SMOOTH",
"275 564 OFFCURVE",
"292 548 OFFCURVE",
"292 520 CURVE SMOOTH",
"292 508 OFFCURVE",
"289 497 OFFCURVE",
"282 486 CURVE",
"326 485 LINE"
);
}
);
width = 372;
},
{
background = {
paths = (
{
closed = 1;
nodes = (
"262 -1 OFFCURVE",
"387 155 OFFCURVE",
"387 267 CURVE SMOOTH",
"387 333 OFFCURVE",
"343 389 OFFCURVE",
"281 389 CURVE SMOOTH",
"229 389 OFFCURVE",
"193 350 OFFCURVE",
"193 305 CURVE SMOOTH",
"193 260 OFFCURVE",
"230 224 OFFCURVE",
"279 224 CURVE SMOOTH",
"298 224 OFFCURVE",
"313 229 OFFCURVE",
"325 240 CURVE",
"281 294 LINE",
"281 219 OFFCURVE",
"192 95 OFFCURVE",
"140 95 CURVE SMOOTH",
"127 95 OFFCURVE",
"122 103 OFFCURVE",
"122 130 CURVE SMOOTH",
"122 467 LINE",
"42 467 LINE",
"42 167 LINE SMOOTH",
"42 69 OFFCURVE",
"111 -1 OFFCURVE",
"172 -1 CURVE SMOOTH"
);
},
{
closed = 1;
nodes = (
"452 456 LINE",
"452 521 LINE",
"-30 521 LINE",
"-30 456 LINE"
);
},
{
closed = 1;
nodes = (
"372 600 OFFCURVE",
"316 665 OFFCURVE",
"223 665 CURVE SMOOTH",
"183 665 OFFCURVE",
"114 653 OFFCURVE",
"80 653 CURVE SMOOTH",
"43 653 OFFCURVE",
"29 667 OFFCURVE",
"29 688 CURVE SMOOTH",
"29 704 OFFCURVE",
"37 721 OFFCURVE",
"50 738 CURVE",
"6 764 LINE",
"-14 739 OFFCURVE",
"-29 711 OFFCURVE",
"-29 678 CURVE SMOOTH",
"-29 610 OFFCURVE",
"32 564 OFFCURVE",
"113 564 CURVE SMOOTH",
"154 564 OFFCURVE",
"237 576 OFFCURVE",
"269 576 CURVE SMOOTH",
"301 576 OFFCURVE",
"312 565 OFFCURVE",
"312 545 CURVE SMOOTH",
"312 535 OFFCURVE",
"309 525 OFFCURVE",
"302 516 CURVE",
"381 515 LINE"
);
}
);
};
layerId = "A309AC34-D742-49E2-8DE7-30304959F2B2";
name = Bold;
paths = (
{
closed = 1;
nodes = (
"262 -1 OFFCURVE",
"387 155 OFFCURVE",
"387 267 CURVE SMOOTH",
"387 333 OFFCURVE",
"343 389 OFFCURVE",
"281 389 CURVE SMOOTH",
"229 389 OFFCURVE",
"193 350 OFFCURVE",
"193 305 CURVE SMOOTH",
"193 260 OFFCURVE",
"230 224 OFFCURVE",
"279 224 CURVE SMOOTH",
"298 224 OFFCURVE",
"313 229 OFFCURVE",
"325 240 CURVE",
"281 294 LINE",
"281 219 OFFCURVE",
"192 95 OFFCURVE",
"140 95 CURVE SMOOTH",
"127 95 OFFCURVE",
"122 103 OFFCURVE",
"122 130 CURVE SMOOTH",
"122 467 LINE",
"42 467 LINE",
"42 167 LINE SMOOTH",
"42 69 OFFCURVE",
"111 -1 OFFCURVE",
"172 -1 CURVE SMOOTH"
);
},
{
closed = 1;
nodes = (
"452 456 LINE",
"452 521 LINE",
"-30 521 LINE",
"-30 456 LINE"
);
},
{
closed = 1;
nodes = (
"372 600 OFFCURVE",
"316 665 OFFCURVE",
"223 665 CURVE SMOOTH",
"183 665 OFFCURVE",
"114 653 OFFCURVE",
"80 653 CURVE SMOOTH",
"43 653 OFFCURVE",
"29 667 OFFCURVE",
"29 688 CURVE SMOOTH",
"29 704 OFFCURVE",
"37 721 OFFCURVE",
"50 738 CURVE",
"6 764 LINE",
"-14 739 OFFCURVE",
"-29 711 OFFCURVE",
"-29 678 CURVE SMOOTH",
"-29 610 OFFCURVE",
"32 564 OFFCURVE",
"113 564 CURVE SMOOTH",
"154 564 OFFCURVE",
"237 576 OFFCURVE",
"269 576 CURVE SMOOTH",
"301 576 OFFCURVE",
"312 565 OFFCURVE",
"312 545 CURVE SMOOTH",
"312 535 OFFCURVE",
"309 525 OFFCURVE",
"302 516 CURVE",
"381 515 LINE"
);
}
);
width = 422;
}
);
},
{
glyphname = bTtha;
lastChange = "2016-03-06 10:23:25 +0000";
layers = (
{
background = {
paths = (
{
closed = 1;
nodes = (
"263 23 OFFCURVE",
"332 88 OFFCURVE",
"332 193 CURVE SMOOTH",
"332 274 OFFCURVE",
"291 370 OFFCURVE",
"206 466 CURVE",
"160 471 LINE",
"176 447 OFFCURVE",
"183 423 OFFCURVE",
"183 393 CURVE SMOOTH",
"183 311 OFFCURVE",
"130 240 OFFCURVE",
"21 211 CURVE",
"21 102 OFFCURVE",
"94 23 OFFCURVE",
"181 23 CURVE SMOOTH"
);
},
{
closed = 1;
nodes = (
"110 61 OFFCURVE",
"66 107 OFFCURVE",
"60 180 CURVE",
"47 160 LINE",
"157 186 OFFCURVE",
"217 259 OFFCURVE",
"217 365 CURVE SMOOTH",
"217 410 OFFCURVE",
"206 434 OFFCURVE",
"187 463 CURVE",
"191 444 LINE",
"259 362 OFFCURVE",
"293 280 OFFCURVE",
"293 209 CURVE SMOOTH",
"293 121 OFFCURVE",
"242 61 OFFCURVE",
"172 61 CURVE SMOOTH"
);
},
{
closed = 1;
nodes = (
"375 456 LINE",
"375 491 LINE",
"-10 491 LINE",
"-10 456 LINE"
);
},
{
closed = 1;
nodes = (
"192 482 LINE",
"118 563 OFFCURVE",
"89 617 OFFCURVE",
"89 654 CURVE SMOOTH",
"89 681 OFFCURVE",
"104 703 OFFCURVE",
"124 720 CURVE",
"92 748 LINE",
"66 728 OFFCURVE",
"51 701 OFFCURVE",
"51 669 CURVE SMOOTH",
"51 619 OFFCURVE",
"85 569 OFFCURVE",
"156 481 CURVE"
);
}
);
};
layerId = "F2EBC5D5-DDE2-4851-B52F-F2293ECE9CC7";
name = Light;
paths = (
{
closed = 1;
nodes = (
"271 23 OFFCURVE",
"337 88 OFFCURVE",
"337 193 CURVE SMOOTH",
"337 278 OFFCURVE",
"294 370 OFFCURVE",
"206 466 CURVE",
"160 471 LINE",
"176 447 OFFCURVE",
"183 423 OFFCURVE",
"183 393 CURVE SMOOTH",
"183 311 OFFCURVE",
"130 240 OFFCURVE",
"21 211 CURVE",
"21 102 OFFCURVE",
"91 23 OFFCURVE",
"185 23 CURVE SMOOTH"
);
},
{
closed = 1;
nodes = (
"110 61 OFFCURVE",
"66 107 OFFCURVE",
"60 180 CURVE",
"47 160 LINE",
"157 186 OFFCURVE",
"217 259 OFFCURVE",
"217 365 CURVE SMOOTH",
"217 410 OFFCURVE",
"206 434 OFFCURVE",
"187 463 CURVE",
"191 444 LINE",
"261 359 OFFCURVE",
"293 272 OFFCURVE",
"293 206 CURVE SMOOTH",
"293 117 OFFCURVE",
"236 61 OFFCURVE",
"170 61 CURVE SMOOTH"
);
},
{
closed = 1;
nodes = (
"380 456 LINE",
"380 491 LINE",
"-10 491 LINE",
"-10 456 LINE"
);
},
{
closed = 1;
nodes = (
"192 482 LINE",
"118 563 OFFCURVE",
"89 617 OFFCURVE",
"89 654 CURVE SMOOTH",
"89 681 OFFCURVE",
"104 703 OFFCURVE",
"124 720 CURVE",
"92 748 LINE",
"66 728 OFFCURVE",
"51 701 OFFCURVE",
"51 669 CURVE SMOOTH",
"51 619 OFFCURVE",
"85 569 OFFCURVE",
"156 481 CURVE"
);
}
);
width = 370;
},
{
layerId = "A309AC34-D742-49E2-8DE7-30304959F2B2";
name = Bold;
paths = (
{
closed = 1;
nodes = (
"300 13 OFFCURVE",
"380 75 OFFCURVE",
"380 189 CURVE SMOOTH",
"380 272 OFFCURVE",
"337 358 OFFCURVE",
"223 483 CURVE",
"155 471 LINE",
"165 447 OFFCURVE",
"170 421 OFFCURVE",
"170 398 CURVE SMOOTH",
"170 319 OFFCURVE",
"112 265 OFFCURVE",
"3 241 CURVE",
"17 106 OFFCURVE",
"104 13 OFFCURVE",
"212 13 CURVE SMOOTH"
);
},
{
closed = 1;
nodes = (
"133 103 OFFCURVE",
"100 128 OFFCURVE",
"90 174 CURVE",
"82 146 LINE",
"200 171 OFFCURVE",
"242 242 OFFCURVE",
"242 319 CURVE SMOOTH",
"242 369 OFFCURVE",
"224 426 OFFCURVE",
"202 463 CURVE",
"216 414 LINE",
"270 350 OFFCURVE",
"303 284 OFFCURVE",
"303 227 CURVE SMOOTH",
"303 155 OFFCURVE",
"250 103 OFFCURVE",
"181 103 CURVE SMOOTH"
);
},
{
closed = 1;
nodes = (
"435 456 LINE",
"435 521 LINE",
"-30 521 LINE",
"-30 456 LINE"
);
},
{
closed = 1;
nodes = (
"217 485 LINE",
"148 561 OFFCURVE",
"124 611 OFFCURVE",
"124 650 CURVE SMOOTH",
"124 677 OFFCURVE",
"135 699 OFFCURVE",
"161 734 CURVE",
"87 778 LINE",
"60 746 OFFCURVE",
"46 718 OFFCURVE",
"46 684 CURVE SMOOTH",
"46 631 OFFCURVE",
"80 576 OFFCURVE",
"151 481 CURVE"
);
}
);
width = 405;
}
);
},
{
glyphname = bDda;
lastChange = "2016-02-22 17:28:18 +0000";
layers = (
{
layerId = "F2EBC5D5-DDE2-4851-B52F-F2293ECE9CC7";
name = Light;
paths = (
{
closed = 1;
nodes = (
"380 24 OFFCURVE",
"443 105 OFFCURVE",
"443 207 CURVE SMOOTH",
"443 285 OFFCURVE",
"406 335 OFFCURVE",
"363 371 CURVE",
"324 299 OFFCURVE",
"275 253 OFFCURVE",
"249 253 CURVE SMOOTH",
"238 253 OFFCURVE",
"233 261 OFFCURVE",
"233 274 CURVE SMOOTH",
"233 466 LINE",
"193 466 LINE",
"193 305 LINE SMOOTH",
"193 257 OFFCURVE",
"231 209 OFFCURVE",
"271 209 CURVE SMOOTH",
"309 209 OFFCURVE",
"362 254 OFFCURVE",
"396 318 CURVE",
"370 317 LINE",
"394 300 OFFCURVE",
"413 270 OFFCURVE",
"413 225 CURVE SMOOTH",
"413 144 OFFCURVE",
"353 82 OFFCURVE",
"268 82 CURVE SMOOTH",
"164 82 OFFCURVE",
"89 178 OFFCURVE",
"35 411 CURVE",
"10 404 LINE",
"69 132 OFFCURVE",
"168 24 OFFCURVE",
"282 24 CURVE SMOOTH"
);
},
{
closed = 1;
nodes = (
"487 456 LINE",
"487 491 LINE",
"-10 491 LINE",
"-10 456 LINE"
);
}
);
width = 477;
},
{
layerId = "A309AC34-D742-49E2-8DE7-30304959F2B2";
name = Bold;
paths = (
{
closed = 1;
nodes = (
"417 12 OFFCURVE",
"487 87 OFFCURVE",
"487 195 CURVE SMOOTH",
"487 289 OFFCURVE",
"434 360 OFFCURVE",
"380 407 CURVE",
"335 337 OFFCURVE",
"289 295 OFFCURVE",
"266 295 CURVE SMOOTH",
"256 295 OFFCURVE",
"253 303 OFFCURVE",
"253 314 CURVE SMOOTH",
"253 466 LINE",
"173 466 LINE",
"173 349 LINE SMOOTH",
"173 274 OFFCURVE",
"230 194 OFFCURVE",
"293 194 CURVE SMOOTH",
"339 194 OFFCURVE",
"400 236 OFFCURVE",
"432 297 CURVE",
"360 327 LINE",
"398 305 OFFCURVE",
"417 267 OFFCURVE",
"417 232 CURVE SMOOTH",
"417 172 OFFCURVE",
"363 128 OFFCURVE",
"285 128 CURVE SMOOTH",
"193 128 OFFCURVE",
"109 189 OFFCURVE",
"48 422 CURVE",
"-10 404 LINE",
"68 112 OFFCURVE",
"176 12 OFFCURVE",
"305 12 CURVE SMOOTH"
);
},
{
closed = 1;
nodes = (
"543 456 LINE",
"543 521 LINE",
"-30 521 LINE",
"-30 456 LINE"
);
}
);
width = 513;
}
);
},
{
glyphname = bDdha;
lastChange = "2016-03-06 13:24:34 +0000";
layers = (
{
background = {
paths = (
{
closed = 1;
nodes = (
"354 -189 LINE",
"236 -74 OFFCURVE",
"186 -38 OFFCURVE",
"129 -38 CURVE SMOOTH",
"71 -38 OFFCURVE",
"41 -75 OFFCURVE",
"41 -114 CURVE SMOOTH",
"41 -159 OFFCURVE",
"82 -196 OFFCURVE",
"131 -196 CURVE SMOOTH",
"186 -196 OFFCURVE",
"230 -151 OFFCURVE",
"230 -93 CURVE",
"198 -72 LINE",
"198 -131 OFFCURVE",
"158 -162 OFFCURVE",
"119 -162 CURVE SMOOTH",
"91 -162 OFFCURVE",
"77 -145 OFFCURVE",
"77 -126 CURVE SMOOTH",
"77 -103 OFFCURVE",
"95 -77 OFFCURVE",
"138 -77 CURVE SMOOTH",
"188 -77 OFFCURVE",
"240 -113 OFFCURVE",
"337 -206 CURVE"
);
},
{
closed = 1;
nodes = (
"230 -95 OFFCURVE",
"232 -88 OFFCURVE",
"232 -76 CURVE SMOOTH",
"232 -58 OFFCURVE",
"228 -25 OFFCURVE",
"221 1 CURVE",
"199 -3 LINE",
"202 -23 OFFCURVE",
"202 -41 OFFCURVE",
"202 -52 CURVE SMOOTH",
"202 -63 OFFCURVE",
"201 -72 OFFCURVE",
"198 -85 CURVE",
"229 -101 LINE"
);
}
);
};
layerId = "F2EBC5D5-DDE2-4851-B52F-F2293ECE9CC7";
name = Light;
paths = (
{
closed = 1;
nodes = (
"228 10 OFFCURVE",
"342 153 OFFCURVE",
"342 256 CURVE SMOOTH",
"342 306 OFFCURVE",
"313 349 OFFCURVE",
"268 349 CURVE SMOOTH",
"234 349 OFFCURVE",
"208 324 OFFCURVE",
"208 293 CURVE SMOOTH",
"208 261 OFFCURVE",
"235 234 OFFCURVE",
"270 234 CURVE SMOOTH",
"285 234 OFFCURVE",
"297 239 OFFCURVE",
"310 250 CURVE",
"290 264 LINE",
"290 182 OFFCURVE",
"197 56 OFFCURVE",
"137 56 CURVE SMOOTH",
"113 56 OFFCURVE",
"102 76 OFFCURVE",
"102 121 CURVE SMOOTH",
"102 467 LINE",
"62 467 LINE",
"62 138 LINE SMOOTH",
"62 63 OFFCURVE",
"109 10 OFFCURVE",
"154 10 CURVE SMOOTH"
);
},
{
closed = 1;
nodes = (
"382 456 LINE",
"382 491 LINE",
"-10 491 LINE",
"-10 456 LINE"
);
}
);
width = 372;
},
{
layerId = "A309AC34-D742-49E2-8DE7-30304959F2B2";
name = Bold;
paths = (
{
closed = 1;
nodes = (
"262 -1 OFFCURVE",
"387 155 OFFCURVE",
"387 267 CURVE SMOOTH",
"387 333 OFFCURVE",
"343 389 OFFCURVE",
"281 389 CURVE SMOOTH",
"229 389 OFFCURVE",
"193 350 OFFCURVE",
"193 305 CURVE SMOOTH",
"193 260 OFFCURVE",
"230 224 OFFCURVE",
"279 224 CURVE SMOOTH",
"298 224 OFFCURVE",
"313 229 OFFCURVE",
"325 240 CURVE",
"281 294 LINE",
"281 219 OFFCURVE",
"192 95 OFFCURVE",
"140 95 CURVE SMOOTH",
"127 95 OFFCURVE",
"122 103 OFFCURVE",
"122 130 CURVE SMOOTH",
"122 467 LINE",
"42 467 LINE",
"42 167 LINE SMOOTH",
"42 69 OFFCURVE",
"111 -1 OFFCURVE",
"172 -1 CURVE SMOOTH"
);
},
{
closed = 1;
nodes = (
"452 456 LINE",
"452 521 LINE",
"-30 521 LINE",
"-30 456 LINE"
);
}
);
width = 422;
}
);
},
{
glyphname = bNna;
lastChange = "2016-02-22 17:28:18 +0000";
layers = (
{
layerId = "F2EBC5D5-DDE2-4851-B52F-F2293ECE9CC7";
name = Light;
paths = (
{
closed = 1;
nodes = (
"193 237 OFFCURVE",
"219 263 OFFCURVE",
"219 295 CURVE SMOOTH",
"219 327 OFFCURVE",
"194 350 OFFCURVE",
"164 350 CURVE SMOOTH",
"133 350 OFFCURVE",
"114 326 OFFCURVE",
"114 300 CURVE SMOOTH",
"114 283 OFFCURVE",
"122 266 OFFCURVE",
"144 252 CURVE",
"164 282 LINE",
"153 278 OFFCURVE",
"140 277 OFFCURVE",
"134 277 CURVE SMOOTH",
"96 277 OFFCURVE",
"65 308 OFFCURVE",
"65 353 CURVE SMOOTH",
"65 402 OFFCURVE",
"102 447 OFFCURVE",
"164 447 CURVE SMOOTH",
"252 447 OFFCURVE",
"300 354 OFFCURVE",
"300 261 CURVE",
"327 277 LINE",
"301 438 OFFCURVE",
"232 500 OFFCURVE",
"149 500 CURVE SMOOTH",
"70 500 OFFCURVE",
"18 444 OFFCURVE",
"18 374 CURVE SMOOTH",
"18 298 OFFCURVE",
"81 237 OFFCURVE",
"149 237 CURVE SMOOTH"
);
},
{
closed = 1;
nodes = (
"340 0 LINE",
"340 456 LINE",
"420 456 LINE",
"420 491 LINE",
"300 491 LINE",
"300 0 LINE"
);
}
);
width = 410;
},
{
layerId = "A309AC34-D742-49E2-8DE7-30304959F2B2";
name = Bold;
paths = (
{
closed = 1;
nodes = (
"240 191 OFFCURVE",
"276 228 OFFCURVE",
"276 274 CURVE SMOOTH",
"276 318 OFFCURVE",
"244 354 OFFCURVE",
"199 354 CURVE SMOOTH",
"159 354 OFFCURVE",
"131 325 OFFCURVE",
"131 289 CURVE SMOOTH",
"131 265 OFFCURVE",
"144 241 OFFCURVE",
"181 222 CURVE",
"191 266 LINE",
"182 263 OFFCURVE",
"169 261 OFFCURVE",
"161 261 CURVE SMOOTH",
"131 261 OFFCURVE",
"104 292 OFFCURVE",
"104 339 CURVE SMOOTH",
"104 396 OFFCURVE",
"145 437 OFFCURVE",
"202 437 CURVE SMOOTH",
"276 437 OFFCURVE",
"337 363 OFFCURVE",
"337 221 CURVE",
"384 247 LINE",
"357 469 OFFCURVE",
"266 530 OFFCURVE",
"173 530 CURVE SMOOTH",
"74 530 OFFCURVE",
"10 461 OFFCURVE",
"10 371 CURVE SMOOTH",
"10 269 OFFCURVE",
"92 191 OFFCURVE",
"180 191 CURVE SMOOTH"
);
},
{
closed = 1;
nodes = (
"417 0 LINE",
"417 456 LINE",
"497 456 LINE",
"497 521 LINE",
"337 521 LINE",
"337 0 LINE"
);
}
);
width = 467;
}
);
},
{
glyphname = bTa;
lastChange = "2016-02-22 17:28:18 +0000";
layers = (
{
layerId = "F2EBC5D5-DDE2-4851-B52F-F2293ECE9CC7";
name = Light;
paths = (
{
closed = 1;
nodes = (
"401 46 OFFCURVE",
"477 121 OFFCURVE",
"477 224 CURVE SMOOTH",
"477 326 OFFCURVE",
"401 412 OFFCURVE",
"306 412 CURVE SMOOTH",
"239 412 OFFCURVE",
"192 369 OFFCURVE",
"192 316 CURVE SMOOTH",
"192 271 OFFCURVE",
"227 237 OFFCURVE",
"271 237 CURVE SMOOTH",
"313 237 OFFCURVE",
"343 269 OFFCURVE",
"343 310 CURVE SMOOTH",
"343 343 OFFCURVE",
"322 370 OFFCURVE",
"296 376 CURVE",
"280 346 LINE",
"295 358 OFFCURVE",
"312 364 OFFCURVE",
"334 364 CURVE SMOOTH",
"396 364 OFFCURVE",
"437 316 OFFCURVE",
"437 249 CURVE SMOOTH",
"437 172 OFFCURVE",
"382 105 OFFCURVE",
"296 105 CURVE SMOOTH",
"183 105 OFFCURVE",
"97 221 OFFCURVE",
"32 414 CURVE",
"7 405 LINE",
"78 194 OFFCURVE",
"175 46 OFFCURVE",
"307 46 CURVE SMOOTH"
);
},
{
closed = 1;
nodes = (
"525 456 LINE",
"525 491 LINE",
"-10 491 LINE",
"-10 456 LINE"
);
}
);
width = 515;
},
{
layerId = "A309AC34-D742-49E2-8DE7-30304959F2B2";
name = Bold;
paths = (
{
closed = 1;
nodes = (
"426 31 OFFCURVE",
"496 111 OFFCURVE",
"496 217 CURVE SMOOTH",
"496 331 OFFCURVE",
"416 418 OFFCURVE",
"312 418 CURVE SMOOTH",
"233 418 OFFCURVE",
"184 368 OFFCURVE",
"184 309 CURVE SMOOTH",
"184 255 OFFCURVE",
"224 213 OFFCURVE",
"275 213 CURVE SMOOTH",
"322 213 OFFCURVE",
"359 248 OFFCURVE",
"359 296 CURVE SMOOTH",
"359 332 OFFCURVE",
"337 364 OFFCURVE",
"304 372 CURVE",
"305 320 LINE",
"319 329 OFFCURVE",
"340 334 OFFCURVE",
"356 334 CURVE SMOOTH",
"394 334 OFFCURVE",
"422 305 OFFCURVE",
"422 259 CURVE SMOOTH",
"422 197 OFFCURVE",
"372 150 OFFCURVE",
"296 150 CURVE SMOOTH",
"189 150 OFFCURVE",
"112 242 OFFCURVE",
"52 424 CURVE",
"-5 405 LINE",
"74 151 OFFCURVE",
"192 31 OFFCURVE",
"321 31 CURVE SMOOTH"
);
},
{
closed = 1;
nodes = (
"560 456 LINE",
"560 521 LINE",
"-30 521 LINE",
"-30 456 LINE"
);
}
);
width = 530;
}
);
},
{
glyphname = bTha;
lastChange = "2016-03-10 06:54:16 +0000";
layers = (
{
layerId = "F2EBC5D5-DDE2-4851-B52F-F2293ECE9CC7";
name = Light;
paths = (
{
closed = 1;
nodes = (
"375 0 LINE",
"375 456 LINE",
"455 456 LINE",
"455 491 LINE",
"335 491 LINE",
"335 72 LINE",
"348 74 LINE",
"311 158 OFFCURVE",
"241 221 OFFCURVE",
"146 249 CURVE",
"143 229 LINE",
"241 246 OFFCURVE",
"288 305 OFFCURVE",
"288 372 CURVE SMOOTH",
"288 438 OFFCURVE",
"242 500 OFFCURVE",
"163 500 CURVE SMOOTH",
"95 500 OFFCURVE",
"34 453 OFFCURVE",
"34 396 CURVE SMOOTH",
"34 361 OFFCURVE",
"58 333 OFFCURVE",
"90 333 CURVE SMOOTH",
"118 333 OFFCURVE",
"139 354 OFFCURVE",
"139 381 CURVE SMOOTH",
"139 404 OFFCURVE",
"122 423 OFFCURVE",
"98 426 CURVE",
"93 407 LINE",
"109 437 OFFCURVE",
"139 458 OFFCURVE",
"181 458 CURVE SMOOTH",
"227 458 OFFCURVE",
"251 433 OFFCURVE",
"251 395 CURVE SMOOTH",
"251 331 OFFCURVE",
"183 272 OFFCURVE",
"51 272 CURVE",
"98 208 LINE",
"246 182 OFFCURVE",
"323 112 OFFCURVE",
"350 0 CURVE"
);
}
);
width = 445;
},
{
layerId = "A309AC34-D742-49E2-8DE7-30304959F2B2";
name = Bold;
paths = (
{
closed = 1;
nodes = (
"438 0 LINE",
"438 456 LINE",
"518 456 LINE",
"518 521 LINE",
"358 521 LINE",
"358 72 LINE",
"411 24 LINE",
"365 137 OFFCURVE",
"267 219 OFFCURVE",
"139 254 CURVE",
"166 194 LINE",
"281 210 OFFCURVE",
"328 285 OFFCURVE",
"328 360 CURVE SMOOTH",
"328 447 OFFCURVE",
"263 529 OFFCURVE",
"161 529 CURVE SMOOTH",
"78 529 OFFCURVE",
"22 474 OFFCURVE",
"22 409 CURVE SMOOTH",
"22 357 OFFCURVE",
"57 321 OFFCURVE",
"101 321 CURVE SMOOTH",
"140 321 OFFCURVE",
"170 349 OFFCURVE",
"170 385 CURVE SMOOTH",
"170 420 OFFCURVE",
"141 449 OFFCURVE",
"96 449 CURVE",
"99 385 LINE",
"121 422 OFFCURVE",
"154 449 OFFCURVE",
"197 449 CURVE SMOOTH",
"231 449 OFFCURVE",
"253 432 OFFCURVE",
"253 400 CURVE SMOOTH",
"253 339 OFFCURVE",
"186 277 OFFCURVE",
"44 277 CURVE",
"121 153 LINE",
"275 130 OFFCURVE",
"347 80 OFFCURVE",
"378 0 CURVE"
);
}
);
width = 490;
}
);
},
{
glyphname = bDa;
lastChange = "2016-03-06 15:27:54 +0000";
layers = (
{
layerId = "F2EBC5D5-DDE2-4851-B52F-F2293ECE9CC7";
name = Light;
paths = (
{
closed = 1;
nodes = (
"295 -5 LINE",
"285 54 OFFCURVE",
"280 113 OFFCURVE",
"280 149 CURVE SMOOTH",
"280 226 OFFCURVE",
"302 287 OFFCURVE",
"357 350 CURVE",
"300 406 LINE",
"205 375 OFFCURVE",
"123 307 OFFCURVE",
"73 231 CURVE",
"84 220 LINE",
"84 467 LINE",
"44 467 LINE",
"44 209 LINE",
"91 148 LINE",
"145 240 OFFCURVE",
"212 302 OFFCURVE",
"282 335 CURVE",
"291 357 LINE",
"262 320 OFFCURVE",
"243 256 OFFCURVE",
"243 180 CURVE SMOOTH",
"243 128 OFFCURVE",
"252 59 OFFCURVE",
"269 -10 CURVE"
);
},
{
closed = 1;
nodes = (
"387 456 LINE",
"387 491 LINE",
"-10 491 LINE",
"-10 456 LINE"
);
}
);
width = 377;
},
{
layerId = "A309AC34-D742-49E2-8DE7-30304959F2B2";
name = Bold;
paths = (
{
closed = 1;
nodes = (
"347 -4 LINE",
"338 48 OFFCURVE",
"334 99 OFFCURVE",
"334 134 CURVE SMOOTH",
"334 211 OFFCURVE",
"354 265 OFFCURVE",
"417 330 CURVE",
"320 417 LINE",
"220 386 OFFCURVE",
"131 317 OFFCURVE",
"79 237 CURVE",
"124 190 LINE",
"124 467 LINE",
"44 467 LINE",
"44 209 LINE",
"131 118 LINE",
"191 210 OFFCURVE",
"267 272 OFFCURVE",
"342 305 CURVE",
"317 375 LINE",
"279 336 OFFCURVE",
"262 267 OFFCURVE",
"262 192 CURVE SMOOTH",
"262 132 OFFCURVE",
"273 60 OFFCURVE",
"289 -13 CURVE"
);
},
{
closed = 1;
nodes = (
"472 456 LINE",
"472 521 LINE",
"-30 521 LINE",
"-30 456 LINE"
);
}
);
width = 442;
}
);
},
{
glyphname = bDha;
lastChange = "2016-02-22 17:28:18 +0000";
layers = (
{
layerId = "F2EBC5D5-DDE2-4851-B52F-F2293ECE9CC7";
name = Light;
paths = (
{
closed = 1;
nodes = (
"321 0 LINE",
"321 456 LINE",
"401 456 LINE",
"401 491 LINE",
"281 491 LINE",
"281 62 LINE",
"291 78 LINE",
"245 176 OFFCURVE",
"156 227 OFFCURVE",
"60 253 CURVE",
"56 225 LINE",
"131 287 OFFCURVE",
"207 335 OFFCURVE",
"289 378 CURVE",
"289 439 LINE",
"192 385 OFFCURVE",
"103 330 OFFCURVE",
"17 260 CURVE",
"71 192 LINE",
"202 169 OFFCURVE",
"286 87 OFFCURVE",
"296 0 CURVE"
);
},
{
closed = 1;
nodes = (
"159 344 OFFCURVE",
"168 345 OFFCURVE",
"178 347 CURVE",
"198 386 LINE",
"176 376 OFFCURVE",
"162 373 OFFCURVE",
"147 373 CURVE SMOOTH",
"110 373 OFFCURVE",
"87 396 OFFCURVE",
"87 420 CURVE SMOOTH",
"87 442 OFFCURVE",
"106 460 OFFCURVE",
"133 460 CURVE SMOOTH",
"143 460 OFFCURVE",
"158 458 OFFCURVE",
"172 453 CURVE",
"139 491 LINE",
"120 483 OFFCURVE",
"113 465 OFFCURVE",
"113 451 CURVE SMOOTH",
"113 430 OFFCURVE",
"132 415 OFFCURVE",
"153 415 CURVE SMOOTH",
"175 415 OFFCURVE",
"194 432 OFFCURVE",
"194 456 CURVE SMOOTH",
"194 485 OFFCURVE",
"166 509 OFFCURVE",
"125 509 CURVE SMOOTH",
"78 509 OFFCURVE",
"43 476 OFFCURVE",
"43 432 CURVE SMOOTH",
"43 381 OFFCURVE",
"92 344 OFFCURVE",
"150 344 CURVE SMOOTH"
);
}
);
width = 391;
},
{
layerId = "A309AC34-D742-49E2-8DE7-30304959F2B2";
name = Bold;
paths = (
{
closed = 1;
nodes = (
"379 0 LINE",
"379 456 LINE",
"459 456 LINE",
"459 521 LINE",
"299 521 LINE",
"299 62 LINE",
"349 38 LINE",
"293 164 OFFCURVE",
"185 230 OFFCURVE",
"68 263 CURVE",
"94 195 LINE",
"175 250 OFFCURVE",
"258 292 OFFCURVE",
"347 330 CURVE",
"317 439 LINE",
"209 391 OFFCURVE",
"110 342 OFFCURVE",
"15 280 CURVE",
"99 142 LINE",
"230 128 OFFCURVE",
"304 65 OFFCURVE",
"319 0 CURVE"
);
},
{
closed = 1;
nodes = (
"212 326 OFFCURVE",
"228 330 OFFCURVE",
"246 339 CURVE",
"229 398 LINE",
"203 386 OFFCURVE",
"194 383 OFFCURVE",
"179 383 CURVE SMOOTH",
"139 383 OFFCURVE",
"126 406 OFFCURVE",
"126 423 CURVE SMOOTH",
"126 444 OFFCURVE",
"145 464 OFFCURVE",
"180 464 CURVE SMOOTH",
"191 464 OFFCURVE",
"206 462 OFFCURVE",
"220 457 CURVE",
"153 501 LINE",
"134 493 OFFCURVE",
"127 475 OFFCURVE",
"127 461 CURVE SMOOTH",
"127 434 OFFCURVE",
"152 415 OFFCURVE",
"180 415 CURVE SMOOTH",
"210 415 OFFCURVE",
"237 436 OFFCURVE",
"237 470 CURVE SMOOTH",
"237 507 OFFCURVE",
"206 541 OFFCURVE",
"153 541 CURVE SMOOTH",
"98 541 OFFCURVE",
"47 503 OFFCURVE",
"47 444 CURVE SMOOTH",
"47 377 OFFCURVE",
"115 326 OFFCURVE",
"191 326 CURVE SMOOTH"
);
}
);
width = 429;
}
);
},
{
glyphname = bNa;
lastChange = "2016-03-05 07:11:35 +0000";
layers = (
{
layerId = "F2EBC5D5-DDE2-4851-B52F-F2293ECE9CC7";
name = Light;
paths = (
{
closed = 1;
nodes = (
"349 0 LINE",
"349 467 LINE",
"309 467 LINE",
"309 151 LINE",
"334 93 LINE",
"301 241 OFFCURVE",
"233 337 OFFCURVE",
"134 337 CURVE SMOOTH",
"66 337 OFFCURVE",
"25 291 OFFCURVE",
"25 240 CURVE SMOOTH",
"25 192 OFFCURVE",
"63 157 OFFCURVE",
"106 157 CURVE SMOOTH",
"148 157 OFFCURVE",
"178 189 OFFCURVE",
"178 230 CURVE SMOOTH",
"178 268 OFFCURVE",
"154 292 OFFCURVE",
"119 306 CURVE",
"101 271 LINE",
"116 279 OFFCURVE",
"130 283 OFFCURVE",
"148 283 CURVE SMOOTH",
"243 283 OFFCURVE",
"310 165 OFFCURVE",
"324 0 CURVE"
);
},
{
closed = 1;
nodes = (
"429 456 LINE",
"429 491 LINE",
"-10 491 LINE",
"-10 456 LINE"
);
}
);
width = 419;
},
{
layerId = "A309AC34-D742-49E2-8DE7-30304959F2B2";
name = Bold;
paths = (
{
closed = 1;
nodes = (
"399 0 LINE",
"399 467 LINE",
"319 467 LINE",
"319 151 LINE",
"384 63 LINE",
"344 251 OFFCURVE",
"266 373 OFFCURVE",
"145 373 CURVE SMOOTH",
"61 373 OFFCURVE",
"11 315 OFFCURVE",
"11 248 CURVE SMOOTH",
"11 182 OFFCURVE",
"60 135 OFFCURVE",
"119 135 CURVE SMOOTH",
"175 135 OFFCURVE",
"216 178 OFFCURVE",
"216 233 CURVE SMOOTH",
"216 278 OFFCURVE",
"189 308 OFFCURVE",
"149 326 CURVE",
"151 241 LINE",
"165 248 OFFCURVE",
"180 251 OFFCURVE",
"194 251 CURVE SMOOTH",
"275 251 OFFCURVE",
"319 147 OFFCURVE",
"343 0 CURVE"
);
},
{
closed = 1;
nodes = (
"479 456 LINE",
"479 521 LINE",
"-30 521 LINE",
"-30 456 LINE"
);
}
);
width = 449;
}
);
},
{
glyphname = bPa;
lastChange = "2016-02-22 17:28:18 +0000";
layers = (
{
layerId = "F2EBC5D5-DDE2-4851-B52F-F2293ECE9CC7";
name = Light;
paths = (
{
closed = 1;
nodes = (
"326 378 LINE",
"292 422 LINE",
"139 290 LINE",
"165 280 LINE",
"170 291 OFFCURVE",
"172 303 OFFCURVE",
"172 314 CURVE SMOOTH",
"172 356 OFFCURVE",
"139 392 OFFCURVE",
"95 392 CURVE SMOOTH",
"83 392 OFFCURVE",
"69 389 OFFCURVE",
"55 381 CURVE",
"76 362 LINE",
"111 424 OFFCURVE",
"157 451 OFFCURVE",
"201 451 CURVE SMOOTH",
"276 451 OFFCURVE",
"335 355 OFFCURVE",
"381 259 CURVE",
"385 313 LINE",
"318 443 OFFCURVE",
"259 498 OFFCURVE",
"186 498 CURVE SMOOTH",
"96 498 OFFCURVE",
"16 413 OFFCURVE",
"16 363 CURVE SMOOTH",
"16 342 OFFCURVE",
"31 327 OFFCURVE",
"46 327 CURVE SMOOTH",
"68 327 OFFCURVE",
"85 356 OFFCURVE",
"110 356 CURVE SMOOTH",
"131 356 OFFCURVE",
"142 343 OFFCURVE",
"142 322 CURVE SMOOTH",
"142 304 OFFCURVE",
"134 286 OFFCURVE",
"117 270 CURVE SMOOTH",
"85 244 LINE",
"133 202 LINE"
);
},
{
closed = 1;
nodes = (
"417 0 LINE",
"417 456 LINE",
"497 456 LINE",
"497 491 LINE",
"377 491 LINE",
"377 0 LINE"
);
}
);
width = 487;
},
{
layerId = "A309AC34-D742-49E2-8DE7-30304959F2B2";
name = Bold;
paths = (
{
closed = 1;
nodes = (
"396 344 LINE",
"332 416 LINE",
"183 289 LINE",
"232 250 LINE",
"237 261 OFFCURVE",
"239 273 OFFCURVE",
"239 286 CURVE SMOOTH",
"239 344 OFFCURVE",
"200 394 OFFCURVE",
"135 394 CURVE SMOOTH",
"119 394 OFFCURVE",
"102 391 OFFCURVE",
"85 383 CURVE",
"106 332 LINE",
"141 414 OFFCURVE",
"199 444 OFFCURVE",
"240 444 CURVE SMOOTH",
"319 444 OFFCURVE",
"384 336 OFFCURVE",
"432 225 CURVE",
"465 273 LINE",
"386 473 OFFCURVE",
"293 530 OFFCURVE",
"207 530 CURVE SMOOTH",
"99 530 OFFCURVE",
"10 439 OFFCURVE",
"10 366 CURVE SMOOTH",
"10 323 OFFCURVE",
"41 299 OFFCURVE",
"68 299 CURVE SMOOTH",
"101 299 OFFCURVE",
"116 334 OFFCURVE",
"148 334 CURVE SMOOTH",
"165 334 OFFCURVE",
"174 324 OFFCURVE",
"174 307 CURVE SMOOTH",
"174 290 OFFCURVE",
"165 271 OFFCURVE",
"136 247 CURVE SMOOTH",
"104 221 LINE",
"193 147 LINE"
);
},
{
closed = 1;
nodes = (
"507 0 LINE",
"507 456 LINE",
"587 456 LINE",
"587 521 LINE",
"427 521 LINE",
"427 0 LINE"
);
}
);
width = 557;
}
);
},
{
glyphname = bPha;
lastChange = "2016-02-22 17:28:18 +0000";
layers = (
{
layerId = "F2EBC5D5-DDE2-4851-B52F-F2293ECE9CC7";
name = Light;
paths = (
{
closed = 1;
nodes = (
"334 0 LINE",
"334 367 LINE",
"380 367 LINE SMOOTH",
"437 367 OFFCURVE",
"468 340 OFFCURVE",
"468 302 CURVE SMOOTH",
"468 284 OFFCURVE",
"461 270 OFFCURVE",
"449 257 CURVE",
"470 247 LINE",
"470 277 OFFCURVE",
"448 296 OFFCURVE",
"421 296 CURVE SMOOTH",
"392 296 OFFCURVE",
"372 275 OFFCURVE",
"372 248 CURVE SMOOTH",
"372 218 OFFCURVE",
"396 198 OFFCURVE",
"425 198 CURVE SMOOTH",
"467 198 OFFCURVE",
"497 240 OFFCURVE",
"497 289 CURVE SMOOTH",
"497 358 OFFCURVE",
"437 412 OFFCURVE",
"360 412 CURVE",
"294 412 LINE",
"294 72 LINE",
"304 75 LINE",
"268 150 OFFCURVE",
"184 221 OFFCURVE",
"72 254 CURVE",
"79 227 LINE",
"229 341 LINE",
"183 394 OFFCURVE",
"132 441 OFFCURVE",
"77 482 CURVE",
"78 456 LINE",
"541 456 LINE",
"541 491 LINE",
"-10 491 LINE",
"-10 456 LINE",
"68 456 LINE",
"17 477 LINE",
"19 442 OFFCURVE",
"35 436 OFFCURVE",
"86 418 CURVE SMOOTH",
"123 405 OFFCURVE",
"146 395 OFFCURVE",
"186 347 CURVE",
"183 375 LINE",
"27 260 LINE",
"74 198 LINE",
"196 175 OFFCURVE",
"287 107 OFFCURVE",
"309 0 CURVE"
);
}
);
width = 531;
},
{
layerId = "A309AC34-D742-49E2-8DE7-30304959F2B2";
name = Bold;
paths = (
{
closed = 1;
nodes = (
"378 0 LINE",
"378 337 LINE",
"417 337 LINE SMOOTH",
"472 337 OFFCURVE",
"498 322 OFFCURVE",
"498 292 CURVE SMOOTH",
"498 279 OFFCURVE",
"493 261 OFFCURVE",
"483 247 CURVE",
"534 197 LINE",
"534 251 OFFCURVE",
"505 284 OFFCURVE",
"463 284 CURVE SMOOTH",
"425 284 OFFCURVE",
"398 256 OFFCURVE",
"398 219 CURVE SMOOTH",
"398 178 OFFCURVE",
"430 149 OFFCURVE",
"473 149 CURVE SMOOTH",
"526 149 OFFCURVE",
"568 193 OFFCURVE",
"568 261 CURVE SMOOTH",
"568 352 OFFCURVE",
"493 423 OFFCURVE",
"384 423 CURVE",
"298 423 LINE",
"298 72 LINE",
"348 35 LINE",
"306 131 OFFCURVE",
"208 222 OFFCURVE",
"78 264 CURVE",
"105 187 LINE",
"273 311 LINE",
"224 375 OFFCURVE",
"169 432 OFFCURVE",
"111 482 CURVE",
"102 456 LINE",
"628 456 LINE",
"628 521 LINE",
"-30 521 LINE",
"-30 456 LINE",
"92 456 LINE",
"1 477 LINE",
"3 413 OFFCURVE",
"32 397 OFFCURVE",
"70 388 CURVE SMOOTH",
"127 375 OFFCURVE",
"138 390 OFFCURVE",
"230 317 CURVE",
"182 385 LINE",
"13 270 LINE",
"100 148 LINE",
"216 131 OFFCURVE",
"292 79 OFFCURVE",
"318 0 CURVE"
);
}
);
width = 598;
}
);
},
{
glyphname = bBa;
lastChange = "2016-03-10 12:48:10 +0000";
layers = (
{
background = {
paths = (
{
closed = 1;
nodes = (
"394 628 OFFCURVE",
"365 602 OFFCURVE",
"321 602 CURVE SMOOTH",
"280 602 OFFCURVE",
"247 625 OFFCURVE",
"220 687 CURVE",
"199 677 LINE",
"232 599 OFFCURVE",
"271 560 OFFCURVE",
"326 560 CURVE SMOOTH",
"383 560 OFFCURVE",
"417 601 OFFCURVE",
"442 673 CURVE",
"416 684 LINE"
);
},
{
closed = 1;
nodes = (
"305 652 OFFCURVE",
"289 668 OFFCURVE",
"289 688 CURVE SMOOTH",
"289 707 OFFCURVE",
"305 723 OFFCURVE",
"324 723 CURVE SMOOTH",
"344 723 OFFCURVE",
"360 707 OFFCURVE",
"360 688 CURVE SMOOTH",
"360 668 OFFCURVE",
"344 652 OFFCURVE",
"324 652 CURVE SMOOTH"
);
}
);
};
guideLines = (
{
angle = 90;
position = "{324, 563}";
}
);
layerId = "F2EBC5D5-DDE2-4851-B52F-F2293ECE9CC7";
name = Light;
paths = (
{
closed = 1;
nodes = (
"344 0 LINE",
"344 466 LINE",
"304 466 LINE",
"304 72 LINE",
"313 79 LINE",
"274 173 OFFCURVE",
"169 247 OFFCURVE",
"81 273 CURVE",
"84 253 LINE",
"153 310 OFFCURVE",
"240 357 OFFCURVE",
"328 384 CURVE",
"322 436 LINE",
"235 416 OFFCURVE",
"113 355 OFFCURVE",
"25 283 CURVE",
"77 214 LINE",
"184 197 OFFCURVE",
"299 118 OFFCURVE",
"319 0 CURVE"
);
},
{
closed = 1;
nodes = (
"424 456 LINE",
"424 491 LINE",
"-10 491 LINE",
"-10 456 LINE"
);
}
);
width = 414;
},
{
layerId = "A309AC34-D742-49E2-8DE7-30304959F2B2";
name = Bold;
paths = (
{
closed = 1;
nodes = (
"384 0 LINE",
"384 466 LINE",
"304 466 LINE",
"304 72 LINE",
"353 39 LINE",
"307 157 OFFCURVE",
"204 251 OFFCURVE",
"81 283 CURVE",
"94 213 LINE",
"171 268 OFFCURVE",
"269 312 OFFCURVE",
"368 338 CURVE",
"332 444 LINE",
"233 424 OFFCURVE",
"95 364 OFFCURVE",
"-5 293 CURVE",
"87 164 LINE",
"203 153 OFFCURVE",
"288 106 OFFCURVE",
"324 0 CURVE"
);
},
{
closed = 1;
nodes = (
"464 456 LINE",
"464 521 LINE",
"-30 521 LINE",
"-30 456 LINE"
);
}
);
width = 434;
}
);
},
{
glyphname = bBha;
lastChange = "2016-02-22 17:28:17 +0000";
layers = (
{
layerId = "F2EBC5D5-DDE2-4851-B52F-F2293ECE9CC7";
name = Light;
paths = (
{
closed = 1;
nodes = (
"401 46 OFFCURVE",
"477 121 OFFCURVE",
"477 225 CURVE SMOOTH",
"477 293 OFFCURVE",
"444 355 OFFCURVE",
"389 397 CURVE",
"360 345 OFFCURVE",
"315 310 OFFCURVE",
"268 310 CURVE SMOOTH",
"257 310 OFFCURVE",
"247 312 OFFCURVE",
"238 317 CURVE",
"260 296 LINE",
"273 303 OFFCURVE",
"285 318 OFFCURVE",
"285 344 CURVE SMOOTH",
"285 384 OFFCURVE",
"255 403 OFFCURVE",
"225 403 CURVE SMOOTH",
"190 403 OFFCURVE",
"162 376 OFFCURVE",
"162 338 CURVE SMOOTH",
"162 289 OFFCURVE",
"206 250 OFFCURVE",
"270 250 CURVE SMOOTH",
"340 250 OFFCURVE",
"398 297 OFFCURVE",
"429 348 CURVE",
"396 339 LINE",
"421 324 OFFCURVE",
"437 290 OFFCURVE",
"437 248 CURVE",
"437 172 OFFCURVE",
"382 105 OFFCURVE",
"296 105 CURVE SMOOTH",
"183 105 OFFCURVE",
"97 221 OFFCURVE",
"32 414 CURVE",
"7 405 LINE",
"78 194 OFFCURVE",
"175 46 OFFCURVE",
"307 46 CURVE SMOOTH"
);
},
{
closed = 1;
nodes = (
"525 456 LINE",
"525 491 LINE",
"-10 491 LINE",
"-10 456 LINE"
);
}
);
width = 515;
},
{
layerId = "A309AC34-D742-49E2-8DE7-30304959F2B2";
name = Bold;
paths = (
{
closed = 1;
nodes = (
"426 31 OFFCURVE",
"496 110 OFFCURVE",
"496 218 CURVE SMOOTH",
"496 303 OFFCURVE",
"453 383 OFFCURVE",
"396 422 CURVE",
"362 367 OFFCURVE",
"314 330 OFFCURVE",
"270 330 CURVE SMOOTH",
"260 330 OFFCURVE",
"247 332 OFFCURVE",
"237 337 CURVE",
"274 276 LINE",
"296 292 OFFCURVE",
"309 315 OFFCURVE",
"309 344 CURVE SMOOTH",
"309 395 OFFCURVE",
"270 423 OFFCURVE",
"230 423 CURVE SMOOTH",
"184 423 OFFCURVE",
"146 387 OFFCURVE",
"146 338 CURVE SMOOTH",
"146 282 OFFCURVE",
"195 226 OFFCURVE",
"274 226 CURVE SMOOTH",
"349 226 OFFCURVE",
"418 277 OFFCURVE",
"451 333 CURVE",
"379 336 LINE",
"399 326 OFFCURVE",
"422 300 OFFCURVE",
"422 259 CURVE SMOOTH",
"422 197 OFFCURVE",
"372 150 OFFCURVE",
"296 150 CURVE SMOOTH",
"189 150 OFFCURVE",
"112 242 OFFCURVE",
"52 424 CURVE",
"-5 405 LINE",
"74 151 OFFCURVE",
"192 31 OFFCURVE",
"321 31 CURVE SMOOTH"
);
},
{
closed = 1;
nodes = (
"560 456 LINE",
"560 521 LINE",
"-30 521 LINE",
"-30 456 LINE"
);
}
);
width = 530;
}
);
},
{
glyphname = bMa;
lastChange = "2016-02-22 17:28:17 +0000";
layers = (
{
layerId = "F2EBC5D5-DDE2-4851-B52F-F2293ECE9CC7";
name = Light;
paths = (
{
closed = 1;
nodes = (
"346 0 LINE",
"346 467 LINE",
"306 467 LINE",
"306 82 LINE",
"310 96 LINE",
"290 151 OFFCURVE",
"251 198 OFFCURVE",
"199 234 CURVE",
"208 194 LINE",
"219 213 OFFCURVE",
"223 237 OFFCURVE",
"223 258 CURVE SMOOTH",
"223 303 OFFCURVE",
"204 339 OFFCURVE",
"145 387 CURVE SMOOTH",
"111 414 OFFCURVE",
"85 433 OFFCURVE",
"85 465 CURVE",
"15 469 LINE",
"23 419 OFFCURVE",
"43 405 OFFCURVE",
"98 375 CURVE SMOOTH",
"155 344 OFFCURVE",
"184 328 OFFCURVE",
"184 292 CURVE SMOOTH",
"184 270 OFFCURVE",
"173 251 OFFCURVE",
"160 240 CURVE",
"210 226 LINE",
"186 253 OFFCURVE",
"157 269 OFFCURVE",
"127 269 CURVE SMOOTH",
"88 269 OFFCURVE",
"53 242 OFFCURVE",
"53 199 CURVE SMOOTH",
"53 160 OFFCURVE",
"83 129 OFFCURVE",
"126 129 CURVE SMOOTH",
"164 129 OFFCURVE",
"193 154 OFFCURVE",
"209 192 CURVE",
"175 184 LINE",
"245 167 OFFCURVE",
"313 82 OFFCURVE",
"321 0 CURVE"
);
},
{
closed = 1;
nodes = (
"426 456 LINE",
"426 491 LINE",
"-10 491 LINE",
"-10 456 LINE"
);
}
);
width = 416;
},
{
layerId = "A309AC34-D742-49E2-8DE7-30304959F2B2";
name = Bold;
paths = (
{
closed = 1;
nodes = (
"386 0 LINE",
"386 467 LINE",
"306 467 LINE",
"306 82 LINE",
"347 46 LINE",
"323 130 OFFCURVE",
"272 207 OFFCURVE",
"203 251 CURVE",
"234 175 LINE",
"243 194 OFFCURVE",
"249 217 OFFCURVE",
"249 244 CURVE SMOOTH",
"249 297 OFFCURVE",
"226 327 OFFCURVE",
"178 371 CURVE SMOOTH",
"140 405 OFFCURVE",
"117 427 OFFCURVE",
"117 475 CURVE",
"-10 479 LINE",
"-10 420 OFFCURVE",
"18 393 OFFCURVE",
"83 363 CURVE SMOOTH",
"146 334 OFFCURVE",
"169 322 OFFCURVE",
"169 292 CURVE SMOOTH",
"169 274 OFFCURVE",
"160 260 OFFCURVE",
"150 250 CURVE",
"230 233 LINE",
"203 263 OFFCURVE",
"170 283 OFFCURVE",
"130 283 CURVE SMOOTH",
"77 283 OFFCURVE",
"36 247 OFFCURVE",
"36 194 CURVE SMOOTH",
"36 140 OFFCURVE",
"78 102 OFFCURVE",
"132 102 CURVE SMOOTH",
"185 102 OFFCURVE",
"222 140 OFFCURVE",
"234 173 CURVE",
"185 150 LINE",
"262 132 OFFCURVE",
"310 73 OFFCURVE",
"326 0 CURVE"
);
},
{
closed = 1;
nodes = (
"466 456 LINE",
"466 521 LINE",
"-30 521 LINE",
"-30 456 LINE"
);
}
);
width = 436;
}
);
},
{
glyphname = bYa;
lastChange = "2016-02-22 17:28:18 +0000";
layers = (
{
layerId = "F2EBC5D5-DDE2-4851-B52F-F2293ECE9CC7";
name = Light;
paths = (
{
closed = 1;
nodes = (
"334 0 LINE",
"334 467 LINE",
"294 467 LINE",
"294 72 LINE",
"304 75 LINE",
"268 150 OFFCURVE",
"184 221 OFFCURVE",
"72 254 CURVE",
"79 227 LINE",
"229 341 LINE",
"183 394 OFFCURVE",
"132 441 OFFCURVE",
"77 482 CURVE",
"78 456 LINE",
"414 456 LINE",
"414 491 LINE",
"-10 491 LINE",
"-10 456 LINE",
"68 456 LINE",
"17 477 LINE",
"18 444 OFFCURVE",
"41 432 OFFCURVE",
"86 418 CURVE SMOOTH",
"126 405 OFFCURVE",
"150 390 OFFCURVE",
"186 347 CURVE",
"183 375 LINE",
"27 260 LINE",
"74 198 LINE",
"196 175 OFFCURVE",
"287 107 OFFCURVE",
"309 0 CURVE"
);
}
);
width = 404;
},
{
layerId = "A309AC34-D742-49E2-8DE7-30304959F2B2";
name = Bold;
paths = (
{
closed = 1;
nodes = (
"378 0 LINE",
"378 467 LINE",
"298 467 LINE",
"298 72 LINE",
"348 35 LINE",
"306 131 OFFCURVE",
"208 222 OFFCURVE",
"78 264 CURVE",
"105 187 LINE",
"273 311 LINE",
"224 375 OFFCURVE",
"169 432 OFFCURVE",
"111 482 CURVE",
"102 456 LINE",
"458 456 LINE",
"458 521 LINE",
"-30 521 LINE",
"-30 456 LINE",
"92 456 LINE",
"1 477 LINE",
"2 420 OFFCURVE",
"30 395 OFFCURVE",
"70 388 CURVE SMOOTH",
"137 377 OFFCURVE",
"158 375 OFFCURVE",
"230 317 CURVE",
"182 385 LINE",
"13 270 LINE",
"100 148 LINE",
"216 131 OFFCURVE",
"292 79 OFFCURVE",
"318 0 CURVE"
);
}
);
width = 428;
}
);
},
{
glyphname = bRa;
lastChange = "2016-02-22 17:28:18 +0000";
layers = (
{
layerId = "F2EBC5D5-DDE2-4851-B52F-F2293ECE9CC7";
name = Light;
paths = (
{
closed = 1;
nodes = (
"344 0 LINE",
"344 466 LINE",
"304 466 LINE",
"304 72 LINE",
"313 79 LINE",
"274 173 OFFCURVE",
"169 247 OFFCURVE",
"81 273 CURVE",
"84 253 LINE",
"153 310 OFFCURVE",
"240 357 OFFCURVE",
"328 384 CURVE",
"322 436 LINE",
"235 416 OFFCURVE",
"113 355 OFFCURVE",
"25 283 CURVE",
"77 214 LINE",
"184 197 OFFCURVE",
"299 118 OFFCURVE",
"319 0 CURVE"
);
},
{
closed = 1;
nodes = (
"156 42 OFFCURVE",
"174 60 OFFCURVE",
"174 82 CURVE SMOOTH",
"174 104 OFFCURVE",
"156 122 OFFCURVE",
"134 122 CURVE SMOOTH",
"112 122 OFFCURVE",
"94 104 OFFCURVE",
"94 82 CURVE SMOOTH",
"94 60 OFFCURVE",
"112 42 OFFCURVE",
"134 42 CURVE SMOOTH"
);
},
{
closed = 1;
nodes = (
"424 456 LINE",
"424 491 LINE",
"-10 491 LINE",
"-10 456 LINE"
);
}
);
width = 414;
},
{
layerId = "A309AC34-D742-49E2-8DE7-30304959F2B2";
name = Bold;
paths = (
{
closed = 1;
nodes = (
"384 0 LINE",
"384 466 LINE",
"304 466 LINE",
"304 72 LINE",
"353 39 LINE",
"307 157 OFFCURVE",
"204 251 OFFCURVE",
"81 283 CURVE",
"94 213 LINE",
"171 268 OFFCURVE",
"269 312 OFFCURVE",
"368 338 CURVE",
"332 444 LINE",
"233 424 OFFCURVE",
"95 364 OFFCURVE",
"-5 293 CURVE",
"87 164 LINE",
"203 153 OFFCURVE",
"288 106 OFFCURVE",
"324 0 CURVE"
);
},
{
closed = 1;
nodes = (
"192 -20 OFFCURVE",
"221 9 OFFCURVE",
"221 45 CURVE SMOOTH",
"221 81 OFFCURVE",
"192 110 OFFCURVE",
"156 110 CURVE SMOOTH",
"120 110 OFFCURVE",
"91 81 OFFCURVE",
"91 45 CURVE SMOOTH",
"91 9 OFFCURVE",
"120 -20 OFFCURVE",
"156 -20 CURVE SMOOTH"
);
},
{
closed = 1;
nodes = (
"464 456 LINE",
"464 521 LINE",
"-30 521 LINE",
"-30 456 LINE"
);
}
);
width = 434;
}
);
},
{
glyphname = bLa;
lastChange = "2016-02-22 17:28:18 +0000";
layers = (
{
layerId = "F2EBC5D5-DDE2-4851-B52F-F2293ECE9CC7";
name = Light;
paths = (
{
closed = 1;
nodes = (
"208 132 OFFCURVE",
"238 165 OFFCURVE",
"238 201 CURVE SMOOTH",
"238 234 OFFCURVE",
"213 259 OFFCURVE",
"181 259 CURVE SMOOTH",
"151 259 OFFCURVE",
"128 235 OFFCURVE",
"128 208 CURVE SMOOTH",
"128 182 OFFCURVE",
"147 163 OFFCURVE",
"167 156 CURVE",
"179 175 LINE",
"170 171 OFFCURVE",
"162 168 OFFCURVE",
"150 168 CURVE SMOOTH",
"107 168 OFFCURVE",
"68 205 OFFCURVE",
"68 252 CURVE SMOOTH",
"68 298 OFFCURVE",
"105 338 OFFCURVE",
"159 338 CURVE SMOOTH",
"207 338 OFFCURVE",
"247 306 OFFCURVE",
"266 248 CURVE",
"287 248 LINE",
"287 308 OFFCURVE",
"303 338 OFFCURVE",
"327 338 CURVE SMOOTH",
"360 338 OFFCURVE",
"386 279 OFFCURVE",
"391 240 CURVE",
"392 307 LINE",
"376 358 OFFCURVE",
"340 393 OFFCURVE",
"306 393 CURVE SMOOTH",
"272 393 OFFCURVE",
"241 356 OFFCURVE",
"239 304 CURVE",
"259 307 LINE",
"234 361 OFFCURVE",
"191 396 OFFCURVE",
"140 396 CURVE SMOOTH",
"80 396 OFFCURVE",
"27 347 OFFCURVE",
"27 277 CURVE SMOOTH",
"27 201 OFFCURVE",
"90 132 OFFCURVE",
"160 132 CURVE SMOOTH"
);
},
{
closed = 1;
nodes = (
"429 0 LINE",
"429 467 LINE",
"389 467 LINE",
"389 0 LINE"
);
},
{
closed = 1;
nodes = (
"509 456 LINE",
"509 491 LINE",
"-10 491 LINE",
"-10 456 LINE"
);
}
);
width = 499;
},
{
layerId = "A309AC34-D742-49E2-8DE7-30304959F2B2";
name = Bold;
paths = (
{
closed = 1;
nodes = (
"221 86 OFFCURVE",
"255 123 OFFCURVE",
"255 167 CURVE SMOOTH",
"255 208 OFFCURVE",
"225 241 OFFCURVE",
"185 241 CURVE SMOOTH",
"148 241 OFFCURVE",
"121 212 OFFCURVE",
"121 178 CURVE SMOOTH",
"121 141 OFFCURVE",
"152 115 OFFCURVE",
"186 115 CURVE",
"174 159 LINE",
"165 155 OFFCURVE",
"156 152 OFFCURVE",
"146 152 CURVE SMOOTH",
"114 152 OFFCURVE",
"90 179 OFFCURVE",
"90 217 CURVE SMOOTH",
"90 262 OFFCURVE",
"125 301 OFFCURVE",
"176 301 CURVE SMOOTH",
"218 301 OFFCURVE",
"257 273 OFFCURVE",
"270 217 CURVE",
"306 217 LINE",
"307 274 OFFCURVE",
"321 301 OFFCURVE",
"350 301 CURVE SMOOTH",
"388 301 OFFCURVE",
"403 250 OFFCURVE",
"409 197 CURVE",
"448 212 LINE",
"424 320 OFFCURVE",
"386 396 OFFCURVE",
"320 396 CURVE SMOOTH",
"272 396 OFFCURVE",
"233 356 OFFCURVE",
"233 289 CURVE",
"290 272 LINE",
"260 352 OFFCURVE",
"215 402 OFFCURVE",
"143 402 CURVE SMOOTH",
"66 402 OFFCURVE",
"5 345 OFFCURVE",
"5 261 CURVE SMOOTH",
"5 168 OFFCURVE",
"80 86 OFFCURVE",
"164 86 CURVE SMOOTH"
);
},
{
closed = 1;
nodes = (
"486 0 LINE",
"486 467 LINE",
"406 467 LINE",
"406 0 LINE"
);
},
{
closed = 1;
nodes = (
"564 456 LINE",
"564 521 LINE",
"-30 521 LINE",
"-30 456 LINE"
);
}
);
width = 534;
}
);
},
{
glyphname = bSha;
lastChange = "2016-02-22 17:28:17 +0000";
layers = (
{
layerId = "F2EBC5D5-DDE2-4851-B52F-F2293ECE9CC7";
name = Light;
paths = (
{
closed = 1;
nodes = (
"129 224 OFFCURVE",
"164 279 OFFCURVE",
"169 342 CURVE",
"153 342 LINE",
"159 274 OFFCURVE",
"196 224 OFFCURVE",
"239 224 CURVE SMOOTH",
"269 224 OFFCURVE",
"292 249 OFFCURVE",
"292 281 CURVE SMOOTH",
"292 319 OFFCURVE",
"260 376 OFFCURVE",
"190 404 CURVE",
"189 363 LINE",
"211 414 OFFCURVE",
"237 443 OFFCURVE",
"263 443 CURVE SMOOTH",
"295 443 OFFCURVE",
"334 398 OFFCURVE",
"365 332 CURVE",
"370 381 LINE",
"334 451 OFFCURVE",
"290 500 OFFCURVE",
"245 500 CURVE SMOOTH",
"207 500 OFFCURVE",
"169 464 OFFCURVE",
"122 375 CURVE",
"158 381 LINE",
"127 461 OFFCURVE",
"87 491 OFFCURVE",
"37 491 CURVE SMOOTH",
"-10 491 LINE",
"-10 456 LINE",
"37 456 LINE SMOOTH",
"80 456 OFFCURVE",
"113 426 OFFCURVE",
"135 368 CURVE",
"143 411 LINE",
"73 380 OFFCURVE",
"30 328 OFFCURVE",
"30 283 CURVE SMOOTH",
"30 250 OFFCURVE",
"52 224 OFFCURVE",
"83 224 CURVE SMOOTH"
);
},
{
closed = 1;
nodes = (
"402 0 LINE",
"402 456 LINE",
"482 456 LINE",
"482 491 LINE",
"362 491 LINE",
"362 0 LINE"
);
}
);
width = 472;
},
{
layerId = "A309AC34-D742-49E2-8DE7-30304959F2B2";
name = Bold;
paths = (
{
closed = 1;
nodes = (
"151 188 OFFCURVE",
"193 246 OFFCURVE",
"199 332 CURVE",
"173 342 LINE",
"170 242 OFFCURVE",
"214 192 OFFCURVE",
"271 192 CURVE SMOOTH",
"314 192 OFFCURVE",
"342 224 OFFCURVE",
"342 266 CURVE SMOOTH",
"342 320 OFFCURVE",
"295 386 OFFCURVE",
"190 422 CURVE",
"213 333 LINE",
"242 415 OFFCURVE",
"267 435 OFFCURVE",
"294 435 CURVE SMOOTH",
"331 435 OFFCURVE",
"362 401 OFFCURVE",
"395 322 CURVE",
"425 371 LINE",
"372 474 OFFCURVE",
"325 530 OFFCURVE",
"260 530 CURVE SMOOTH",
"198 530 OFFCURVE",
"162 480 OFFCURVE",
"112 375 CURVE",
"198 341 LINE",
"164 450 OFFCURVE",
"119 521 OFFCURVE",
"27 521 CURVE SMOOTH",
"-30 521 LINE",
"-30 456 LINE",
"36 456 LINE SMOOTH",
"89 456 OFFCURVE",
"133 416 OFFCURVE",
"155 328 CURVE",
"143 419 LINE",
"64 385 OFFCURVE",
"10 332 OFFCURVE",
"10 271 CURVE SMOOTH",
"10 223 OFFCURVE",
"45 188 OFFCURVE",
"91 188 CURVE SMOOTH"
);
},
{
closed = 1;
nodes = (
"472 0 LINE",
"472 456 LINE",
"552 456 LINE",
"552 521 LINE",
"392 521 LINE",
"392 0 LINE"
);
}
);
width = 522;
}
);
},
{
glyphname = bSsa;
lastChange = "2016-02-22 17:28:18 +0000";
layers = (
{
layerId = "F2EBC5D5-DDE2-4851-B52F-F2293ECE9CC7";
name = Light;
paths = (
{
closed = 1;
nodes = (
"334 0 LINE",
"334 467 LINE",
"294 467 LINE",
"294 72 LINE",
"304 75 LINE",
"268 150 OFFCURVE",
"184 221 OFFCURVE",
"72 254 CURVE",
"79 227 LINE",
"220 334 LINE",
"197 337 LINE",
"234 302 OFFCURVE",
"268 266 OFFCURVE",
"302 226 CURVE",
"317 246 LINE",
"271 304 OFFCURVE",
"142 439 OFFCURVE",
"77 482 CURVE",
"78 456 LINE",
"414 456 LINE",
"414 491 LINE",
"-10 491 LINE",
"-10 456 LINE",
"68 456 LINE",
"17 477 LINE",
"18 444 OFFCURVE",
"42 434 OFFCURVE",
"86 418 CURVE SMOOTH",
"126 404 OFFCURVE",
"150 386 OFFCURVE",
"188 347 CURVE",
"183 375 LINE",
"27 260 LINE",
"74 198 LINE",
"196 175 OFFCURVE",
"287 107 OFFCURVE",
"309 0 CURVE"
);
}
);
width = 404;
},
{
layerId = "A309AC34-D742-49E2-8DE7-30304959F2B2";
name = Bold;
paths = (
{
closed = 1;
nodes = (
"378 0 LINE",
"378 467 LINE",
"298 467 LINE",
"298 72 LINE",
"348 35 LINE",
"306 131 OFFCURVE",
"208 222 OFFCURVE",
"78 264 CURVE",
"105 187 LINE",
"258 300 LINE",
"224 307 LINE",
"265 274 OFFCURVE",
"290 249 OFFCURVE",
"323 208 CURVE",
"352 239 LINE",
"276 338 OFFCURVE",
"185 426 OFFCURVE",
"109 482 CURVE",
"102 456 LINE",
"458 456 LINE",
"458 521 LINE",
"-30 521 LINE",
"-30 456 LINE",
"92 456 LINE",
"1 477 LINE",
"2 420 OFFCURVE",
"30 395 OFFCURVE",
"70 388 CURVE SMOOTH",
"138 377 OFFCURVE",
"159 374 OFFCURVE",
"230 317 CURVE",
"182 385 LINE",
"13 270 LINE",
"100 148 LINE",
"216 131 OFFCURVE",
"292 79 OFFCURVE",
"318 0 CURVE"
);
}
);
width = 428;
}
);
},
{
glyphname = bSa;
lastChange = "2016-03-09 20:46:26 +0000";
layers = (
{
background = {
paths = (
{
closed = 1;
nodes = (
"146 142 OFFCURVE",
"168 171 OFFCURVE",
"209 225 CURVE SMOOTH",
"250 280 OFFCURVE",
"269 298 OFFCURVE",
"293 298 CURVE SMOOTH",
"327 298 OFFCURVE",
"352 267 OFFCURVE",
"367 214 CURVE",
"378 253 LINE",
"355 311 OFFCURVE",
"316 352 OFFCURVE",
"277 352 CURVE SMOOTH",
"247 352 OFFCURVE",
"217 329 OFFCURVE",
"180 281 CURVE SMOOTH",
"122 206 OFFCURVE",
"110 197 OFFCURVE",
"93 197 CURVE SMOOTH",
"75 197 OFFCURVE",
"62 207 OFFCURVE",
"45 246 CURVE",
"25 238 LINE",
"41 183 OFFCURVE",
"78 142 OFFCURVE",
"115 142 CURVE SMOOTH"
);
},
{
closed = 1;
nodes = (
"207 296 OFFCURVE",
"208 309 OFFCURVE",
"208 319 CURVE SMOOTH",
"208 388 OFFCURVE",
"175 440 OFFCURVE",
"107 471 CURVE",
"17 472 LINE",
"28 430 OFFCURVE",
"51 424 OFFCURVE",
"90 415 CURVE SMOOTH",
"156 400 OFFCURVE",
"182 371 OFFCURVE",
"182 321 CURVE SMOOTH",
"182 305 OFFCURVE",
"179 284 OFFCURVE",
"173 271 CURVE",
"202 269 LINE"
);
},
{
closed = 1;
nodes = (
"401 0 LINE",
"401 467 LINE",
"361 467 LINE",
"361 0 LINE"
);
},
{
closed = 1;
nodes = (
"481 456 LINE",
"481 491 LINE",
"-10 491 LINE",
"-10 456 LINE"
);
}
);
};
layerId = "F2EBC5D5-DDE2-4851-B52F-F2293ECE9CC7";
name = Light;
paths = (
{
closed = 1;
nodes = (
"146 142 OFFCURVE",
"168 171 OFFCURVE",
"209 225 CURVE SMOOTH",
"250 280 OFFCURVE",
"269 298 OFFCURVE",
"293 298 CURVE SMOOTH",
"327 298 OFFCURVE",
"352 267 OFFCURVE",
"367 214 CURVE",
"378 253 LINE",
"355 311 OFFCURVE",
"316 352 OFFCURVE",
"277 352 CURVE SMOOTH",
"247 352 OFFCURVE",
"217 329 OFFCURVE",
"180 281 CURVE SMOOTH",
"122 206 OFFCURVE",
"110 197 OFFCURVE",
"93 197 CURVE SMOOTH",
"75 197 OFFCURVE",
"62 207 OFFCURVE",
"45 246 CURVE",
"24 237 LINE",
"45 180 OFFCURVE",
"76 142 OFFCURVE",
"115 142 CURVE SMOOTH"
);
},
{
closed = 1;
nodes = (
"207 296 OFFCURVE",
"208 309 OFFCURVE",
"208 319 CURVE SMOOTH",
"208 388 OFFCURVE",
"175 440 OFFCURVE",
"107 471 CURVE",
"17 472 LINE",
"28 430 OFFCURVE",
"51 424 OFFCURVE",
"90 415 CURVE SMOOTH",
"156 400 OFFCURVE",
"182 371 OFFCURVE",
"182 321 CURVE SMOOTH",
"182 305 OFFCURVE",
"179 284 OFFCURVE",
"173 271 CURVE",
"202 269 LINE"
);
},
{
closed = 1;
nodes = (
"401 0 LINE",
"401 467 LINE",
"361 467 LINE",
"361 0 LINE"
);
},
{
closed = 1;
nodes = (
"481 456 LINE",
"481 491 LINE",
"-10 491 LINE",
"-10 456 LINE"
);
}
);
width = 471;
},
{
layerId = "A309AC34-D742-49E2-8DE7-30304959F2B2";
name = Bold;
paths = (
{
closed = 1;
nodes = (
"173 102 OFFCURVE",
"199 122 OFFCURVE",
"249 185 CURVE SMOOTH",
"288 233 OFFCURVE",
"307 255 OFFCURVE",
"329 255 CURVE SMOOTH",
"354 255 OFFCURVE",
"367 228 OFFCURVE",
"377 174 CURVE",
"410 213 LINE",
"386 302 OFFCURVE",
"350 362 OFFCURVE",
"293 362 CURVE SMOOTH",
"253 362 OFFCURVE",
"221 332 OFFCURVE",
"180 281 CURVE SMOOTH",
"141 232 OFFCURVE",
"119 207 OFFCURVE",
"94 207 CURVE SMOOTH",
"79 207 OFFCURVE",
"66 217 OFFCURVE",
"55 256 CURVE",
"13 238 LINE",
"35 152 OFFCURVE",
"83 102 OFFCURVE",
"134 102 CURVE SMOOTH"
);
},
{
closed = 1;
nodes = (
"243 266 OFFCURVE",
"248 286 OFFCURVE",
"248 310 CURVE SMOOTH",
"248 376 OFFCURVE",
"209 438 OFFCURVE",
"137 471 CURVE",
"17 472 LINE",
"30 397 OFFCURVE",
"63 385 OFFCURVE",
"130 376 CURVE SMOOTH",
"146 374 OFFCURVE",
"192 368 OFFCURVE",
"192 322 CURVE SMOOTH",
"192 304 OFFCURVE",
"185 287 OFFCURVE",
"173 272 CURVE",
"232 249 LINE"
);
},
{
closed = 1;
nodes = (
"451 0 LINE",
"451 467 LINE",
"371 467 LINE",
"371 0 LINE"
);
},
{
closed = 1;
nodes = (
"531 456 LINE",
"531 521 LINE",
"-30 521 LINE",
"-30 456 LINE"
);
}
);
width = 501;
}
);
},
{
glyphname = bHa;
lastChange = "2016-02-22 17:28:17 +0000";
layers = (
{
layerId = "F2EBC5D5-DDE2-4851-B52F-F2293ECE9CC7";
name = Light;
paths = (
{
closed = 1;
nodes = (
"425 0 LINE",
"302 88 OFFCURVE",
"251 119 OFFCURVE",
"167 146 CURVE",
"171 128 LINE",
"279 129 OFFCURVE",
"362 196 OFFCURVE",
"362 280 CURVE SMOOTH",
"362 357 OFFCURVE",
"293 421 OFFCURVE",
"196 421 CURVE SMOOTH",
"118 421 OFFCURVE",
"65 380 OFFCURVE",
"65 330 CURVE SMOOTH",
"65 296 OFFCURVE",
"90 269 OFFCURVE",
"128 269 CURVE SMOOTH",
"173 269 OFFCURVE",
"211 306 OFFCURVE",
"211 356 CURVE SMOOTH",
"211 364 OFFCURVE",
"210 377 OFFCURVE",
"205 390 CURVE",
"176 359 LINE",
"190 368 OFFCURVE",
"209 375 OFFCURVE",
"236 375 CURVE SMOOTH",
"293 375 OFFCURVE",
"324 344 OFFCURVE",
"324 300 CURVE SMOOTH",
"324 235 OFFCURVE",
"258 181 OFFCURVE",
"152 181 CURVE SMOOTH",
"117 181 OFFCURVE",
"69 187 OFFCURVE",
"38 196 CURVE",
"71 121 LINE",
"198 96 OFFCURVE",
"271 71 OFFCURVE",
"409 -19 CURVE"
);
},
{
closed = 1;
nodes = (
"426 456 LINE",
"426 491 LINE",
"-10 491 LINE",
"-10 456 LINE"
);
}
);
width = 416;
},
{
layerId = "A309AC34-D742-49E2-8DE7-30304959F2B2";
name = Bold;
paths = (
{
closed = 1;
nodes = (
"460 -10 LINE",
"319 90 OFFCURVE",
"248 125 OFFCURVE",
"162 156 CURVE",
"202 91 LINE",
"318 91 OFFCURVE",
"407 159 OFFCURVE",
"407 256 CURVE SMOOTH",
"407 352 OFFCURVE",
"319 432 OFFCURVE",
"200 432 CURVE SMOOTH",
"105 432 OFFCURVE",
"40 382 OFFCURVE",
"40 321 CURVE SMOOTH",
"40 275 OFFCURVE",
"77 239 OFFCURVE",
"128 239 CURVE SMOOTH",
"187 239 OFFCURVE",
"236 286 OFFCURVE",
"236 343 CURVE SMOOTH",
"236 357 OFFCURVE",
"233 373 OFFCURVE",
"220 390 CURVE",
"201 329 LINE",
"223 340 OFFCURVE",
"237 348 OFFCURVE",
"263 348 CURVE SMOOTH",
"305 348 OFFCURVE",
"327 326 OFFCURVE",
"327 294 CURVE SMOOTH",
"327 236 OFFCURVE",
"259 186 OFFCURVE",
"148 186 CURVE SMOOTH",
"109 186 OFFCURVE",
"58 192 OFFCURVE",
"19 202 CURVE",
"86 71 LINE",
"213 51 OFFCURVE",
"286 27 OFFCURVE",
"424 -55 CURVE"
);
},
{
closed = 1;
nodes = (
"476 456 LINE",
"476 521 LINE",
"-30 521 LINE",
"-30 456 LINE"
);
}
);
width = 446;
}
);
},
{
glyphname = bRra;
lastChange = "2016-03-10 07:46:32 +0000";
layers = (
{
layerId = "F2EBC5D5-DDE2-4851-B52F-F2293ECE9CC7";
name = Light;
paths = (
{
closed = 1;
nodes = (
"390 24 OFFCURVE",
"453 105 OFFCURVE",
"453 207 CURVE SMOOTH",
"453 285 OFFCURVE",
"416 335 OFFCURVE",
"373 371 CURVE",
"334 299 OFFCURVE",
"285 253 OFFCURVE",
"259 253 CURVE SMOOTH",
"248 253 OFFCURVE",
"243 261 OFFCURVE",
"243 274 CURVE SMOOTH",
"243 466 LINE",
"203 466 LINE",
"203 305 LINE SMOOTH",
"203 257 OFFCURVE",
"241 209 OFFCURVE",
"281 209 CURVE SMOOTH",
"319 209 OFFCURVE",
"372 254 OFFCURVE",
"406 318 CURVE",
"380 317 LINE",
"404 300 OFFCURVE",
"423 270 OFFCURVE",
"423 225 CURVE SMOOTH",
"423 144 OFFCURVE",
"363 82 OFFCURVE",
"278 82 CURVE SMOOTH",
"174 82 OFFCURVE",
"99 178 OFFCURVE",
"45 411 CURVE",
"20 404 LINE",
"79 132 OFFCURVE",
"178 24 OFFCURVE",
"292 24 CURVE SMOOTH"
);
},
{
closed = 1;
nodes = (
"288 -118 OFFCURVE",
"306 -100 OFFCURVE",
"306 -78 CURVE SMOOTH",
"306 -56 OFFCURVE",
"288 -38 OFFCURVE",
"266 -38 CURVE SMOOTH",
"244 -38 OFFCURVE",
"226 -56 OFFCURVE",
"226 -78 CURVE SMOOTH",
"226 -100 OFFCURVE",
"244 -118 OFFCURVE",
"266 -118 CURVE SMOOTH"
);
},
{
closed = 1;
nodes = (
"497 456 LINE",
"497 491 LINE",
"-10 491 LINE",
"-10 456 LINE"
);
}
);
width = 487;
},
{
layerId = "A309AC34-D742-49E2-8DE7-30304959F2B2";
name = Bold;
paths = (
{
closed = 1;
nodes = (
"417 12 OFFCURVE",
"487 87 OFFCURVE",
"487 195 CURVE SMOOTH",
"487 289 OFFCURVE",
"434 360 OFFCURVE",
"380 407 CURVE",
"335 337 OFFCURVE",
"289 295 OFFCURVE",
"266 295 CURVE SMOOTH",
"256 295 OFFCURVE",
"253 303 OFFCURVE",
"253 314 CURVE SMOOTH",
"253 466 LINE",
"173 466 LINE",
"173 349 LINE SMOOTH",
"173 274 OFFCURVE",
"230 194 OFFCURVE",
"293 194 CURVE SMOOTH",
"339 194 OFFCURVE",
"400 236 OFFCURVE",
"432 297 CURVE",
"360 327 LINE",
"398 305 OFFCURVE",
"417 267 OFFCURVE",
"417 232 CURVE SMOOTH",
"417 172 OFFCURVE",
"363 128 OFFCURVE",
"285 128 CURVE SMOOTH",
"193 128 OFFCURVE",
"109 189 OFFCURVE",
"48 422 CURVE",
"-10 404 LINE",
"68 112 OFFCURVE",
"176 12 OFFCURVE",
"305 12 CURVE SMOOTH"
);
},
{
closed = 1;
nodes = (
"326 -150 OFFCURVE",
"355 -121 OFFCURVE",
"355 -85 CURVE SMOOTH",
"355 -49 OFFCURVE",
"326 -20 OFFCURVE",
"290 -20 CURVE SMOOTH",
"254 -20 OFFCURVE",
"225 -49 OFFCURVE",
"225 -85 CURVE SMOOTH",
"225 -121 OFFCURVE",
"254 -150 OFFCURVE",
"290 -150 CURVE SMOOTH"
);
},
{
closed = 1;
nodes = (
"543 456 LINE",
"543 521 LINE",
"-30 521 LINE",
"-30 456 LINE"
);
}
);
width = 513;
}
);
},
{
glyphname = bRha;
lastChange = "2016-03-10 07:47:09 +0000";
layers = (
{
layerId = "F2EBC5D5-DDE2-4851-B52F-F2293ECE9CC7";
name = Light;
paths = (
{
closed = 1;
nodes = (
"228 10 OFFCURVE",
"342 153 OFFCURVE",
"342 256 CURVE SMOOTH",
"342 306 OFFCURVE",
"313 349 OFFCURVE",
"268 349 CURVE SMOOTH",
"234 349 OFFCURVE",
"208 324 OFFCURVE",
"208 293 CURVE SMOOTH",
"208 261 OFFCURVE",
"235 234 OFFCURVE",
"270 234 CURVE SMOOTH",
"285 234 OFFCURVE",
"297 239 OFFCURVE",
"310 250 CURVE",
"290 264 LINE",
"290 182 OFFCURVE",
"197 56 OFFCURVE",
"137 56 CURVE SMOOTH",
"113 56 OFFCURVE",
"102 76 OFFCURVE",
"102 121 CURVE SMOOTH",
"102 467 LINE",
"62 467 LINE",
"62 138 LINE SMOOTH",
"62 63 OFFCURVE",
"109 10 OFFCURVE",
"154 10 CURVE SMOOTH"
);
},
{
closed = 1;
nodes = (
"179 -119 OFFCURVE",
"197 -101 OFFCURVE",
"197 -79 CURVE SMOOTH",
"197 -57 OFFCURVE",
"179 -39 OFFCURVE",
"157 -39 CURVE SMOOTH",
"135 -39 OFFCURVE",
"117 -57 OFFCURVE",
"117 -79 CURVE SMOOTH",
"117 -101 OFFCURVE",
"135 -119 OFFCURVE",
"157 -119 CURVE SMOOTH"
);
},
{
closed = 1;
nodes = (
"382 456 LINE",
"382 491 LINE",
"-10 491 LINE",
"-10 456 LINE"
);
}
);
width = 372;
},
{
layerId = "A309AC34-D742-49E2-8DE7-30304959F2B2";
name = Bold;
paths = (
{
closed = 1;
nodes = (
"262 -1 OFFCURVE",
"387 155 OFFCURVE",
"387 267 CURVE SMOOTH",
"387 333 OFFCURVE",
"343 389 OFFCURVE",
"281 389 CURVE SMOOTH",
"229 389 OFFCURVE",
"193 350 OFFCURVE",
"193 305 CURVE SMOOTH",
"193 260 OFFCURVE",
"230 224 OFFCURVE",
"279 224 CURVE SMOOTH",
"298 224 OFFCURVE",
"313 229 OFFCURVE",
"325 240 CURVE",
"281 294 LINE",
"281 219 OFFCURVE",
"192 95 OFFCURVE",
"140 95 CURVE SMOOTH",
"127 95 OFFCURVE",
"122 103 OFFCURVE",
"122 130 CURVE SMOOTH",
"122 467 LINE",
"42 467 LINE",
"42 167 LINE SMOOTH",
"42 69 OFFCURVE",
"111 -1 OFFCURVE",
"172 -1 CURVE SMOOTH"
);
},
{
closed = 1;
nodes = (
"226 -170 OFFCURVE",
"255 -141 OFFCURVE",
"255 -105 CURVE SMOOTH",
"255 -69 OFFCURVE",
"226 -40 OFFCURVE",
"190 -40 CURVE SMOOTH",
"154 -40 OFFCURVE",
"125 -69 OFFCURVE",
"125 -105 CURVE SMOOTH",
"125 -141 OFFCURVE",
"154 -170 OFFCURVE",
"190 -170 CURVE SMOOTH"
);
},
{
closed = 1;
nodes = (
"452 456 LINE",
"452 521 LINE",
"-30 521 LINE",
"-30 456 LINE"
);
}
);
width = 422;
}
);
},
{
glyphname = bYya;
lastChange = "2016-02-22 17:28:17 +0000";
layers = (
{
layerId = "F2EBC5D5-DDE2-4851-B52F-F2293ECE9CC7";
name = Light;
paths = (
{
closed = 1;
nodes = (
"334 0 LINE",
"334 467 LINE",
"294 467 LINE",
"294 72 LINE",
"304 75 LINE",
"268 150 OFFCURVE",
"184 221 OFFCURVE",
"72 254 CURVE",
"79 227 LINE",
"229 341 LINE",
"183 394 OFFCURVE",
"132 441 OFFCURVE",
"77 482 CURVE",
"78 456 LINE",
"414 456 LINE",
"414 491 LINE",
"-10 491 LINE",
"-10 456 LINE",
"68 456 LINE",
"17 477 LINE",
"18 444 OFFCURVE",
"41 432 OFFCURVE",
"86 418 CURVE SMOOTH",
"126 405 OFFCURVE",
"150 390 OFFCURVE",
"186 347 CURVE",
"183 375 LINE",
"27 260 LINE",
"74 198 LINE",
"196 175 OFFCURVE",
"287 107 OFFCURVE",
"309 0 CURVE"
);
},
{
closed = 1;
nodes = (
"162 29 OFFCURVE",
"180 47 OFFCURVE",
"180 69 CURVE SMOOTH",
"180 91 OFFCURVE",
"162 109 OFFCURVE",
"140 109 CURVE SMOOTH",
"118 109 OFFCURVE",
"100 91 OFFCURVE",
"100 69 CURVE SMOOTH",
"100 47 OFFCURVE",
"118 29 OFFCURVE",
"140 29 CURVE SMOOTH"
);
}
);
width = 404;
},
{
layerId = "A309AC34-D742-49E2-8DE7-30304959F2B2";
name = Bold;
paths = (
{
closed = 1;
nodes = (
"378 0 LINE",
"378 467 LINE",
"298 467 LINE",
"298 72 LINE",
"348 35 LINE",
"306 131 OFFCURVE",
"208 222 OFFCURVE",
"78 264 CURVE",
"105 187 LINE",
"273 311 LINE",
"224 375 OFFCURVE",
"169 432 OFFCURVE",
"111 482 CURVE",
"102 456 LINE",
"458 456 LINE",
"458 521 LINE",
"-30 521 LINE",
"-30 456 LINE",
"92 456 LINE",
"1 477 LINE",
"2 420 OFFCURVE",
"30 395 OFFCURVE",
"70 388 CURVE SMOOTH",
"137 377 OFFCURVE",
"158 375 OFFCURVE",
"230 317 CURVE",
"182 385 LINE",
"13 270 LINE",
"100 148 LINE",
"216 131 OFFCURVE",
"292 79 OFFCURVE",
"318 0 CURVE"
);
},
{
closed = 1;
nodes = (
"196 -42 OFFCURVE",
"225 -13 OFFCURVE",
"225 23 CURVE SMOOTH",
"225 59 OFFCURVE",
"196 88 OFFCURVE",
"160 88 CURVE SMOOTH",
"124 88 OFFCURVE",
"95 59 OFFCURVE",
"95 23 CURVE SMOOTH",
"95 -13 OFFCURVE",
"124 -42 OFFCURVE",
"160 -42 CURVE SMOOTH"
);
}
);
width = 428;
}
);
},
{
glyphname = bRaAssamese;
lastChange = "2016-02-24 04:55:49 +0000";
layers = (
{
layerId = "F2EBC5D5-DDE2-4851-B52F-F2293ECE9CC7";
name = Light;
paths = (
{
closed = 1;
nodes = (
"344 0 LINE",
"344 466 LINE",
"304 466 LINE",
"304 72 LINE",
"313 79 LINE",
"274 173 OFFCURVE",
"169 247 OFFCURVE",
"81 273 CURVE",
"84 253 LINE",
"153 310 OFFCURVE",
"240 357 OFFCURVE",
"328 384 CURVE",
"322 436 LINE",
"235 416 OFFCURVE",
"113 355 OFFCURVE",
"25 283 CURVE",
"77 214 LINE",
"184 197 OFFCURVE",
"299 118 OFFCURVE",
"319 0 CURVE"
);
},
{
closed = 1;
nodes = (
"329 200 LINE",
"288 258 OFFCURVE",
"229 312 OFFCURVE",
"168 345 CURVE",
"147 311 LINE",
"209 287 OFFCURVE",
"270 239 OFFCURVE",
"313 182 CURVE"
);
},
{
closed = 1;
nodes = (
"424 456 LINE",
"424 491 LINE",
"-10 491 LINE",
"-10 456 LINE"
);
}
);
width = 414;
},
{
background = {
paths = (
{
closed = 1;
nodes = (
"240 357 OFFCURVE",
"153 310 OFFCURVE",
"84 253 CURVE",
"81 273 LINE",
"169 247 OFFCURVE",
"274 173 OFFCURVE",
"313 79 CURVE",
"304 72 LINE",
"304 466 LINE",
"344 466 LINE",
"344 0 LINE",
"319 0 LINE",
"299 118 OFFCURVE",
"184 197 OFFCURVE",
"77 214 CURVE",
"25 283 LINE",
"113 355 OFFCURVE",
"235 416 OFFCURVE",
"322 436 CURVE",
"328 384 LINE"
);
},
{
closed = 1;
nodes = (
"-10 456 LINE",
"-10 491 LINE",
"424 491 LINE",
"424 456 LINE"
);
},
{
closed = 1;
nodes = (
"313 182 LINE",
"270 239 OFFCURVE",
"209 287 OFFCURVE",
"147 311 CURVE",
"168 345 LINE",
"229 312 OFFCURVE",
"288 258 OFFCURVE",
"329 200 CURVE"
);
}
);
};
layerId = "A309AC34-D742-49E2-8DE7-30304959F2B2";
name = Bold;
paths = (
{
closed = 1;
nodes = (
"384 0 LINE",
"384 466 LINE",
"304 466 LINE",
"304 72 LINE",
"353 39 LINE",
"307 157 OFFCURVE",
"204 251 OFFCURVE",
"81 283 CURVE",
"94 213 LINE",
"171 268 OFFCURVE",
"269 312 OFFCURVE",
"368 338 CURVE",
"332 444 LINE",
"233 424 OFFCURVE",
"95 364 OFFCURVE",
"-5 293 CURVE",
"87 164 LINE",
"203 153 OFFCURVE",
"288 106 OFFCURVE",
"324 0 CURVE"
);
},
{
closed = 1;
nodes = (
"332 200 LINE",
"294 259 OFFCURVE",
"228 312 OFFCURVE",
"170 354 CURVE",
"139 310 LINE",
"196 281 OFFCURVE",
"266 231 OFFCURVE",
"311 172 CURVE"
);
},
{
closed = 1;
nodes = (
"464 456 LINE",
"464 521 LINE",
"-30 521 LINE",
"-30 456 LINE"
);
}
);
width = 434;
}
);
},
{
glyphname = bVaAssamese;
lastChange = "2016-02-24 04:55:49 +0000";
layers = (
{
layerId = "F2EBC5D5-DDE2-4851-B52F-F2293ECE9CC7";
name = Light;
paths = (
{
closed = 1;
nodes = (
"344 0 LINE",
"344 466 LINE",
"304 466 LINE",
"304 72 LINE",
"313 79 LINE",
"274 173 OFFCURVE",
"169 247 OFFCURVE",
"81 273 CURVE",
"84 253 LINE",
"153 310 OFFCURVE",
"240 357 OFFCURVE",
"328 384 CURVE",
"322 436 LINE",
"235 416 OFFCURVE",
"113 355 OFFCURVE",
"25 283 CURVE",
"77 214 LINE",
"184 197 OFFCURVE",
"299 118 OFFCURVE",
"319 0 CURVE"
);
},
{
closed = 1;
nodes = (
"262 21 LINE",
"219 90 OFFCURVE",
"154 138 OFFCURVE",
"77 155 CURVE",
"94 99 LINE",
"160 88 OFFCURVE",
"208 62 OFFCURVE",
"245 9 CURVE"
);
},
{
closed = 1;
nodes = (
"424 456 LINE",
"424 491 LINE",
"-10 491 LINE",
"-10 456 LINE"
);
}
);
width = 414;
},
{
background = {
paths = (
{
closed = 1;
nodes = (
"245 9 LINE",
"208 62 OFFCURVE",
"160 88 OFFCURVE",
"94 99 CURVE",
"77 155 LINE",
"154 138 OFFCURVE",
"219 90 OFFCURVE",
"262 21 CURVE"
);
},
{
closed = 1;
nodes = (
"240 357 OFFCURVE",
"153 310 OFFCURVE",
"84 253 CURVE",
"81 273 LINE",
"169 247 OFFCURVE",
"274 173 OFFCURVE",
"313 79 CURVE",
"304 72 LINE",
"304 466 LINE",
"344 466 LINE",
"344 0 LINE",
"319 0 LINE",
"299 118 OFFCURVE",
"184 197 OFFCURVE",
"77 214 CURVE",
"25 283 LINE",
"113 355 OFFCURVE",
"235 416 OFFCURVE",
"322 436 CURVE",
"328 384 LINE"
);
},
{
closed = 1;
nodes = (
"-10 456 LINE",
"-10 491 LINE",
"424 491 LINE",
"424 456 LINE"
);
}
);
};
layerId = "A309AC34-D742-49E2-8DE7-30304959F2B2";
name = Bold;
paths = (
{
closed = 1;
nodes = (
"384 0 LINE",
"384 466 LINE",
"304 466 LINE",
"304 72 LINE",
"353 39 LINE",
"307 157 OFFCURVE",
"204 251 OFFCURVE",
"81 283 CURVE",
"94 213 LINE",
"171 268 OFFCURVE",
"269 312 OFFCURVE",
"368 338 CURVE",
"332 444 LINE",
"233 424 OFFCURVE",
"95 364 OFFCURVE",
"-5 293 CURVE",
"87 164 LINE",
"203 153 OFFCURVE",
"288 106 OFFCURVE",
"324 0 CURVE"
);
},
{
closed = 1;
nodes = (
"284 8 LINE",
"227 76 OFFCURVE",
"159 117 OFFCURVE",
"67 133 CURVE",
"92 47 LINE",
"163 40 OFFCURVE",
"208 25 OFFCURVE",
"257 -18 CURVE"
);
},
{
closed = 1;
nodes = (
"464 456 LINE",
"464 521 LINE",
"-30 521 LINE",
"-30 456 LINE"
);
}
);
width = 434;
}
);
},
{
glyphname = bAvagraha;
lastChange = "2016-02-22 17:28:17 +0000";
layers = (
{
layerId = "F2EBC5D5-DDE2-4851-B52F-F2293ECE9CC7";
name = Light;
paths = (
{
closed = 1;
nodes = (
"425 0 LINE",
"302 88 OFFCURVE",
"251 119 OFFCURVE",
"167 146 CURVE",
"171 128 LINE",
"279 129 OFFCURVE",
"362 196 OFFCURVE",
"362 280 CURVE SMOOTH",
"362 357 OFFCURVE",
"293 421 OFFCURVE",
"196 421 CURVE SMOOTH",
"118 421 OFFCURVE",
"65 380 OFFCURVE",
"65 330 CURVE SMOOTH",
"65 296 OFFCURVE",
"90 269 OFFCURVE",
"128 269 CURVE SMOOTH",
"173 269 OFFCURVE",
"211 306 OFFCURVE",
"211 356 CURVE SMOOTH",
"211 364 OFFCURVE",
"210 377 OFFCURVE",
"205 390 CURVE",
"176 359 LINE",
"190 368 OFFCURVE",
"209 375 OFFCURVE",
"236 375 CURVE SMOOTH",
"293 375 OFFCURVE",
"324 344 OFFCURVE",
"324 300 CURVE SMOOTH",
"324 235 OFFCURVE",
"258 181 OFFCURVE",
"152 181 CURVE SMOOTH",
"117 181 OFFCURVE",
"69 187 OFFCURVE",
"38 196 CURVE",
"71 121 LINE",
"198 96 OFFCURVE",
"271 71 OFFCURVE",
"409 -19 CURVE"
);
},
{
closed = 1;
nodes = (
"196 456 LINE",
"196 491 LINE",
"-10 491 LINE",
"-10 456 LINE"
);
}
);
width = 415;
},
{
layerId = "A309AC34-D742-49E2-8DE7-30304959F2B2";
name = Bold;
paths = (
{
closed = 1;
nodes = (
"460 -10 LINE",
"319 90 OFFCURVE",
"248 125 OFFCURVE",
"162 156 CURVE",
"202 91 LINE",
"318 91 OFFCURVE",
"407 159 OFFCURVE",
"407 256 CURVE SMOOTH",
"407 352 OFFCURVE",
"319 432 OFFCURVE",
"200 432 CURVE SMOOTH",
"105 432 OFFCURVE",
"40 382 OFFCURVE",
"40 321 CURVE SMOOTH",
"40 275 OFFCURVE",
"77 239 OFFCURVE",
"128 239 CURVE SMOOTH",
"187 239 OFFCURVE",
"236 286 OFFCURVE",
"236 343 CURVE SMOOTH",
"236 357 OFFCURVE",
"233 373 OFFCURVE",
"220 390 CURVE",
"201 329 LINE",
"223 340 OFFCURVE",
"237 348 OFFCURVE",
"263 348 CURVE SMOOTH",
"305 348 OFFCURVE",
"327 326 OFFCURVE",
"327 294 CURVE SMOOTH",
"327 236 OFFCURVE",
"259 186 OFFCURVE",
"148 186 CURVE SMOOTH",
"109 186 OFFCURVE",
"58 192 OFFCURVE",
"19 202 CURVE",
"86 71 LINE",
"213 51 OFFCURVE",
"286 27 OFFCURVE",
"424 -55 CURVE"
);
},
{
closed = 1;
nodes = (
"221 456 LINE",
"221 521 LINE",
"-30 521 LINE",
"-30 456 LINE"
);
}
);
width = 446;
}
);
},
{
color = -1;
glyphname = bKhandTa;
lastChange = "2016-03-04 18:18:26 +0000";
layers = (
{
background = {
paths = (
{
closed = 1;
nodes = (
"133 440 LINE",
"151 376 OFFCURVE",
"180 351 OFFCURVE",
"220 351 CURVE SMOOTH",
"253 351 OFFCURVE",
"270 368 OFFCURVE",
"270 389 CURVE SMOOTH",
"270 419 OFFCURVE",
"234 445 OFFCURVE",
"186 445 CURVE SMOOTH",
"122 445 OFFCURVE",
"63 400 OFFCURVE",
"63 339 CURVE SMOOTH",
"63 277 OFFCURVE",
"123 249 OFFCURVE",
"181 222 CURVE SMOOTH",
"267 182 OFFCURVE",
"381 118 OFFCURVE",
"381 0 CURVE",
"357 0 LINE",
"357 80 OFFCURVE",
"261 123 OFFCURVE",
"189 155 CURVE SMOOTH",
"111 190 OFFCURVE",
"29 244 OFFCURVE",
"29 343 CURVE SMOOTH",
"29 437 OFFCURVE",
"103 500 OFFCURVE",
"185 500 CURVE SMOOTH",
"255 500 OFFCURVE",
"301 453 OFFCURVE",
"301 394 CURVE SMOOTH",
"301 341 OFFCURVE",
"264 298 OFFCURVE",
"214 298 CURVE SMOOTH",
"155 298 OFFCURVE",
"122 359 OFFCURVE",
"108 431 CURVE"
);
}
);
};
layerId = "F2EBC5D5-DDE2-4851-B52F-F2293ECE9CC7";
name = Light;
paths = (
{
closed = 1;
nodes = (
"133 440 LINE",
"151 376 OFFCURVE",
"182 351 OFFCURVE",
"220 351 CURVE SMOOTH",
"252 351 OFFCURVE",
"270 368 OFFCURVE",
"270 389 CURVE SMOOTH",
"270 419 OFFCURVE",
"234 445 OFFCURVE",
"186 445 CURVE SMOOTH",
"122 445 OFFCURVE",
"63 400 OFFCURVE",
"63 339 CURVE SMOOTH",
"63 277 OFFCURVE",
"123 249 OFFCURVE",
"181 222 CURVE SMOOTH",
"267 182 OFFCURVE",
"381 118 OFFCURVE",
"381 0 CURVE",
"357 0 LINE",
"357 80 OFFCURVE",
"261 123 OFFCURVE",
"189 155 CURVE SMOOTH",
"111 190 OFFCURVE",
"29 244 OFFCURVE",
"29 343 CURVE SMOOTH",
"29 437 OFFCURVE",
"103 500 OFFCURVE",
"185 500 CURVE SMOOTH",
"256 500 OFFCURVE",
"301 453 OFFCURVE",
"301 393 CURVE SMOOTH",
"301 341 OFFCURVE",
"266 298 OFFCURVE",
"217 298 CURVE SMOOTH",
"158 298 OFFCURVE",
"123 359 OFFCURVE",
"108 431 CURVE"
);
}
);
width = 371;
},
{
background = {
paths = (
{
closed = 1;
nodes = (
"146 448 LINE",
"164 388 OFFCURVE",
"198 366 OFFCURVE",
"233 366 CURVE SMOOTH",
"262 366 OFFCURVE",
"276 382 OFFCURVE",
"276 398 CURVE SMOOTH",
"276 425 OFFCURVE",
"240 442 OFFCURVE",
"198 442 CURVE SMOOTH",
"134 442 OFFCURVE",
"81 403 OFFCURVE",
"81 344 CURVE SMOOTH",
"81 280 OFFCURVE",
"145 253 OFFCURVE",
"195 234 CURVE SMOOTH",
"311 191 OFFCURVE",
"421 138 OFFCURVE",
"421 0 CURVE",
"371 0 LINE",
"371 74 OFFCURVE",
"240 111 OFFCURVE",
"190 128 CURVE SMOOTH",
"83 165 OFFCURVE",
"20 239 OFFCURVE",
"20 346 CURVE SMOOTH",
"20 477 OFFCURVE",
"113 530 OFFCURVE",
"196 530 CURVE SMOOTH",
"283 530 OFFCURVE",
"335 472 OFFCURVE",
"335 398 CURVE SMOOTH",
"335 330 OFFCURVE",
"292 273 OFFCURVE",
"230 273 CURVE SMOOTH",
"162 273 OFFCURVE",
"115 343 OFFCURVE",
"102 431 CURVE"
);
}
);
};
layerId = "A309AC34-D742-49E2-8DE7-30304959F2B2";
name = Bold;
paths = (
{
closed = 1;
nodes = (
"145 448 LINE",
"168 388 OFFCURVE",
"198 366 OFFCURVE",
"233 366 CURVE SMOOTH",
"262 366 OFFCURVE",
"276 382 OFFCURVE",
"276 398 CURVE SMOOTH",
"276 425 OFFCURVE",
"240 442 OFFCURVE",
"198 442 CURVE SMOOTH",
"134 442 OFFCURVE",
"81 403 OFFCURVE",
"81 344 CURVE SMOOTH",
"81 280 OFFCURVE",
"145 250 OFFCURVE",
"195 234 CURVE SMOOTH",
"313 196 OFFCURVE",
"421 138 OFFCURVE",
"421 0 CURVE",
"362 0 LINE",
"362 74 OFFCURVE",
"295 93 OFFCURVE",
"173 134 CURVE SMOOTH",
"83 163 OFFCURVE",
"20 236 OFFCURVE",
"20 340 CURVE SMOOTH",
"20 475 OFFCURVE",
"113 530 OFFCURVE",
"196 530 CURVE SMOOTH",
"283 530 OFFCURVE",
"335 472 OFFCURVE",
"335 398 CURVE SMOOTH",
"335 330 OFFCURVE",
"292 273 OFFCURVE",
"230 273 CURVE SMOOTH",
"162 273 OFFCURVE",
"119 343 OFFCURVE",
"99 427 CURVE"
);
}
);
width = 401;
}
);
},
{
glyphname = bSignAa;
lastChange = "2016-02-22 17:28:18 +0000";
layers = (
{
layerId = "F2EBC5D5-DDE2-4851-B52F-F2293ECE9CC7";
name = Light;
paths = (
{
closed = 1;
nodes = (
"113 0 LINE",
"113 456 LINE",
"193 456 LINE",
"193 491 LINE",
"73 491 LINE",
"73 381 LINE",
"88 384 LINE",
"77 451 OFFCURVE",
"44 491 OFFCURVE",
"11 491 CURVE SMOOTH",
"-10 491 LINE",
"-10 456 LINE",
"7 456 LINE SMOOTH",
"43 456 OFFCURVE",
"73 415 OFFCURVE",
"73 366 CURVE SMOOTH",
"73 0 LINE"
);
}
);
width = 183;
},
{
layerId = "A309AC34-D742-49E2-8DE7-30304959F2B2";
name = Bold;
paths = (
{
closed = 1;
nodes = (
"143 0 LINE",
"143 456 LINE",
"223 456 LINE",
"223 521 LINE",
"93 521 LINE",
"63 371 LINE",
"98 394 LINE",
"89 474 OFFCURVE",
"75 521 OFFCURVE",
"32 521 CURVE SMOOTH",
"-30 521 LINE",
"-30 456 LINE",
"17 456 LINE SMOOTH",
"62 456 OFFCURVE",
"63 405 OFFCURVE",
"63 346 CURVE SMOOTH",
"63 0 LINE"
);
}
);
width = 193;
}
);
},
{
glyphname = bSignI;
lastChange = "2016-03-10 08:24:08 +0000";
layers = (
{
layerId = "F2EBC5D5-DDE2-4851-B52F-F2293ECE9CC7";
name = Light;
paths = (
{
closed = 1;
nodes = (
"107 487 LINE",
"89 506 OFFCURVE",
"78 536 OFFCURVE",
"78 563 CURVE SMOOTH",
"78 629 OFFCURVE",
"142 684 OFFCURVE",
"227 684 CURVE SMOOTH",
"312 684 OFFCURVE",
"401 630 OFFCURVE",
"498 530 CURVE",
"513 544 LINE",
"407 663 OFFCURVE",
"303 728 OFFCURVE",
"206 728 CURVE SMOOTH",
"109 728 OFFCURVE",
"35 664 OFFCURVE",
"35 584 CURVE SMOOTH",
"35 549 OFFCURVE",
"50 515 OFFCURVE",
"78 486 CURVE"
);
},
{
closed = 1;
nodes = (
"113 0 LINE",
"113 467 LINE",
"73 467 LINE",
"73 0 LINE"
);
},
{
closed = 1;
nodes = (
"195 456 LINE",
"195 491 LINE",
"-10 491 LINE",
"-10 456 LINE"
);
}
);
width = 185;
},
{
background = {
paths = (
{
closed = 1;
nodes = (
"137 487 LINE",
"117 512 OFFCURVE",
"101 542 OFFCURVE",
"101 576 CURVE SMOOTH",
"101 638 OFFCURVE",
"156 689 OFFCURVE",
"246 689 CURVE SMOOTH",
"336 689 OFFCURVE",
"419 639 OFFCURVE",
"512 545 CURVE",
"553 582 LINE",
"451 699 OFFCURVE",
"339 786 OFFCURVE",
"213 786 CURVE SMOOTH",
"104 786 OFFCURVE",
"22 720 OFFCURVE",
"22 625 CURVE SMOOTH",
"22 578 OFFCURVE",
"42 536 OFFCURVE",
"89 486 CURVE"
);
},
{
closed = 1;
nodes = (
"133 0 LINE",
"133 467 LINE",
"53 467 LINE",
"53 0 LINE"
);
},
{
closed = 1;
nodes = (
"213 456 LINE",
"213 521 LINE",
"-30 521 LINE",
"-30 456 LINE"
);
}
);
};
layerId = "A309AC34-D742-49E2-8DE7-30304959F2B2";
name = Bold;
paths = (
{
closed = 1;
nodes = (
"137 487 LINE",
"117 512 OFFCURVE",
"101 542 OFFCURVE",
"101 576 CURVE SMOOTH",
"101 638 OFFCURVE",
"154 689 OFFCURVE",
"250 689 CURVE SMOOTH",
"339 689 OFFCURVE",
"422 645 OFFCURVE",
"513 545 CURVE",
"556 582 LINE",
"464 699 OFFCURVE",
"349 786 OFFCURVE",
"220 786 CURVE SMOOTH",
"109 786 OFFCURVE",
"22 720 OFFCURVE",
"22 624 CURVE SMOOTH",
"22 578 OFFCURVE",
"42 536 OFFCURVE",
"89 486 CURVE"
);
},
{
closed = 1;
nodes = (
"133 0 LINE",
"133 467 LINE",
"53 467 LINE",
"53 0 LINE"
);
},
{
closed = 1;
nodes = (
"213 456 LINE",
"213 521 LINE",
"-30 521 LINE",
"-30 456 LINE"
);
}
);
width = 183;
}
);
},
{
color = -1;
glyphname = bSignI.2;
lastChange = "2016-03-04 22:25:06 +0000";
layers = (
{
background = {
paths = (
{
closed = 1;
nodes = (
"107 487 LINE",
"89 506 OFFCURVE",
"78 536 OFFCURVE",
"78 563 CURVE SMOOTH",
"78 630 OFFCURVE",
"146 685 OFFCURVE",
"241 685 CURVE SMOOTH",
"334 685 OFFCURVE",
"436 632 OFFCURVE",
"545 530 CURVE",
"560 545 LINE",
"441 665 OFFCURVE",
"326 729 OFFCURVE",
"221 729 CURVE SMOOTH",
"113 729 OFFCURVE",
"35 665 OFFCURVE",
"35 584 CURVE SMOOTH",
"35 549 OFFCURVE",
"50 515 OFFCURVE",
"78 486 CURVE"
);
},
{
closed = 1;
nodes = (
"113 0 LINE",
"113 467 LINE",
"73 467 LINE",
"73 0 LINE"
);
},
{
closed = 1;
nodes = (
"195 456 LINE",
"195 491 LINE",
"-10 491 LINE",
"-10 456 LINE"
);
}
);
};
layerId = "F2EBC5D5-DDE2-4851-B52F-F2293ECE9CC7";
name = Light;
paths = (
{
closed = 1;
nodes = (
"107 487 LINE",
"89 506 OFFCURVE",
"78 536 OFFCURVE",
"78 563 CURVE SMOOTH",
"78 630 OFFCURVE",
"146 685 OFFCURVE",
"240 685 CURVE SMOOTH",
"332 685 OFFCURVE",
"430 632 OFFCURVE",
"534 530 CURVE",
"550 545 LINE",
"435 665 OFFCURVE",
"324 729 OFFCURVE",
"219 729 CURVE SMOOTH",
"114 729 OFFCURVE",
"35 665 OFFCURVE",
"35 584 CURVE SMOOTH",
"35 549 OFFCURVE",
"50 515 OFFCURVE",
"78 486 CURVE"
);
},
{
closed = 1;
nodes = (
"113 0 LINE",
"113 467 LINE",
"73 467 LINE",
"73 0 LINE"
);
},
{
closed = 1;
nodes = (
"195 456 LINE",
"195 491 LINE",
"-10 491 LINE",
"-10 456 LINE"
);
}
);
width = 185;
},
{
background = {
paths = (
{
closed = 1;
nodes = (
"107 487 LINE",
"89 506 OFFCURVE",
"78 536 OFFCURVE",
"78 563 CURVE SMOOTH",
"78 630 OFFCURVE",
"146 685 OFFCURVE",
"240 685 CURVE SMOOTH",
"332 685 OFFCURVE",
"430 632 OFFCURVE",
"534 530 CURVE",
"550 545 LINE",
"435 665 OFFCURVE",
"324 729 OFFCURVE",
"219 729 CURVE SMOOTH",
"114 729 OFFCURVE",
"35 665 OFFCURVE",
"35 584 CURVE SMOOTH",
"35 549 OFFCURVE",
"50 515 OFFCURVE",
"78 486 CURVE"
);
},
{
closed = 1;
nodes = (
"113 0 LINE",
"113 467 LINE",
"73 467 LINE",
"73 0 LINE"
);
},
{
closed = 1;
nodes = (
"195 456 LINE",
"195 491 LINE",
"-10 491 LINE",
"-10 456 LINE"
);
}
);
};
layerId = "A309AC34-D742-49E2-8DE7-30304959F2B2";
name = Bold;
paths = (
{
closed = 1;
nodes = (
"137 487 LINE",
"117 512 OFFCURVE",
"101 542 OFFCURVE",
"101 575 CURVE SMOOTH",
"101 640 OFFCURVE",
"163 692 OFFCURVE",
"274 692 CURVE SMOOTH",
"377 692 OFFCURVE",
"475 647 OFFCURVE",
"582 545 CURVE",
"621 585 LINE",
"513 702 OFFCURVE",
"385 789 OFFCURVE",
"242 789 CURVE SMOOTH",
"116 789 OFFCURVE",
"22 722 OFFCURVE",
"22 623 CURVE SMOOTH",
"22 578 OFFCURVE",
"42 536 OFFCURVE",
"89 486 CURVE"
);
},
{
closed = 1;
nodes = (
"133 0 LINE",
"133 467 LINE",
"53 467 LINE",
"53 0 LINE"
);
},
{
closed = 1;
nodes = (
"213 456 LINE",
"213 521 LINE",
"-30 521 LINE",
"-30 456 LINE"
);
}
);
width = 183;
}
);
},
{
color = -1;
glyphname = bSignI.narrow;
lastChange = "2016-03-04 22:25:06 +0000";
layers = (
{
layerId = "F2EBC5D5-DDE2-4851-B52F-F2293ECE9CC7";
name = Light;
paths = (
{
closed = 1;
nodes = (
"107 487 LINE",
"89 506 OFFCURVE",
"78 535 OFFCURVE",
"78 564 CURVE SMOOTH",
"78 627 OFFCURVE",
"129 684 OFFCURVE",
"218 684 CURVE SMOOTH",
"310 684 OFFCURVE",
"382 623 OFFCURVE",
"465 530 CURVE",
"481 543 LINE",
"389 658 OFFCURVE",
"306 728 OFFCURVE",
"202 728 CURVE SMOOTH",
"103 728 OFFCURVE",
"35 664 OFFCURVE",
"35 585 CURVE SMOOTH",
"35 548 OFFCURVE",
"50 515 OFFCURVE",
"78 486 CURVE"
);
},
{
closed = 1;
nodes = (
"113 0 LINE",
"113 467 LINE",
"73 467 LINE",
"73 0 LINE"
);
},
{
closed = 1;
nodes = (
"195 456 LINE",
"195 491 LINE",
"-10 491 LINE",
"-10 456 LINE"
);
}
);
width = 185;
},
{
background = {
paths = (
{
closed = 1;
nodes = (
"137 487 LINE",
"117 512 OFFCURVE",
"101 542 OFFCURVE",
"101 576 CURVE SMOOTH",
"101 638 OFFCURVE",
"154 689 OFFCURVE",
"250 689 CURVE SMOOTH",
"339 689 OFFCURVE",
"422 645 OFFCURVE",
"513 545 CURVE",
"556 582 LINE",
"464 699 OFFCURVE",
"349 786 OFFCURVE",
"220 786 CURVE SMOOTH",
"109 786 OFFCURVE",
"22 720 OFFCURVE",
"22 624 CURVE SMOOTH",
"22 578 OFFCURVE",
"42 536 OFFCURVE",
"89 486 CURVE"
);
},
{
closed = 1;
nodes = (
"133 0 LINE",
"133 467 LINE",
"53 467 LINE",
"53 0 LINE"
);
},
{
closed = 1;
nodes = (
"213 456 LINE",
"213 521 LINE",
"-30 521 LINE",
"-30 456 LINE"
);
}
);
};
layerId = "A309AC34-D742-49E2-8DE7-30304959F2B2";
name = Bold;
paths = (
{
closed = 1;
nodes = (
"137 487 LINE",
"118 511 OFFCURVE",
"101 540 OFFCURVE",
"101 577 CURVE SMOOTH",
"101 638 OFFCURVE",
"146 689 OFFCURVE",
"233 689 CURVE SMOOTH",
"318 689 OFFCURVE",
"390 640 OFFCURVE",
"483 545 CURVE",
"526 582 LINE",
"431 695 OFFCURVE",
"325 786 OFFCURVE",
"203 786 CURVE SMOOTH",
"99 786 OFFCURVE",
"22 720 OFFCURVE",
"22 625 CURVE SMOOTH",
"22 577 OFFCURVE",
"42 536 OFFCURVE",
"89 486 CURVE"
);
},
{
closed = 1;
nodes = (
"133 0 LINE",
"133 467 LINE",
"53 467 LINE",
"53 0 LINE"
);
},
{
closed = 1;
nodes = (
"213 456 LINE",
"213 521 LINE",
"-30 521 LINE",
"-30 456 LINE"
);
}
);
width = 183;
}
);
},
{
color = -1;
glyphname = bSignI.wide1;
lastChange = "2016-03-04 22:25:06 +0000";
layers = (
{
background = {
paths = (
{
closed = 1;
nodes = (
"107 487 LINE",
"89 506 OFFCURVE",
"78 536 OFFCURVE",
"78 563 CURVE SMOOTH",
"78 630 OFFCURVE",
"150 686 OFFCURVE",
"256 686 CURVE SMOOTH",
"357 686 OFFCURVE",
"470 634 OFFCURVE",
"591 530 CURVE",
"606 546 LINE",
"475 668 OFFCURVE",
"349 730 OFFCURVE",
"236 730 CURVE SMOOTH",
"118 730 OFFCURVE",
"35 665 OFFCURVE",
"35 584 CURVE SMOOTH",
"35 549 OFFCURVE",
"50 515 OFFCURVE",
"78 486 CURVE"
);
},
{
closed = 1;
nodes = (
"113 0 LINE",
"113 467 LINE",
"73 467 LINE",
"73 0 LINE"
);
},
{
closed = 1;
nodes = (
"195 456 LINE",
"195 491 LINE",
"-10 491 LINE",
"-10 456 LINE"
);
}
);
};
layerId = "F2EBC5D5-DDE2-4851-B52F-F2293ECE9CC7";
name = Light;
paths = (
{
closed = 1;
nodes = (
"107 487 LINE",
"89 506 OFFCURVE",
"78 536 OFFCURVE",
"78 563 CURVE SMOOTH",
"78 630 OFFCURVE",
"150 686 OFFCURVE",
"256 686 CURVE SMOOTH",
"358 686 OFFCURVE",
"473 634 OFFCURVE",
"595 530 CURVE",
"610 546 LINE",
"478 668 OFFCURVE",
"350 730 OFFCURVE",
"236 730 CURVE SMOOTH",
"118 730 OFFCURVE",
"35 665 OFFCURVE",
"35 584 CURVE SMOOTH",
"35 549 OFFCURVE",
"50 515 OFFCURVE",
"78 486 CURVE"
);
},
{
closed = 1;
nodes = (
"113 0 LINE",
"113 467 LINE",
"73 467 LINE",
"73 0 LINE"
);
},
{
closed = 1;
nodes = (
"195 456 LINE",
"195 491 LINE",
"-10 491 LINE",
"-10 456 LINE"
);
}
);
width = 185;
},
{
background = {
paths = (
{
closed = 1;
nodes = (
"137 487 LINE",
"117 512 OFFCURVE",
"101 542 OFFCURVE",
"101 574 CURVE SMOOTH",
"101 640 OFFCURVE",
"169 694 OFFCURVE",
"294 694 CURVE SMOOTH",
"404 694 OFFCURVE",
"514 652 OFFCURVE",
"641 545 CURVE",
"677 587 LINE",
"553 708 OFFCURVE",
"422 791 OFFCURVE",
"268 791 CURVE SMOOTH",
"128 791 OFFCURVE",
"22 723 OFFCURVE",
"22 622 CURVE SMOOTH",
"22 578 OFFCURVE",
"42 536 OFFCURVE",
"89 486 CURVE"
);
},
{
closed = 1;
nodes = (
"133 0 LINE",
"133 467 LINE",
"53 467 LINE",
"53 0 LINE"
);
},
{
closed = 1;
nodes = (
"213 456 LINE",
"213 521 LINE",
"-30 521 LINE",
"-30 456 LINE"
);
}
);
};
layerId = "A309AC34-D742-49E2-8DE7-30304959F2B2";
name = Bold;
paths = (
{
closed = 1;
nodes = (
"137 487 LINE",
"117 512 OFFCURVE",
"101 542 OFFCURVE",
"101 574 CURVE SMOOTH",
"101 640 OFFCURVE",
"167 694 OFFCURVE",
"288 694 CURVE SMOOTH",
"399 694 OFFCURVE",
"518 649 OFFCURVE",
"639 545 CURVE",
"678 587 LINE",
"559 699 OFFCURVE",
"419 791 OFFCURVE",
"261 791 CURVE SMOOTH",
"126 791 OFFCURVE",
"22 723 OFFCURVE",
"22 622 CURVE SMOOTH",
"22 578 OFFCURVE",
"42 536 OFFCURVE",
"89 486 CURVE"
);
},
{
closed = 1;
nodes = (
"133 0 LINE",
"133 467 LINE",
"53 467 LINE",
"53 0 LINE"
);
},
{
closed = 1;
nodes = (
"213 456 LINE",
"213 521 LINE",
"-30 521 LINE",
"-30 456 LINE"
);
}
);
width = 183;
}
);
},
{
color = -1;
glyphname = bSignI.wide2;
lastChange = "2016-03-04 22:25:06 +0000";
layers = (
{
background = {
paths = (
{
closed = 1;
nodes = (
"107 487 LINE",
"89 506 OFFCURVE",
"78 536 OFFCURVE",
"78 562 CURVE SMOOTH",
"78 631 OFFCURVE",
"154 687 OFFCURVE",
"271 687 CURVE SMOOTH",
"380 687 OFFCURVE",
"506 636 OFFCURVE",
"639 530 CURVE",
"653 546 LINE",
"510 670 OFFCURVE",
"372 731 OFFCURVE",
"251 731 CURVE SMOOTH",
"123 731 OFFCURVE",
"35 666 OFFCURVE",
"35 583 CURVE SMOOTH",
"35 549 OFFCURVE",
"50 515 OFFCURVE",
"78 486 CURVE"
);
},
{
closed = 1;
nodes = (
"113 0 LINE",
"113 467 LINE",
"73 467 LINE",
"73 0 LINE"
);
},
{
closed = 1;
nodes = (
"195 456 LINE",
"195 491 LINE",
"-10 491 LINE",
"-10 456 LINE"
);
}
);
};
layerId = "F2EBC5D5-DDE2-4851-B52F-F2293ECE9CC7";
name = Light;
paths = (
{
closed = 1;
nodes = (
"107 487 LINE",
"89 506 OFFCURVE",
"78 536 OFFCURVE",
"78 562 CURVE SMOOTH",
"78 631 OFFCURVE",
"153 687 OFFCURVE",
"271 687 CURVE SMOOTH",
"382 687 OFFCURVE",
"510 636 OFFCURVE",
"645 530 CURVE",
"660 546 LINE",
"514 670 OFFCURVE",
"374 731 OFFCURVE",
"252 731 CURVE SMOOTH",
"123 731 OFFCURVE",
"35 666 OFFCURVE",
"35 583 CURVE SMOOTH",
"35 549 OFFCURVE",
"50 515 OFFCURVE",
"78 486 CURVE"
);
},
{
closed = 1;
nodes = (
"113 0 LINE",
"113 467 LINE",
"73 467 LINE",
"73 0 LINE"
);
},
{
closed = 1;
nodes = (
"195 456 LINE",
"195 491 LINE",
"-10 491 LINE",
"-10 456 LINE"
);
}
);
width = 185;
},
{
layerId = "A309AC34-D742-49E2-8DE7-30304959F2B2";
name = Bold;
paths = (
{
closed = 1;
nodes = (
"137 487 LINE",
"117 512 OFFCURVE",
"101 543 OFFCURVE",
"101 575 CURVE SMOOTH",
"101 641 OFFCURVE",
"166 695 OFFCURVE",
"301 695 CURVE SMOOTH",
"417 695 OFFCURVE",
"522 655 OFFCURVE",
"678 545 CURVE",
"715 589 LINE",
"553 717 OFFCURVE",
"419 792 OFFCURVE",
"265 792 CURVE SMOOTH",
"118 792 OFFCURVE",
"22 724 OFFCURVE",
"22 624 CURVE SMOOTH",
"22 579 OFFCURVE",
"42 536 OFFCURVE",
"89 486 CURVE"
);
},
{
closed = 1;
nodes = (
"133 0 LINE",
"133 467 LINE",
"53 467 LINE",
"53 0 LINE"
);
},
{
closed = 1;
nodes = (
"213 456 LINE",
"213 521 LINE",
"-30 521 LINE",
"-30 456 LINE"
);
}
);
width = 183;
}
);
},
{
color = -1;
glyphname = bSignI.wide3;
lastChange = "2016-03-04 22:25:06 +0000";
layers = (
{
layerId = "F2EBC5D5-DDE2-4851-B52F-F2293ECE9CC7";
name = Light;
paths = (
{
closed = 1;
nodes = (
"107 487 LINE",
"89 506 OFFCURVE",
"78 536 OFFCURVE",
"78 562 CURVE SMOOTH",
"78 631 OFFCURVE",
"158 689 OFFCURVE",
"290 689 CURVE SMOOTH",
"411 689 OFFCURVE",
"555 639 OFFCURVE",
"705 530 CURVE",
"720 547 LINE",
"558 673 OFFCURVE",
"402 733 OFFCURVE",
"270 733 CURVE SMOOTH",
"128 733 OFFCURVE",
"35 667 OFFCURVE",
"35 583 CURVE SMOOTH",
"35 549 OFFCURVE",
"50 515 OFFCURVE",
"78 486 CURVE"
);
},
{
closed = 1;
nodes = (
"113 0 LINE",
"113 467 LINE",
"73 467 LINE",
"73 0 LINE"
);
},
{
closed = 1;
nodes = (
"195 456 LINE",
"195 491 LINE",
"-10 491 LINE",
"-10 456 LINE"
);
}
);
width = 185;
},
{
background = {
paths = (
{
closed = 1;
nodes = (
"137 487 LINE",
"117 512 OFFCURVE",
"101 543 OFFCURVE",
"101 576 CURVE SMOOTH",
"101 641 OFFCURVE",
"160 695 OFFCURVE",
"313 695 CURVE SMOOTH",
"431 695 OFFCURVE",
"588 663 OFFCURVE",
"758 545 CURVE",
"794 592 LINE",
"626 722 OFFCURVE",
"455 792 OFFCURVE",
"288 792 CURVE SMOOTH",
"124 792 OFFCURVE",
"22 724 OFFCURVE",
"22 624 CURVE SMOOTH",
"22 579 OFFCURVE",
"42 536 OFFCURVE",
"89 486 CURVE"
);
}
);
};
layerId = "A309AC34-D742-49E2-8DE7-30304959F2B2";
name = Bold;
paths = (
{
closed = 1;
nodes = (
"137 487 LINE",
"117 512 OFFCURVE",
"101 543 OFFCURVE",
"101 576 CURVE SMOOTH",
"101 641 OFFCURVE",
"160 695 OFFCURVE",
"313 695 CURVE SMOOTH",
"431 695 OFFCURVE",
"588 663 OFFCURVE",
"758 545 CURVE",
"794 592 LINE",
"626 722 OFFCURVE",
"455 792 OFFCURVE",
"288 792 CURVE SMOOTH",
"124 792 OFFCURVE",
"22 724 OFFCURVE",
"22 624 CURVE SMOOTH",
"22 579 OFFCURVE",
"42 536 OFFCURVE",
"89 486 CURVE"
);
},
{
closed = 1;
nodes = (
"133 0 LINE",
"133 467 LINE",
"53 467 LINE",
"53 0 LINE"
);
},
{
closed = 1;
nodes = (
"213 456 LINE",
"213 521 LINE",
"-30 521 LINE",
"-30 456 LINE"
);
}
);
width = 183;
}
);
},
{
color = -1;
glyphname = bSignI.wide4;
lastChange = "2016-03-04 22:25:06 +0000";
layers = (
{
background = {
paths = (
{
closed = 1;
nodes = (
"107 487 LINE",
"89 506 OFFCURVE",
"78 537 OFFCURVE",
"78 561 CURVE SMOOTH",
"78 633 OFFCURVE",
"171 692 OFFCURVE",
"336 692 CURVE SMOOTH",
"488 692 OFFCURVE",
"676 645 OFFCURVE",
"869 530 CURVE",
"883 550 LINE",
"676 681 OFFCURVE",
"481 736 OFFCURVE",
"319 736 CURVE SMOOTH",
"144 736 OFFCURVE",
"35 669 OFFCURVE",
"35 582 CURVE SMOOTH",
"35 550 OFFCURVE",
"50 515 OFFCURVE",
"78 486 CURVE"
);
},
{
closed = 1;
nodes = (
"113 0 LINE",
"113 467 LINE",
"73 467 LINE",
"73 0 LINE"
);
},
{
closed = 1;
nodes = (
"195 456 LINE",
"195 491 LINE",
"-10 491 LINE",
"-10 456 LINE"
);
}
);
};
layerId = "F2EBC5D5-DDE2-4851-B52F-F2293ECE9CC7";
name = Light;
paths = (
{
closed = 1;
nodes = (
"107 487 LINE",
"89 506 OFFCURVE",
"78 537 OFFCURVE",
"78 561 CURVE SMOOTH",
"78 634 OFFCURVE",
"174 693 OFFCURVE",
"346 693 CURVE SMOOTH",
"499 693 OFFCURVE",
"690 646 OFFCURVE",
"886 530 CURVE",
"900 550 LINE",
"690 682 OFFCURVE",
"492 737 OFFCURVE",
"329 737 CURVE SMOOTH",
"147 737 OFFCURVE",
"35 669 OFFCURVE",
"35 582 CURVE SMOOTH",
"35 550 OFFCURVE",
"50 515 OFFCURVE",
"78 486 CURVE"
);
},
{
closed = 1;
nodes = (
"113 0 LINE",
"113 467 LINE",
"73 467 LINE",
"73 0 LINE"
);
},
{
closed = 1;
nodes = (
"195 456 LINE",
"195 491 LINE",
"-10 491 LINE",
"-10 456 LINE"
);
}
);
width = 185;
},
{
background = {
paths = (
{
closed = 1;
nodes = (
"137 487 LINE",
"117 512 OFFCURVE",
"101 543 OFFCURVE",
"101 573 CURVE SMOOTH",
"101 643 OFFCURVE",
"189 699 OFFCURVE",
"371 699 CURVE SMOOTH",
"541 699 OFFCURVE",
"729 650 OFFCURVE",
"923 545 CURVE",
"953 593 LINE",
"757 716 OFFCURVE",
"541 796 OFFCURVE",
"335 796 CURVE SMOOTH",
"142 796 OFFCURVE",
"22 726 OFFCURVE",
"22 622 CURVE SMOOTH",
"22 579 OFFCURVE",
"42 536 OFFCURVE",
"89 486 CURVE"
);
},
{
closed = 1;
nodes = (
"133 0 LINE",
"133 467 LINE",
"53 467 LINE",
"53 0 LINE"
);
},
{
closed = 1;
nodes = (
"213 456 LINE",
"213 521 LINE",
"-30 521 LINE",
"-30 456 LINE"
);
}
);
};
layerId = "A309AC34-D742-49E2-8DE7-30304959F2B2";
name = Bold;
paths = (
{
closed = 1;
nodes = (
"137 487 LINE",
"117 512 OFFCURVE",
"101 543 OFFCURVE",
"101 573 CURVE SMOOTH",
"101 643 OFFCURVE",
"189 699 OFFCURVE",
"371 699 CURVE SMOOTH",
"541 699 OFFCURVE",
"729 650 OFFCURVE",
"923 545 CURVE",
"953 593 LINE",
"757 716 OFFCURVE",
"541 796 OFFCURVE",
"335 796 CURVE SMOOTH",
"142 796 OFFCURVE",
"22 726 OFFCURVE",
"22 622 CURVE SMOOTH",
"22 579 OFFCURVE",
"42 536 OFFCURVE",
"89 486 CURVE"
);
},
{
closed = 1;
nodes = (
"133 0 LINE",
"133 467 LINE",
"53 467 LINE",
"53 0 LINE"
);
},
{
closed = 1;
nodes = (
"213 456 LINE",
"213 521 LINE",
"-30 521 LINE",
"-30 456 LINE"
);
}
);
width = 183;
}
);
},
{
color = -1;
glyphname = bSignI.wide5;
lastChange = "2016-03-10 08:24:32 +0000";
layers = (
{
background = {
paths = (
{
closed = 1;
nodes = (
"107 487 LINE",
"89 506 OFFCURVE",
"78 537 OFFCURVE",
"78 561 CURVE SMOOTH",
"78 634 OFFCURVE",
"175 694 OFFCURVE",
"351 694 CURVE SMOOTH",
"512 694 OFFCURVE",
"712 647 OFFCURVE",
"917 530 CURVE",
"931 551 LINE",
"711 683 OFFCURVE",
"505 738 OFFCURVE",
"334 738 CURVE SMOOTH",
"149 738 OFFCURVE",
"35 670 OFFCURVE",
"35 582 CURVE SMOOTH",
"35 550 OFFCURVE",
"50 515 OFFCURVE",
"78 486 CURVE"
);
},
{
closed = 1;
nodes = (
"113 0 LINE",
"113 467 LINE",
"73 467 LINE",
"73 0 LINE"
);
},
{
closed = 1;
nodes = (
"195 456 LINE",
"195 491 LINE",
"-10 491 LINE",
"-10 456 LINE"
);
}
);
};
layerId = "F2EBC5D5-DDE2-4851-B52F-F2293ECE9CC7";
name = Light;
paths = (
{
closed = 1;
nodes = (
"107 487 LINE",
"89 506 OFFCURVE",
"78 537 OFFCURVE",
"78 561 CURVE SMOOTH",
"78 634 OFFCURVE",
"176 694 OFFCURVE",
"359 694 CURVE SMOOTH",
"520 694 OFFCURVE",
"726 648 OFFCURVE",
"936 530 CURVE",
"950 551 LINE",
"725 684 OFFCURVE",
"513 738 OFFCURVE",
"342 738 CURVE SMOOTH",
"150 738 OFFCURVE",
"35 670 OFFCURVE",
"35 582 CURVE SMOOTH",
"35 550 OFFCURVE",
"50 515 OFFCURVE",
"78 486 CURVE"
);
},
{
closed = 1;
nodes = (
"113 0 LINE",
"113 467 LINE",
"73 467 LINE",
"73 0 LINE"
);
},
{
closed = 1;
nodes = (
"195 456 LINE",
"195 491 LINE",
"-10 491 LINE",
"-10 456 LINE"
);
}
);
width = 185;
},
{
background = {
paths = (
{
closed = 1;
nodes = (
"137 487 LINE",
"117 512 OFFCURVE",
"101 543 OFFCURVE",
"101 573 CURVE SMOOTH",
"101 644 OFFCURVE",
"191 701 OFFCURVE",
"397 701 CURVE SMOOTH",
"588 701 OFFCURVE",
"817 651 OFFCURVE",
"1049 545 CURVE",
"1075 595 LINE",
"848 716 OFFCURVE",
"590 798 OFFCURVE",
"360 798 CURVE SMOOTH",
"145 798 OFFCURVE",
"22 727 OFFCURVE",
"22 622 CURVE SMOOTH",
"22 579 OFFCURVE",
"42 536 OFFCURVE",
"89 486 CURVE"
);
},
{
closed = 1;
nodes = (
"133 0 LINE",
"133 467 LINE",
"53 467 LINE",
"53 0 LINE"
);
},
{
closed = 1;
nodes = (
"213 456 LINE",
"213 521 LINE",
"-30 521 LINE",
"-30 456 LINE"
);
}
);
};
layerId = "A309AC34-D742-49E2-8DE7-30304959F2B2";
name = Bold;
paths = (
{
closed = 1;
nodes = (
"137 487 LINE",
"117 512 OFFCURVE",
"101 543 OFFCURVE",
"101 573 CURVE SMOOTH",
"101 643 OFFCURVE",
"188 700 OFFCURVE",
"382 700 CURVE SMOOTH",
"564 700 OFFCURVE",
"778 650 OFFCURVE",
"996 545 CURVE",
"1024 594 LINE",
"811 715 OFFCURVE",
"566 797 OFFCURVE",
"346 797 CURVE SMOOTH",
"142 797 OFFCURVE",
"22 726 OFFCURVE",
"22 622 CURVE SMOOTH",
"22 579 OFFCURVE",
"42 536 OFFCURVE",
"89 486 CURVE"
);
},
{
closed = 1;
nodes = (
"133 0 LINE",
"133 467 LINE",
"53 467 LINE",
"53 0 LINE"
);
},
{
closed = 1;
nodes = (
"213 456 LINE",
"213 521 LINE",
"-30 521 LINE",
"-30 456 LINE"
);
}
);
width = 183;
}
);
},
{
color = -1;
glyphname = bSignIi;
lastChange = "2016-03-05 06:16:03 +0000";
layers = (
{
layerId = "F2EBC5D5-DDE2-4851-B52F-F2293ECE9CC7";
name = Light;
paths = (
{
closed = 1;
nodes = (
"107 634 OFFCURVE",
"-33 743 OFFCURVE",
"-200 743 CURVE SMOOTH",
"-320 743 OFFCURVE",
"-392 686 OFFCURVE",
"-392 628 CURVE SMOOTH",
"-392 576 OFFCURVE",
"-333 546 OFFCURVE",
"-271 546 CURVE SMOOTH",
"-243 546 OFFCURVE",
"-179 552 OFFCURVE",
"-159 552 CURVE SMOOTH",
"-127 552 OFFCURVE",
"-105 538 OFFCURVE",
"-105 504 CURVE SMOOTH",
"-105 497 OFFCURVE",
"-106 489 OFFCURVE",
"-108 481 CURVE",
"-72 481 LINE",
"-72 544 OFFCURVE",
"-121 596 OFFCURVE",
"-186 596 CURVE SMOOTH",
"-210 596 OFFCURVE",
"-282 589 OFFCURVE",
"-310 589 CURVE SMOOTH",
"-344 589 OFFCURVE",
"-363 600 OFFCURVE",
"-363 620 CURVE SMOOTH",
"-363 661 OFFCURVE",
"-286 694 OFFCURVE",
"-187 694 CURVE SMOOTH",
"-27 694 OFFCURVE",
"74 609 OFFCURVE",
"74 490 CURVE",
"113 489 LINE"
);
},
{
closed = 1;
nodes = (
"115 0 LINE",
"115 467 LINE",
"75 467 LINE",
"75 0 LINE"
);
},
{
closed = 1;
nodes = (
"195 456 LINE",
"195 491 LINE",
"-10 491 LINE",
"-10 456 LINE"
);
}
);
width = 185;
},
{
layerId = "A309AC34-D742-49E2-8DE7-30304959F2B2";
name = Bold;
paths = (
{
closed = 1;
nodes = (
"123 641 OFFCURVE",
"-14 791 OFFCURVE",
"-216 791 CURVE SMOOTH",
"-341 791 OFFCURVE",
"-424 733 OFFCURVE",
"-424 667 CURVE SMOOTH",
"-424 611 OFFCURVE",
"-364 557 OFFCURVE",
"-292 557 CURVE SMOOTH",
"-258 557 OFFCURVE",
"-202 569 OFFCURVE",
"-168 569 CURVE SMOOTH",
"-139 569 OFFCURVE",
"-124 560 OFFCURVE",
"-124 542 CURVE SMOOTH",
"-124 535 OFFCURVE",
"-126 527 OFFCURVE",
"-130 520 CURVE",
"-52 520 LINE",
"-63 590 OFFCURVE",
"-108 654 OFFCURVE",
"-201 654 CURVE SMOOTH",
"-248 654 OFFCURVE",
"-306 638 OFFCURVE",
"-333 638 CURVE SMOOTH",
"-350 638 OFFCURVE",
"-359 644 OFFCURVE",
"-359 653 CURVE SMOOTH",
"-359 680 OFFCURVE",
"-286 710 OFFCURVE",
"-190 710 CURVE SMOOTH",
"-34 710 OFFCURVE",
"52 630 OFFCURVE",
"52 500 CURVE",
"131 499 LINE"
);
},
{
closed = 1;
nodes = (
"133 0 LINE",
"133 467 LINE",
"53 467 LINE",
"53 0 LINE"
);
},
{
closed = 1;
nodes = (
"213 456 LINE",
"213 521 LINE",
"-22 521 LINE",
"-22 456 LINE"
);
}
);
width = 183;
}
);
},
{
color = -1;
glyphname = bSignIi.alt;
lastChange = "2016-03-05 06:15:44 +0000";
layers = (
{
background = {
paths = (
{
closed = 1;
nodes = (
"107 634 OFFCURVE",
"-33 743 OFFCURVE",
"-200 743 CURVE SMOOTH",
"-320 743 OFFCURVE",
"-392 686 OFFCURVE",
"-392 628 CURVE SMOOTH",
"-392 576 OFFCURVE",
"-333 546 OFFCURVE",
"-271 546 CURVE SMOOTH",
"-243 546 OFFCURVE",
"-179 552 OFFCURVE",
"-159 552 CURVE SMOOTH",
"-127 552 OFFCURVE",
"-105 538 OFFCURVE",
"-105 504 CURVE SMOOTH",
"-105 497 OFFCURVE",
"-106 489 OFFCURVE",
"-108 481 CURVE",
"-72 481 LINE",
"-72 544 OFFCURVE",
"-121 596 OFFCURVE",
"-186 596 CURVE SMOOTH",
"-210 596 OFFCURVE",
"-282 589 OFFCURVE",
"-310 589 CURVE SMOOTH",
"-344 589 OFFCURVE",
"-363 600 OFFCURVE",
"-363 620 CURVE SMOOTH",
"-363 661 OFFCURVE",
"-286 694 OFFCURVE",
"-187 694 CURVE SMOOTH",
"-27 694 OFFCURVE",
"74 609 OFFCURVE",
"74 490 CURVE",
"113 489 LINE"
);
},
{
closed = 1;
nodes = (
"115 0 LINE",
"115 467 LINE",
"75 467 LINE",
"75 0 LINE"
);
},
{
closed = 1;
nodes = (
"195 456 LINE",
"195 491 LINE",
"-10 491 LINE",
"-10 456 LINE"
);
}
);
};
layerId = "F2EBC5D5-DDE2-4851-B52F-F2293ECE9CC7";
name = Light;
paths = (
{
closed = 1;
nodes = (
"-233 609 LINE",
"-262 609 OFFCURVE",
"-278 617 OFFCURVE",
"-278 634 CURVE SMOOTH",
"-278 667 OFFCURVE",
"-222 694 OFFCURVE",
"-146 694 CURVE SMOOTH",
"-1 694 OFFCURVE",
"74 594 OFFCURVE",
"74 490 CURVE",
"113 489 LINE",
"103 639 OFFCURVE",
"-24 743 OFFCURVE",
"-159 743 CURVE SMOOTH",
"-251 743 OFFCURVE",
"-307 694 OFFCURVE",
"-307 641 CURVE SMOOTH",
"-307 601 OFFCURVE",
"-273 579 OFFCURVE",
"-227 573 CURVE"
);
},
{
closed = 1;
nodes = (
"115 0 LINE",
"115 467 LINE",
"75 467 LINE",
"75 0 LINE"
);
},
{
closed = 1;
nodes = (
"195 456 LINE",
"195 491 LINE",
"-10 491 LINE",
"-10 456 LINE"
);
}
);
width = 185;
},
{
background = {
paths = (
{
closed = 1;
nodes = (
"123 641 OFFCURVE",
"-14 791 OFFCURVE",
"-216 791 CURVE SMOOTH",
"-341 791 OFFCURVE",
"-424 733 OFFCURVE",
"-424 667 CURVE SMOOTH",
"-424 611 OFFCURVE",
"-364 557 OFFCURVE",
"-292 557 CURVE SMOOTH",
"-258 557 OFFCURVE",
"-202 569 OFFCURVE",
"-168 569 CURVE SMOOTH",
"-139 569 OFFCURVE",
"-124 560 OFFCURVE",
"-124 542 CURVE SMOOTH",
"-124 535 OFFCURVE",
"-126 527 OFFCURVE",
"-130 520 CURVE",
"-52 520 LINE",
"-63 590 OFFCURVE",
"-108 654 OFFCURVE",
"-201 654 CURVE SMOOTH",
"-248 654 OFFCURVE",
"-306 638 OFFCURVE",
"-333 638 CURVE SMOOTH",
"-350 638 OFFCURVE",
"-359 644 OFFCURVE",
"-359 653 CURVE SMOOTH",
"-359 680 OFFCURVE",
"-286 710 OFFCURVE",
"-190 710 CURVE SMOOTH",
"-34 710 OFFCURVE",
"52 630 OFFCURVE",
"52 500 CURVE",
"131 499 LINE"
);
},
{
closed = 1;
nodes = (
"133 0 LINE",
"133 467 LINE",
"53 467 LINE",
"53 0 LINE"
);
},
{
closed = 1;
nodes = (
"213 456 LINE",
"213 521 LINE",
"-22 521 LINE",
"-22 456 LINE"
);
}
);
};
layerId = "A309AC34-D742-49E2-8DE7-30304959F2B2";
name = Bold;
paths = (
{
closed = 1;
nodes = (
"-277 658 LINE",
"-286 658 OFFCURVE",
"-290 662 OFFCURVE",
"-290 668 CURVE SMOOTH",
"-290 689 OFFCURVE",
"-236 710 OFFCURVE",
"-167 710 CURVE SMOOTH",
"-32 710 OFFCURVE",
"52 630 OFFCURVE",
"52 500 CURVE",
"131 499 LINE",
"122 647 OFFCURVE",
"-13 791 OFFCURVE",
"-185 791 CURVE SMOOTH",
"-286 791 OFFCURVE",
"-358 742 OFFCURVE",
"-358 688 CURVE SMOOTH",
"-358 645 OFFCURVE",
"-313 609 OFFCURVE",
"-262 600 CURVE"
);
},
{
closed = 1;
nodes = (
"133 0 LINE",
"133 467 LINE",
"53 467 LINE",
"53 0 LINE"
);
},
{
closed = 1;
nodes = (
"213 456 LINE",
"213 521 LINE",
"-22 521 LINE",
"-22 456 LINE"
);
}
);
width = 183;
}
);
},
{
glyphname = bSignU;
lastChange = "2016-03-05 08:50:34 +0000";
layers = (
{
background = {
paths = (
{
closed = 1;
nodes = (
"54 -129 LINE",
"-64 -14 OFFCURVE",
"-114 22 OFFCURVE",
"-171 22 CURVE SMOOTH",
"-229 22 OFFCURVE",
"-259 -15 OFFCURVE",
"-259 -54 CURVE SMOOTH",
"-259 -99 OFFCURVE",
"-218 -136 OFFCURVE",
"-169 -136 CURVE SMOOTH",
"-114 -136 OFFCURVE",
"-70 -91 OFFCURVE",
"-70 -33 CURVE",
"-105 -12 LINE",
"-105 -71 OFFCURVE",
"-143 -102 OFFCURVE",
"-181 -102 CURVE SMOOTH",
"-209 -102 OFFCURVE",
"-223 -85 OFFCURVE",
"-223 -66 CURVE SMOOTH",
"-223 -43 OFFCURVE",
"-205 -17 OFFCURVE",
"-162 -17 CURVE SMOOTH",
"-112 -17 OFFCURVE",
"-60 -53 OFFCURVE",
"37 -146 CURVE"
);
},
{
closed = 1;
nodes = (
"-70 22 LINE SMOOTH",
"-70 26 OFFCURVE",
"-73 31 OFFCURVE",
"-79 37 CURVE SMOOTH",
"-83 41 OFFCURVE",
"-92 49 OFFCURVE",
"-105 60 CURVE",
"-105 -23 LINE",
"-70 -48 LINE"
);
}
);
};
layerId = "F2EBC5D5-DDE2-4851-B52F-F2293ECE9CC7";
name = Light;
paths = (
{
closed = 1;
nodes = (
"54 -129 LINE",
"-64 -14 OFFCURVE",
"-114 22 OFFCURVE",
"-171 22 CURVE SMOOTH",
"-229 22 OFFCURVE",
"-259 -15 OFFCURVE",
"-259 -54 CURVE SMOOTH",
"-259 -99 OFFCURVE",
"-218 -136 OFFCURVE",
"-169 -136 CURVE SMOOTH",
"-114 -136 OFFCURVE",
"-70 -91 OFFCURVE",
"-70 -33 CURVE",
"-102 -12 LINE",
"-102 -71 OFFCURVE",
"-142 -102 OFFCURVE",
"-181 -102 CURVE SMOOTH",
"-209 -102 OFFCURVE",
"-223 -85 OFFCURVE",
"-223 -66 CURVE SMOOTH",
"-223 -43 OFFCURVE",
"-205 -17 OFFCURVE",
"-162 -17 CURVE SMOOTH",
"-112 -17 OFFCURVE",
"-60 -53 OFFCURVE",
"37 -146 CURVE"
);
},
{
closed = 1;
nodes = (
"-70 -35 OFFCURVE",
"-68 -28 OFFCURVE",
"-68 -16 CURVE SMOOTH",
"-68 2 OFFCURVE",
"-72 35 OFFCURVE",
"-79 61 CURVE",
"-101 57 LINE",
"-98 37 OFFCURVE",
"-98 19 OFFCURVE",
"-98 8 CURVE SMOOTH",
"-98 -3 OFFCURVE",
"-99 -12 OFFCURVE",
"-102 -25 CURVE",
"-71 -41 LINE"
);
}
);
width = 0;
},
{
background = {
paths = (
{
closed = 1;
nodes = (
"72 -123 LINE",
"-65 -7 OFFCURVE",
"-125 32 OFFCURVE",
"-189 32 CURVE SMOOTH",
"-256 32 OFFCURVE",
"-289 -9 OFFCURVE",
"-289 -55 CURVE SMOOTH",
"-289 -114 OFFCURVE",
"-235 -166 OFFCURVE",
"-169 -166 CURVE SMOOTH",
"-103 -166 OFFCURVE",
"-50 -115 OFFCURVE",
"-50 -45 CURVE",
"-120 -22 LINE",
"-120 -70 OFFCURVE",
"-156 -97 OFFCURVE",
"-191 -97 CURVE SMOOTH",
"-211 -97 OFFCURVE",
"-223 -88 OFFCURVE",
"-223 -72 CURVE SMOOTH",
"-223 -52 OFFCURVE",
"-203 -35 OFFCURVE",
"-172 -35 CURVE SMOOTH",
"-126 -35 OFFCURVE",
"-66 -74 OFFCURVE",
"38 -161 CURVE"
);
},
{
closed = 1;
nodes = (
"-50 42 LINE SMOOTH",
"-50 59 OFFCURVE",
"-56 65 OFFCURVE",
"-63 69 CURVE SMOOTH",
"-72 74 OFFCURVE",
"-94 81 OFFCURVE",
"-120 88 CURVE",
"-120 -33 LINE",
"-50 -65 LINE"
);
}
);
};
layerId = "A309AC34-D742-49E2-8DE7-30304959F2B2";
name = Bold;
paths = (
{
closed = 1;
nodes = (
"74 -123 LINE",
"-63 -7 OFFCURVE",
"-123 32 OFFCURVE",
"-187 32 CURVE SMOOTH",
"-254 32 OFFCURVE",
"-287 -9 OFFCURVE",
"-287 -55 CURVE SMOOTH",
"-287 -114 OFFCURVE",
"-233 -166 OFFCURVE",
"-167 -166 CURVE SMOOTH",
"-101 -166 OFFCURVE",
"-48 -115 OFFCURVE",
"-48 -45 CURVE",
"-118 -22 LINE",
"-118 -70 OFFCURVE",
"-154 -97 OFFCURVE",
"-189 -97 CURVE SMOOTH",
"-209 -97 OFFCURVE",
"-221 -88 OFFCURVE",
"-221 -72 CURVE SMOOTH",
"-221 -52 OFFCURVE",
"-201 -35 OFFCURVE",
"-170 -35 CURVE SMOOTH",
"-124 -35 OFFCURVE",
"-64 -74 OFFCURVE",
"40 -161 CURVE"
);
},
{
closed = 1;
nodes = (
"-48 -51 OFFCURVE",
"-46 -41 OFFCURVE",
"-46 -29 CURVE SMOOTH",
"-46 -2 OFFCURVE",
"-56 36 OFFCURVE",
"-72 64 CURVE",
"-116 57 LINE",
"-113 37 OFFCURVE",
"-111 20 OFFCURVE",
"-111 6 CURVE SMOOTH",
"-111 -8 OFFCURVE",
"-113 -20 OFFCURVE",
"-115 -32 CURVE",
"-50 -61 LINE"
);
}
);
width = 0;
}
);
},
{
glyphname = bSignU.alt;
lastChange = "2016-03-06 13:42:41 +0000";
layers = (
{
background = {
paths = (
{
closed = 1;
nodes = (
"54 -129 LINE",
"-64 -14 OFFCURVE",
"-114 22 OFFCURVE",
"-171 22 CURVE SMOOTH",
"-229 22 OFFCURVE",
"-259 -15 OFFCURVE",
"-259 -54 CURVE SMOOTH",
"-259 -99 OFFCURVE",
"-218 -136 OFFCURVE",
"-169 -136 CURVE SMOOTH",
"-114 -136 OFFCURVE",
"-70 -91 OFFCURVE",
"-70 -33 CURVE",
"-102 -12 LINE",
"-102 -71 OFFCURVE",
"-142 -102 OFFCURVE",
"-181 -102 CURVE SMOOTH",
"-209 -102 OFFCURVE",
"-223 -85 OFFCURVE",
"-223 -66 CURVE SMOOTH",
"-223 -43 OFFCURVE",
"-205 -17 OFFCURVE",
"-162 -17 CURVE SMOOTH",
"-112 -17 OFFCURVE",
"-60 -53 OFFCURVE",
"37 -146 CURVE"
);
},
{
closed = 1;
nodes = (
"-69 -40 OFFCURVE",
"-68 -28 OFFCURVE",
"-68 -16 CURVE SMOOTH",
"-68 21 OFFCURVE",
"-77 65 OFFCURVE",
"-101 108 CURVE",
"-122 99 LINE",
"-104 56 OFFCURVE",
"-98 29 OFFCURVE",
"-98 3 CURVE SMOOTH",
"-98 -7 OFFCURVE",
"-99 -15 OFFCURVE",
"-102 -25 CURVE",
"-71 -51 LINE"
);
}
);
};
layerId = "F2EBC5D5-DDE2-4851-B52F-F2293ECE9CC7";
name = Light;
paths = (
{
closed = 1;
nodes = (
"54 -129 LINE",
"-64 -14 OFFCURVE",
"-114 22 OFFCURVE",
"-171 22 CURVE SMOOTH",
"-229 22 OFFCURVE",
"-259 -15 OFFCURVE",
"-259 -54 CURVE SMOOTH",
"-259 -99 OFFCURVE",
"-218 -136 OFFCURVE",
"-169 -136 CURVE SMOOTH",
"-114 -136 OFFCURVE",
"-70 -91 OFFCURVE",
"-70 -33 CURVE",
"-102 -12 LINE",
"-102 -71 OFFCURVE",
"-142 -102 OFFCURVE",
"-181 -102 CURVE SMOOTH",
"-209 -102 OFFCURVE",
"-223 -85 OFFCURVE",
"-223 -66 CURVE SMOOTH",
"-223 -43 OFFCURVE",
"-205 -17 OFFCURVE",
"-162 -17 CURVE SMOOTH",
"-112 -17 OFFCURVE",
"-60 -53 OFFCURVE",
"37 -146 CURVE"
);
},
{
closed = 1;
nodes = (
"-69 -40 OFFCURVE",
"-68 -29 OFFCURVE",
"-68 -16 CURVE SMOOTH",
"-68 19 OFFCURVE",
"-76 69 OFFCURVE",
"-88 122 CURVE",
"-109 118 LINE",
"-100 68 OFFCURVE",
"-98 30 OFFCURVE",
"-98 7 CURVE SMOOTH",
"-98 -9 OFFCURVE",
"-99 -15 OFFCURVE",
"-102 -25 CURVE",
"-71 -51 LINE"
);
}
);
width = 0;
},
{
background = {
paths = (
{
closed = 1;
nodes = (
"74 -123 LINE",
"-63 -7 OFFCURVE",
"-123 32 OFFCURVE",
"-187 32 CURVE SMOOTH",
"-254 32 OFFCURVE",
"-287 -9 OFFCURVE",
"-287 -55 CURVE SMOOTH",
"-287 -114 OFFCURVE",
"-233 -166 OFFCURVE",
"-167 -166 CURVE SMOOTH",
"-101 -166 OFFCURVE",
"-48 -115 OFFCURVE",
"-48 -45 CURVE",
"-118 -22 LINE",
"-118 -70 OFFCURVE",
"-154 -97 OFFCURVE",
"-189 -97 CURVE SMOOTH",
"-209 -97 OFFCURVE",
"-221 -88 OFFCURVE",
"-221 -72 CURVE SMOOTH",
"-221 -52 OFFCURVE",
"-201 -35 OFFCURVE",
"-170 -35 CURVE SMOOTH",
"-124 -35 OFFCURVE",
"-64 -74 OFFCURVE",
"40 -161 CURVE"
);
},
{
closed = 1;
nodes = (
"-48 -51 OFFCURVE",
"-46 -41 OFFCURVE",
"-46 -27 CURVE SMOOTH",
"-46 13 OFFCURVE",
"-62 69 OFFCURVE",
"-88 121 CURVE",
"-132 107 LINE",
"-116 63 OFFCURVE",
"-111 37 OFFCURVE",
"-111 12 CURVE SMOOTH",
"-111 -3 OFFCURVE",
"-113 -18 OFFCURVE",
"-117 -32 CURVE",
"-50 -61 LINE"
);
}
);
};
layerId = "A309AC34-D742-49E2-8DE7-30304959F2B2";
name = Bold;
paths = (
{
closed = 1;
nodes = (
"74 -123 LINE",
"-63 -7 OFFCURVE",
"-123 32 OFFCURVE",
"-187 32 CURVE SMOOTH",
"-254 32 OFFCURVE",
"-287 -9 OFFCURVE",
"-287 -55 CURVE SMOOTH",
"-287 -114 OFFCURVE",
"-233 -166 OFFCURVE",
"-167 -166 CURVE SMOOTH",
"-101 -166 OFFCURVE",
"-48 -115 OFFCURVE",
"-48 -45 CURVE",
"-118 -22 LINE",
"-118 -70 OFFCURVE",
"-154 -97 OFFCURVE",
"-189 -97 CURVE SMOOTH",
"-209 -97 OFFCURVE",
"-221 -88 OFFCURVE",
"-221 -72 CURVE SMOOTH",
"-221 -52 OFFCURVE",
"-201 -35 OFFCURVE",
"-170 -35 CURVE SMOOTH",
"-124 -35 OFFCURVE",
"-64 -74 OFFCURVE",
"40 -161 CURVE"
);
},
{
closed = 1;
nodes = (
"-48 -51 OFFCURVE",
"-46 -41 OFFCURVE",
"-46 -27 CURVE SMOOTH",
"-46 12 OFFCURVE",
"-62 71 OFFCURVE",
"-84 127 CURVE",
"-127 114 LINE",
"-115 67 OFFCURVE",
"-111 38 OFFCURVE",
"-111 14 CURVE SMOOTH",
"-111 -3 OFFCURVE",
"-113 -18 OFFCURVE",
"-117 -32 CURVE",
"-50 -61 LINE"
);
}
);
width = 0;
}
);
},
{
glyphname = bSignU.alt2;
lastChange = "2016-03-06 15:03:23 +0000";
layers = (
{
background = {
paths = (
{
closed = 1;
nodes = (
"54 -119 LINE",
"-59 -12 OFFCURVE",
"-106 22 OFFCURVE",
"-164 22 CURVE SMOOTH",
"-225 22 OFFCURVE",
"-259 -15 OFFCURVE",
"-259 -55 CURVE SMOOTH",
"-259 -99 OFFCURVE",
"-216 -136 OFFCURVE",
"-168 -136 CURVE SMOOTH",
"-121 -136 OFFCURVE",
"-91 -99 OFFCURVE",
"-91 -55 CURVE SMOOTH",
"-91 -41 OFFCURVE",
"-95 -27 OFFCURVE",
"-103 -11 CURVE",
"-133 -1 LINE",
"-123 -19 OFFCURVE",
"-121 -30 OFFCURVE",
"-121 -41 CURVE SMOOTH",
"-121 -82 OFFCURVE",
"-148 -103 OFFCURVE",
"-180 -103 CURVE SMOOTH",
"-207 -103 OFFCURVE",
"-223 -87 OFFCURVE",
"-223 -67 CURVE SMOOTH",
"-223 -43 OFFCURVE",
"-201 -17 OFFCURVE",
"-155 -17 CURVE SMOOTH",
"-104 -17 OFFCURVE",
"-55 -50 OFFCURVE",
"37 -136 CURVE"
);
}
);
};
layerId = "F2EBC5D5-DDE2-4851-B52F-F2293ECE9CC7";
name = Light;
paths = (
{
closed = 1;
nodes = (
"54 -119 LINE",
"-59 -12 OFFCURVE",
"-106 22 OFFCURVE",
"-164 22 CURVE SMOOTH",
"-225 22 OFFCURVE",
"-259 -15 OFFCURVE",
"-259 -55 CURVE SMOOTH",
"-259 -99 OFFCURVE",
"-216 -136 OFFCURVE",
"-168 -136 CURVE SMOOTH",
"-121 -136 OFFCURVE",
"-91 -99 OFFCURVE",
"-91 -55 CURVE SMOOTH",
"-91 -41 OFFCURVE",
"-95 -27 OFFCURVE",
"-103 -11 CURVE",
"-133 -1 LINE",
"-123 -19 OFFCURVE",
"-121 -30 OFFCURVE",
"-121 -41 CURVE SMOOTH",
"-121 -82 OFFCURVE",
"-148 -103 OFFCURVE",
"-180 -103 CURVE SMOOTH",
"-207 -103 OFFCURVE",
"-223 -87 OFFCURVE",
"-223 -67 CURVE SMOOTH",
"-223 -43 OFFCURVE",
"-201 -17 OFFCURVE",
"-155 -17 CURVE SMOOTH",
"-104 -17 OFFCURVE",
"-55 -50 OFFCURVE",
"37 -136 CURVE"
);
}
);
width = 0;
},
{
background = {
paths = (
{
closed = 1;
nodes = (
"74 -123 LINE",
"-55 -14 OFFCURVE",
"-111 32 OFFCURVE",
"-185 32 CURVE SMOOTH",
"-255 32 OFFCURVE",
"-287 -9 OFFCURVE",
"-287 -54 CURVE SMOOTH",
"-287 -114 OFFCURVE",
"-232 -166 OFFCURVE",
"-171 -166 CURVE SMOOTH",
"-120 -166 OFFCURVE",
"-78 -130 OFFCURVE",
"-78 -71 CURVE SMOOTH",
"-78 -59 OFFCURVE",
"-80 -48 OFFCURVE",
"-83 -35 CURVE",
"-148 -12 LINE",
"-144 -25 OFFCURVE",
"-142 -36 OFFCURVE",
"-142 -46 CURVE SMOOTH",
"-142 -81 OFFCURVE",
"-166 -97 OFFCURVE",
"-190 -97 CURVE SMOOTH",
"-208 -97 OFFCURVE",
"-221 -88 OFFCURVE",
"-221 -72 CURVE SMOOTH",
"-221 -52 OFFCURVE",
"-201 -35 OFFCURVE",
"-170 -35 CURVE SMOOTH",
"-124 -35 OFFCURVE",
"-64 -74 OFFCURVE",
"40 -161 CURVE"
);
}
);
};
layerId = "A309AC34-D742-49E2-8DE7-30304959F2B2";
name = Bold;
paths = (
{
closed = 1;
nodes = (
"74 -123 LINE",
"-55 -14 OFFCURVE",
"-112 32 OFFCURVE",
"-183 32 CURVE SMOOTH",
"-250 32 OFFCURVE",
"-287 -8 OFFCURVE",
"-287 -55 CURVE SMOOTH",
"-287 -113 OFFCURVE",
"-232 -166 OFFCURVE",
"-170 -166 CURVE SMOOTH",
"-121 -166 OFFCURVE",
"-79 -131 OFFCURVE",
"-79 -79 CURVE SMOOTH",
"-79 -50 OFFCURVE",
"-91 -31 OFFCURVE",
"-103 -15 CURVE",
"-158 -12 LINE",
"-151 -21 OFFCURVE",
"-142 -40 OFFCURVE",
"-142 -57 CURVE SMOOTH",
"-142 -83 OFFCURVE",
"-162 -99 OFFCURVE",
"-187 -99 CURVE SMOOTH",
"-207 -99 OFFCURVE",
"-221 -88 OFFCURVE",
"-221 -72 CURVE SMOOTH",
"-221 -52 OFFCURVE",
"-201 -35 OFFCURVE",
"-170 -35 CURVE SMOOTH",
"-124 -35 OFFCURVE",
"-64 -74 OFFCURVE",
"40 -161 CURVE"
);
}
);
width = 0;
}
);
},
{
glyphname = bSignUu;
lastChange = "2016-03-10 12:30:22 +0000";
layers = (
{
layerId = "F2EBC5D5-DDE2-4851-B52F-F2293ECE9CC7";
name = Light;
paths = (
{
closed = 1;
nodes = (
"-116 -140 OFFCURVE",
"-82 -119 OFFCURVE",
"-61 -97 CURVE",
"-95 -72 LINE",
"-116 -89 OFFCURVE",
"-144 -99 OFFCURVE",
"-169 -99 CURVE SMOOTH",
"-199 -99 OFFCURVE",
"-213 -84 OFFCURVE",
"-213 -65 CURVE SMOOTH",
"-213 -45 OFFCURVE",
"-198 -19 OFFCURVE",
"-147 -19 CURVE SMOOTH",
"-128 -19 OFFCURVE",
"-99 -23 OFFCURVE",
"-70 -32 CURVE",
"-70 -4 LINE",
"-104 15 OFFCURVE",
"-133 22 OFFCURVE",
"-159 22 CURVE SMOOTH",
"-220 22 OFFCURVE",
"-249 -15 OFFCURVE",
"-249 -54 CURVE SMOOTH",
"-249 -101 OFFCURVE",
"-206 -140 OFFCURVE",
"-154 -140 CURVE SMOOTH"
);
},
{
closed = 1;
nodes = (
"55 -186 LINE",
"-7 -134 OFFCURVE",
"-54 -98 OFFCURVE",
"-95 -72 CURVE",
"-93 -115 LINE",
"-59 -135 OFFCURVE",
"-19 -162 OFFCURVE",
"37 -206 CURVE"
);
},
{
closed = 1;
nodes = (
"-69 -28 OFFCURVE",
"-68 -20 OFFCURVE",
"-68 -12 CURVE SMOOTH",
"-68 2 OFFCURVE",
"-72 35 OFFCURVE",
"-79 61 CURVE",
"-101 57 LINE",
"-99 43 OFFCURVE",
"-98 29 OFFCURVE",
"-98 8 CURVE SMOOTH",
"-98 0 OFFCURVE",
"-99 -7 OFFCURVE",
"-101 -17 CURVE",
"-70 -32 LINE"
);
}
);
width = 0;
},
{
background = {
paths = (
{
closed = 1;
nodes = (
"74 -123 LINE",
"-63 -7 OFFCURVE",
"-123 32 OFFCURVE",
"-187 32 CURVE SMOOTH",
"-254 32 OFFCURVE",
"-287 -9 OFFCURVE",
"-287 -55 CURVE SMOOTH",
"-287 -114 OFFCURVE",
"-233 -166 OFFCURVE",
"-167 -166 CURVE SMOOTH",
"-101 -166 OFFCURVE",
"-48 -115 OFFCURVE",
"-48 -45 CURVE",
"-118 -22 LINE",
"-118 -70 OFFCURVE",
"-154 -97 OFFCURVE",
"-189 -97 CURVE SMOOTH",
"-209 -97 OFFCURVE",
"-221 -88 OFFCURVE",
"-221 -72 CURVE SMOOTH",
"-221 -52 OFFCURVE",
"-201 -35 OFFCURVE",
"-170 -35 CURVE SMOOTH",
"-124 -35 OFFCURVE",
"-64 -74 OFFCURVE",
"40 -161 CURVE"
);
},
{
closed = 1;
nodes = (
"-48 -51 OFFCURVE",
"-46 -41 OFFCURVE",
"-46 -29 CURVE SMOOTH",
"-46 -2 OFFCURVE",
"-56 36 OFFCURVE",
"-72 64 CURVE",
"-116 57 LINE",
"-110 18 OFFCURVE",
"-110 -6 OFFCURVE",
"-115 -32 CURVE",
"-50 -61 LINE"
);
}
);
};
layerId = "A309AC34-D742-49E2-8DE7-30304959F2B2";
name = Bold;
paths = (
{
closed = 1;
nodes = (
"-112 -171 OFFCURVE",
"-70 -153 OFFCURVE",
"-35 -135 CURVE",
"-80 -73 LINE",
"-116 -90 OFFCURVE",
"-149 -98 OFFCURVE",
"-173 -98 CURVE SMOOTH",
"-200 -98 OFFCURVE",
"-215 -88 OFFCURVE",
"-215 -72 CURVE SMOOTH",
"-215 -52 OFFCURVE",
"-189 -36 OFFCURVE",
"-142 -36 CURVE SMOOTH",
"-117 -36 OFFCURVE",
"-92 -40 OFFCURVE",
"-48 -48 CURVE",
"-60 4 LINE",
"-103 24 OFFCURVE",
"-141 32 OFFCURVE",
"-171 32 CURVE SMOOTH",
"-238 32 OFFCURVE",
"-279 -7 OFFCURVE",
"-279 -58 CURVE SMOOTH",
"-279 -116 OFFCURVE",
"-225 -171 OFFCURVE",
"-153 -171 CURVE SMOOTH"
);
},
{
closed = 1;
nodes = (
"72 -193 LINE",
"11 -142 OFFCURVE",
"-42 -99 OFFCURVE",
"-80 -73 CURVE",
"-95 -132 LINE",
"-60 -153 OFFCURVE",
"-17 -186 OFFCURVE",
"38 -231 CURVE"
);
},
{
closed = 1;
nodes = (
"-47 -40 OFFCURVE",
"-47 -34 OFFCURVE",
"-47 -28 CURVE SMOOTH",
"-47 7 OFFCURVE",
"-57 36 OFFCURVE",
"-72 64 CURVE",
"-116 57 LINE",
"-113 37 OFFCURVE",
"-111 20 OFFCURVE",
"-111 5 CURVE SMOOTH",
"-111 -8 OFFCURVE",
"-113 -21 OFFCURVE",
"-115 -33 CURVE",
"-48 -48 LINE"
);
}
);
width = 0;
}
);
},
{
glyphname = bSignUu.alt;
lastChange = "2016-03-06 15:39:30 +0000";
layers = (
{
background = {
paths = (
{
closed = 1;
nodes = (
"-69 -40 OFFCURVE",
"-68 -29 OFFCURVE",
"-68 -16 CURVE SMOOTH",
"-68 19 OFFCURVE",
"-76 69 OFFCURVE",
"-88 122 CURVE",
"-109 118 LINE",
"-100 68 OFFCURVE",
"-98 30 OFFCURVE",
"-98 7 CURVE SMOOTH",
"-98 -9 OFFCURVE",
"-99 -15 OFFCURVE",
"-102 -25 CURVE",
"-71 -51 LINE"
);
}
);
};
layerId = "F2EBC5D5-DDE2-4851-B52F-F2293ECE9CC7";
name = Light;
paths = (
{
closed = 1;
nodes = (
"-116 -140 OFFCURVE",
"-82 -119 OFFCURVE",
"-61 -97 CURVE",
"-95 -72 LINE",
"-116 -89 OFFCURVE",
"-144 -99 OFFCURVE",
"-169 -99 CURVE SMOOTH",
"-199 -99 OFFCURVE",
"-213 -84 OFFCURVE",
"-213 -65 CURVE SMOOTH",
"-213 -45 OFFCURVE",
"-198 -19 OFFCURVE",
"-147 -19 CURVE SMOOTH",
"-128 -19 OFFCURVE",
"-99 -23 OFFCURVE",
"-70 -32 CURVE",
"-70 -4 LINE",
"-104 15 OFFCURVE",
"-133 22 OFFCURVE",
"-159 22 CURVE SMOOTH",
"-220 22 OFFCURVE",
"-249 -15 OFFCURVE",
"-249 -54 CURVE SMOOTH",
"-249 -101 OFFCURVE",
"-206 -140 OFFCURVE",
"-154 -140 CURVE SMOOTH"
);
},
{
closed = 1;
nodes = (
"55 -186 LINE",
"-7 -134 OFFCURVE",
"-54 -98 OFFCURVE",
"-95 -72 CURVE",
"-93 -115 LINE",
"-59 -135 OFFCURVE",
"-19 -162 OFFCURVE",
"37 -206 CURVE"
);
},
{
closed = 1;
nodes = (
"-69 -28 OFFCURVE",
"-68 -20 OFFCURVE",
"-68 -10 CURVE SMOOTH",
"-68 20 OFFCURVE",
"-78 81 OFFCURVE",
"-88 122 CURVE",
"-109 118 LINE",
"-103 89 OFFCURVE",
"-98 44 OFFCURVE",
"-98 13 CURVE SMOOTH",
"-98 -1 OFFCURVE",
"-99 -7 OFFCURVE",
"-101 -17 CURVE",
"-70 -32 LINE"
);
}
);
width = 0;
},
{
background = {
paths = (
{
closed = 1;
nodes = (
"74 -123 LINE",
"-63 -7 OFFCURVE",
"-123 32 OFFCURVE",
"-187 32 CURVE SMOOTH",
"-254 32 OFFCURVE",
"-287 -9 OFFCURVE",
"-287 -55 CURVE SMOOTH",
"-287 -114 OFFCURVE",
"-233 -166 OFFCURVE",
"-167 -166 CURVE SMOOTH",
"-101 -166 OFFCURVE",
"-48 -115 OFFCURVE",
"-48 -45 CURVE",
"-118 -22 LINE",
"-118 -70 OFFCURVE",
"-154 -97 OFFCURVE",
"-189 -97 CURVE SMOOTH",
"-209 -97 OFFCURVE",
"-221 -88 OFFCURVE",
"-221 -72 CURVE SMOOTH",
"-221 -52 OFFCURVE",
"-201 -35 OFFCURVE",
"-170 -35 CURVE SMOOTH",
"-124 -35 OFFCURVE",
"-64 -74 OFFCURVE",
"40 -161 CURVE"
);
},
{
closed = 1;
nodes = (
"-48 -51 OFFCURVE",
"-46 -41 OFFCURVE",
"-46 -27 CURVE SMOOTH",
"-46 14 OFFCURVE",
"-63 72 OFFCURVE",
"-90 116 CURVE",
"-136 97 LINE",
"-119 63 OFFCURVE",
"-111 37 OFFCURVE",
"-111 10 CURVE SMOOTH",
"-111 -3 OFFCURVE",
"-113 -18 OFFCURVE",
"-117 -32 CURVE",
"-50 -61 LINE"
);
}
);
};
layerId = "A309AC34-D742-49E2-8DE7-30304959F2B2";
name = Bold;
paths = (
{
closed = 1;
nodes = (
"-112 -171 OFFCURVE",
"-70 -153 OFFCURVE",
"-35 -135 CURVE",
"-80 -73 LINE",
"-116 -90 OFFCURVE",
"-149 -98 OFFCURVE",
"-173 -98 CURVE SMOOTH",
"-200 -98 OFFCURVE",
"-215 -88 OFFCURVE",
"-215 -72 CURVE SMOOTH",
"-215 -52 OFFCURVE",
"-189 -36 OFFCURVE",
"-142 -36 CURVE SMOOTH",
"-117 -36 OFFCURVE",
"-92 -40 OFFCURVE",
"-48 -48 CURVE",
"-60 4 LINE",
"-103 24 OFFCURVE",
"-141 32 OFFCURVE",
"-171 32 CURVE SMOOTH",
"-238 32 OFFCURVE",
"-279 -7 OFFCURVE",
"-279 -58 CURVE SMOOTH",
"-279 -116 OFFCURVE",
"-225 -171 OFFCURVE",
"-153 -171 CURVE SMOOTH"
);
},
{
closed = 1;
nodes = (
"72 -193 LINE",
"11 -142 OFFCURVE",
"-42 -99 OFFCURVE",
"-80 -73 CURVE",
"-95 -132 LINE",
"-60 -153 OFFCURVE",
"-17 -186 OFFCURVE",
"38 -231 CURVE"
);
},
{
closed = 1;
nodes = (
"-47 -40 OFFCURVE",
"-47 -34 OFFCURVE",
"-47 -28 CURVE SMOOTH",
"-47 24 OFFCURVE",
"-64 72 OFFCURVE",
"-90 116 CURVE",
"-136 97 LINE",
"-119 64 OFFCURVE",
"-111 38 OFFCURVE",
"-111 11 CURVE SMOOTH",
"-111 -3 OFFCURVE",
"-113 -18 OFFCURVE",
"-115 -33 CURVE",
"-48 -48 LINE"
);
}
);
width = 0;
}
);
},
{
glyphname = bSignUu.alt2;
lastChange = "2016-03-06 15:44:47 +0000";
layers = (
{
background = {
paths = (
{
closed = 1;
nodes = (
"-116 -140 OFFCURVE",
"-82 -119 OFFCURVE",
"-61 -97 CURVE",
"-95 -72 LINE",
"-116 -89 OFFCURVE",
"-144 -99 OFFCURVE",
"-169 -99 CURVE SMOOTH",
"-199 -99 OFFCURVE",
"-213 -84 OFFCURVE",
"-213 -65 CURVE SMOOTH",
"-213 -45 OFFCURVE",
"-198 -19 OFFCURVE",
"-147 -19 CURVE SMOOTH",
"-128 -19 OFFCURVE",
"-99 -23 OFFCURVE",
"-71 -32 CURVE",
"-70 -28 OFFCURVE",
"-70 -23 OFFCURVE",
"-70 -18 CURVE SMOOTH",
"-70 -13 OFFCURVE",
"-70 -8 OFFCURVE",
"-71 -2 CURVE",
"-104 15 OFFCURVE",
"-133 22 OFFCURVE",
"-159 22 CURVE SMOOTH",
"-220 22 OFFCURVE",
"-249 -15 OFFCURVE",
"-249 -54 CURVE SMOOTH",
"-249 -101 OFFCURVE",
"-206 -140 OFFCURVE",
"-154 -140 CURVE SMOOTH"
);
},
{
closed = 1;
nodes = (
"55 -186 LINE",
"-7 -134 OFFCURVE",
"-54 -98 OFFCURVE",
"-95 -72 CURVE",
"-93 -115 LINE",
"-59 -135 OFFCURVE",
"-19 -162 OFFCURVE",
"37 -206 CURVE"
);
}
);
};
layerId = "F2EBC5D5-DDE2-4851-B52F-F2293ECE9CC7";
name = Light;
paths = (
{
closed = 1;
nodes = (
"-109 -140 OFFCURVE",
"-80 -119 OFFCURVE",
"-61 -97 CURVE",
"-95 -72 LINE",
"-113 -89 OFFCURVE",
"-137 -99 OFFCURVE",
"-160 -99 CURVE SMOOTH",
"-189 -99 OFFCURVE",
"-203 -84 OFFCURVE",
"-203 -65 CURVE SMOOTH",
"-203 -45 OFFCURVE",
"-188 -19 OFFCURVE",
"-138 -19 CURVE SMOOTH",
"-124 -19 OFFCURVE",
"-105 -21 OFFCURVE",
"-86 -25 CURVE",
"-85 -20 OFFCURVE",
"-85 -16 OFFCURVE",
"-85 -11 CURVE SMOOTH",
"-85 -4 OFFCURVE",
"-87 6 OFFCURVE",
"-90 12 CURVE",
"-112 19 OFFCURVE",
"-132 22 OFFCURVE",
"-149 22 CURVE SMOOTH",
"-210 22 OFFCURVE",
"-239 -15 OFFCURVE",
"-239 -54 CURVE SMOOTH",
"-239 -101 OFFCURVE",
"-195 -140 OFFCURVE",
"-145 -140 CURVE SMOOTH"
);
},
{
closed = 1;
nodes = (
"55 -186 LINE",
"-7 -134 OFFCURVE",
"-54 -98 OFFCURVE",
"-95 -72 CURVE",
"-93 -115 LINE",
"-59 -135 OFFCURVE",
"-19 -162 OFFCURVE",
"37 -206 CURVE"
);
}
);
width = 0;
},
{
background = {
paths = (
{
closed = 1;
nodes = (
"74 -123 LINE",
"-55 -14 OFFCURVE",
"-112 32 OFFCURVE",
"-183 32 CURVE SMOOTH",
"-250 32 OFFCURVE",
"-287 -8 OFFCURVE",
"-287 -55 CURVE SMOOTH",
"-287 -113 OFFCURVE",
"-232 -166 OFFCURVE",
"-170 -166 CURVE SMOOTH",
"-121 -166 OFFCURVE",
"-79 -131 OFFCURVE",
"-79 -79 CURVE SMOOTH",
"-79 -50 OFFCURVE",
"-91 -31 OFFCURVE",
"-103 -15 CURVE",
"-158 -12 LINE",
"-151 -21 OFFCURVE",
"-142 -40 OFFCURVE",
"-142 -57 CURVE SMOOTH",
"-142 -83 OFFCURVE",
"-162 -99 OFFCURVE",
"-187 -99 CURVE SMOOTH",
"-207 -99 OFFCURVE",
"-221 -88 OFFCURVE",
"-221 -72 CURVE SMOOTH",
"-221 -52 OFFCURVE",
"-201 -35 OFFCURVE",
"-170 -35 CURVE SMOOTH",
"-124 -35 OFFCURVE",
"-64 -74 OFFCURVE",
"40 -161 CURVE"
);
}
);
};
layerId = "A309AC34-D742-49E2-8DE7-30304959F2B2";
name = Bold;
paths = (
{
closed = 1;
nodes = (
"-121 -171 OFFCURVE",
"-84 -153 OFFCURVE",
"-55 -125 CURVE",
"-100 -73 LINE",
"-128 -90 OFFCURVE",
"-153 -98 OFFCURVE",
"-175 -98 CURVE SMOOTH",
"-198 -98 OFFCURVE",
"-215 -89 OFFCURVE",
"-215 -71 CURVE SMOOTH",
"-215 -51 OFFCURVE",
"-194 -31 OFFCURVE",
"-145 -31 CURVE SMOOTH",
"-130 -31 OFFCURVE",
"-114 -33 OFFCURVE",
"-88 -38 CURVE",
"-87 -29 OFFCURVE",
"-87 -22 OFFCURVE",
"-87 -14 CURVE SMOOTH",
"-87 -4 OFFCURVE",
"-87 3 OFFCURVE",
"-89 15 CURVE",
"-117 28 OFFCURVE",
"-147 32 OFFCURVE",
"-169 32 CURVE SMOOTH",
"-236 32 OFFCURVE",
"-279 -7 OFFCURVE",
"-279 -59 CURVE SMOOTH",
"-279 -116 OFFCURVE",
"-226 -171 OFFCURVE",
"-159 -171 CURVE SMOOTH"
);
},
{
closed = 1;
nodes = (
"52 -193 LINE",
"-9 -142 OFFCURVE",
"-62 -99 OFFCURVE",
"-100 -73 CURVE",
"-115 -132 LINE",
"-80 -153 OFFCURVE",
"-37 -186 OFFCURVE",
"18 -231 CURVE"
);
}
);
width = 0;
}
);
},
{
glyphname = bSignVocalicR;
lastChange = "2016-03-09 19:17:05 +0000";
layers = (
{
background = {
paths = (
{
closed = 1;
nodes = (
"54 -96 LINE",
"-64 19 OFFCURVE",
"-114 55 OFFCURVE",
"-171 55 CURVE SMOOTH",
"-229 55 OFFCURVE",
"-259 18 OFFCURVE",
"-259 -21 CURVE SMOOTH",
"-259 -66 OFFCURVE",
"-218 -103 OFFCURVE",
"-169 -103 CURVE SMOOTH",
"-114 -103 OFFCURVE",
"-70 -58 OFFCURVE",
"-70 0 CURVE",
"-102 21 LINE",
"-102 -38 OFFCURVE",
"-142 -69 OFFCURVE",
"-181 -69 CURVE SMOOTH",
"-209 -69 OFFCURVE",
"-223 -52 OFFCURVE",
"-223 -33 CURVE SMOOTH",
"-223 -10 OFFCURVE",
"-205 16 OFFCURVE",
"-162 16 CURVE SMOOTH",
"-112 16 OFFCURVE",
"-60 -20 OFFCURVE",
"37 -113 CURVE"
);
},
{
closed = 1;
nodes = (
"-70 -2 OFFCURVE",
"-68 5 OFFCURVE",
"-68 17 CURVE SMOOTH",
"-68 35 OFFCURVE",
"-72 68 OFFCURVE",
"-79 94 CURVE",
"-101 90 LINE",
"-98 70 OFFCURVE",
"-98 52 OFFCURVE",
"-98 41 CURVE SMOOTH",
"-98 30 OFFCURVE",
"-99 21 OFFCURVE",
"-102 8 CURVE",
"-71 -8 LINE"
);
}
);
};
layerId = "F2EBC5D5-DDE2-4851-B52F-F2293ECE9CC7";
name = Light;
paths = (
{
closed = 1;
nodes = (
"-69 6 OFFCURVE",
"-69 12 OFFCURVE",
"-69 20 CURVE SMOOTH",
"-69 35 OFFCURVE",
"-73 68 OFFCURVE",
"-79 94 CURVE",
"-101 90 LINE",
"-98 69 OFFCURVE",
"-98 50 OFFCURVE",
"-98 38 CURVE",
"-243 -52 LINE",
"-29 -161 LINE",
"-15 -142 LINE",
"-201 -44 LINE",
"-188 -75 LINE",
"-70 0 LINE"
);
}
);
width = 0;
},
{
background = {
paths = (
{
closed = 1;
nodes = (
"74 -63 LINE",
"-63 53 OFFCURVE",
"-123 92 OFFCURVE",
"-187 92 CURVE SMOOTH",
"-254 92 OFFCURVE",
"-287 51 OFFCURVE",
"-287 5 CURVE SMOOTH",
"-287 -54 OFFCURVE",
"-233 -106 OFFCURVE",
"-167 -106 CURVE SMOOTH",
"-101 -106 OFFCURVE",
"-48 -55 OFFCURVE",
"-48 15 CURVE",
"-118 38 LINE",
"-118 -10 OFFCURVE",
"-154 -37 OFFCURVE",
"-189 -37 CURVE SMOOTH",
"-209 -37 OFFCURVE",
"-221 -28 OFFCURVE",
"-221 -12 CURVE SMOOTH",
"-221 8 OFFCURVE",
"-201 25 OFFCURVE",
"-170 25 CURVE SMOOTH",
"-124 25 OFFCURVE",
"-64 -14 OFFCURVE",
"40 -101 CURVE"
);
},
{
closed = 1;
nodes = (
"-48 9 OFFCURVE",
"-46 19 OFFCURVE",
"-46 31 CURVE SMOOTH",
"-46 58 OFFCURVE",
"-56 96 OFFCURVE",
"-72 124 CURVE",
"-116 117 LINE",
"-110 78 OFFCURVE",
"-110 54 OFFCURVE",
"-115 28 CURVE",
"-50 -1 LINE"
);
}
);
};
layerId = "A309AC34-D742-49E2-8DE7-30304959F2B2";
name = Bold;
paths = (
{
closed = 1;
nodes = (
"-49 10 OFFCURVE",
"-48 21 OFFCURVE",
"-48 30 CURVE SMOOTH",
"-48 60 OFFCURVE",
"-57 97 OFFCURVE",
"-72 125 CURVE",
"-116 117 LINE",
"-113 97 OFFCURVE",
"-111 79 OFFCURVE",
"-111 68 CURVE",
"-305 -46 LINE",
"-21 -196 LINE",
"6 -158 LINE",
"-212 -38 LINE",
"-192 -79 LINE",
"-50 0 LINE"
);
}
);
width = 0;
}
);
},
{
glyphname = bSignVocalicRr;
lastChange = "2016-03-10 12:33:21 +0000";
layers = (
{
background = {
paths = (
{
closed = 1;
nodes = (
"-69 6 OFFCURVE",
"-69 12 OFFCURVE",
"-69 20 CURVE SMOOTH",
"-69 35 OFFCURVE",
"-73 68 OFFCURVE",
"-79 94 CURVE",
"-101 90 LINE",
"-98 69 OFFCURVE",
"-98 50 OFFCURVE",
"-98 38 CURVE",
"-243 -52 LINE",
"-29 -161 LINE",
"-15 -142 LINE",
"-201 -44 LINE",
"-188 -75 LINE",
"-70 0 LINE"
);
}
);
};
layerId = "F2EBC5D5-DDE2-4851-B52F-F2293ECE9CC7";
name = Light;
paths = (
{
closed = 1;
nodes = (
"-69 6 OFFCURVE",
"-69 12 OFFCURVE",
"-69 20 CURVE SMOOTH",
"-69 35 OFFCURVE",
"-73 68 OFFCURVE",
"-79 94 CURVE",
"-101 90 LINE",
"-98 69 OFFCURVE",
"-98 50 OFFCURVE",
"-98 38 CURVE",
"-243 -42 LINE",
"-29 -151 LINE",
"-15 -132 LINE",
"-201 -34 LINE",
"-188 -65 LINE",
"-70 0 LINE"
);
},
{
closed = 1;
nodes = (
"-15 -222 LINE",
"-201 -124 LINE",
"-188 -155 LINE",
"-103 -101 LINE",
"-152 -76 LINE",
"-243 -132 LINE",
"-29 -241 LINE"
);
}
);
width = 0;
},
{
background = {
paths = (
{
closed = 0;
nodes = (
"-50 0 LINE",
"-49 10 OFFCURVE",
"-48 21 OFFCURVE",
"-48 30 CURVE SMOOTH",
"-48 60 OFFCURVE",
"-57 97 OFFCURVE",
"-72 125 CURVE",
"-116 117 LINE",
"-113 97 OFFCURVE",
"-111 79 OFFCURVE",
"-111 68 CURVE"
);
}
);
};
layerId = "A309AC34-D742-49E2-8DE7-30304959F2B2";
name = Bold;
paths = (
{
closed = 1;
nodes = (
"-49 10 OFFCURVE",
"-48 21 OFFCURVE",
"-48 30 CURVE SMOOTH",
"-48 60 OFFCURVE",
"-57 97 OFFCURVE",
"-72 125 CURVE",
"-116 117 LINE",
"-113 97 OFFCURVE",
"-111 79 OFFCURVE",
"-111 68 CURVE",
"-303 -36 LINE",
"-19 -186 LINE",
"8 -148 LINE",
"-210 -28 LINE",
"-190 -69 LINE",
"-50 0 LINE"
);
},
{
closed = 1;
nodes = (
"8 -258 LINE",
"-210 -138 LINE",
"-190 -179 LINE",
"-84 -119 LINE",
"-178 -72 LINE",
"-303 -146 LINE",
"-19 -296 LINE"
);
}
);
width = 0;
}
);
},
